<svg width="16" height="16" viewBox="0 0 16 16" fill="none" xmlns="http://www.w3.org/2000/svg">
<g clip-path="url(#clip0_986_2703)">
<path d="M8.66671 13.3333C9.55044 13.3323 10.3977 12.9808 11.0226 12.3559C11.6475 11.731 11.999 10.8837 12 10V4.16201C12.0011 3.81158 11.9326 3.46444 11.7984 3.14069C11.6643 2.81694 11.4673 2.52304 11.2187 2.27601L9.72404 0.781345C9.47701 0.532794 9.18311 0.335747 8.85936 0.201625C8.53562 0.0675033 8.18847 -0.0010253 7.83804 1.15931e-05H4.66671C3.78298 0.00107016 2.93575 0.3526 2.31085 0.977492C1.68596 1.60238 1.33443 2.44962 1.33337 3.33335V10C1.33443 10.8837 1.68596 11.731 2.31085 12.3559C2.93575 12.9808 3.78298 13.3323 4.66671 13.3333H8.66671ZM2.66671 10V3.33335C2.66671 2.80291 2.87742 2.2942 3.25249 1.91913C3.62757 1.54406 4.13627 1.33335 4.66671 1.33335C4.66671 1.33335 7.94604 1.34268 8.00004 1.34935V2.66668C8.00004 3.0203 8.14052 3.35944 8.39057 3.60949C8.64061 3.85954 8.97975 4.00001 9.33337 4.00001H10.6507C10.6574 4.05401 10.6667 10 10.6667 10C10.6667 10.5304 10.456 11.0392 10.0809 11.4142C9.70585 11.7893 9.19714 12 8.66671 12H4.66671C4.13627 12 3.62757 11.7893 3.25249 11.4142C2.87742 11.0392 2.66671 10.5304 2.66671 10ZM14.6667 5.33335V12.6667C14.6657 13.5504 14.3141 14.3976 13.6892 15.0225C13.0643 15.6474 12.2171 15.999 11.3334 16H5.33337C5.15656 16 4.98699 15.9298 4.86197 15.8048C4.73695 15.6797 4.66671 15.5102 4.66671 15.3333C4.66671 15.1565 4.73695 14.987 4.86197 14.8619C4.98699 14.7369 5.15656 14.6667 5.33337 14.6667H11.3334C11.8638 14.6667 12.3725 14.456 12.7476 14.0809C13.1227 13.7058 13.3334 13.1971 13.3334 12.6667V5.33335C13.3334 5.15653 13.4036 4.98697 13.5286 4.86194C13.6537 4.73692 13.8232 4.66668 14 4.66668C14.1769 4.66668 14.3464 4.73692 14.4714 4.86194C14.5965 4.98697 14.6667 5.15653 14.6667 5.33335Z" fill="#8E8E8E"/>
</g>
<defs>
<clipPath id="clip0_986_2703">
<rect width="16" height="16" fill="white"/>
</clipPath>
</defs>
</svg>
