<svg width="171" height="33" viewBox="0 0 171 33" fill="none" xmlns="http://www.w3.org/2000/svg">
<mask id="path-1-inside-1_1030_5200" fill="white">
<path d="M2.56544 0C1.84751 0 1.23984 0.254138 0.744883 0.764864C0.247476 1.27559 0 1.88254 0 2.58324C0 3.28395 0.247476 3.8909 0.744883 4.40162C1.23984 4.91235 1.84751 5.16647 2.56544 5.16647C3.28337 5.16647 3.85919 4.91235 4.35414 4.40162C4.8491 3.8909 5.09903 3.28395 5.09903 2.58324C5.09903 1.88254 4.85155 1.27559 4.35414 0.764864C3.85673 0.254138 3.26132 0 2.56544 0Z"/>
<path d="M4.53056 8.45288H0.570915V24.8825H4.53056V8.45288Z"/>
<path d="M24.9561 8.13461C22.5475 8.13461 20.7637 9.04996 19.6022 10.8782C18.3991 9.04996 16.6129 8.13461 14.2484 8.13461C12.222 8.13461 10.5533 8.81065 9.24245 10.1602C7.93155 11.5098 7.27732 13.3455 7.27732 15.6623V24.8825H11.237V15.6623C11.237 14.5347 11.5335 13.6465 12.124 12.9976C12.7145 12.3487 13.4863 12.0255 14.437 12.0255C15.3877 12.0255 16.1522 12.3438 16.7329 12.9828C17.3137 13.6218 17.6052 14.515 17.6052 15.6623V24.8825H21.5649V15.6623C21.5649 14.5347 21.8614 13.6465 22.4519 12.9976C23.0424 12.3487 23.8143 12.0255 24.765 12.0255C25.7157 12.0255 26.4802 12.3438 27.0609 12.9828C27.6416 13.6218 27.9332 14.515 27.9332 15.6623V24.8825H31.8928V15.6623C31.8928 13.3455 31.2435 11.5098 29.9448 10.1602C28.6462 8.81065 26.9825 8.13461 24.9561 8.13461Z"/>
<path d="M52.3526 8.13461C49.944 8.13461 48.1602 9.04996 46.9988 10.8782C45.7957 9.04996 44.0094 8.13461 41.6449 8.13461C39.6185 8.13461 37.9499 8.81065 36.639 10.1602C35.3281 11.5098 34.6739 13.3455 34.6739 15.6623V24.8825H38.6335V15.6623C38.6335 14.5347 38.93 13.6465 39.5205 12.9976C40.1111 12.3487 40.8829 12.0255 41.8336 12.0255C42.7843 12.0255 43.5488 12.3438 44.1295 12.9828C44.7102 13.6218 45.0018 14.515 45.0018 15.6623V24.8825H48.9615V15.6623C48.9615 14.5347 49.2579 13.6465 49.8485 12.9976C50.439 12.3487 51.2108 12.0255 52.1615 12.0255C53.1122 12.0255 53.8767 12.3438 54.4574 12.9828C55.0381 13.6218 55.3297 14.515 55.3297 15.6623V24.8825H59.2894V15.6623C59.2894 13.3455 58.6401 11.5098 57.3414 10.1602C56.0428 8.81065 54.379 8.13461 52.3526 8.13461Z"/>
<path d="M70.4381 8.13461C67.9683 8.13461 65.9247 8.93647 64.3075 10.5427C62.6928 12.1489 61.8842 14.1942 61.8842 16.6837C61.8842 19.1732 62.6928 21.2136 64.3075 22.8075C65.9223 24.4013 67.9658 25.2007 70.4381 25.2007C72.9105 25.2007 74.9785 24.4038 76.5834 22.8075C78.1884 21.2136 78.9921 19.1707 78.9921 16.6837C78.9921 14.1967 78.1884 12.1217 76.5834 10.5279C74.9785 8.93401 72.9301 8.13461 70.4381 8.13461ZM73.7019 20.017C72.8566 20.9003 71.7686 21.3419 70.4381 21.3419C69.1076 21.3419 68.0197 20.9003 67.1744 20.017C66.329 19.1337 65.9076 18.0234 65.9076 16.6837C65.9076 15.344 66.329 14.2066 67.1744 13.3332C68.0197 12.4622 69.1076 12.0255 70.4381 12.0255C71.7686 12.0255 72.8566 12.4622 73.7019 13.3332C74.5473 14.2066 74.9687 15.3218 74.9687 16.6837C74.9687 18.0456 74.5448 19.1362 73.7019 20.017Z"/>
<path d="M83.9 10.5599C82.4224 11.9638 81.6825 14.1326 81.6825 17.0686V24.8849H85.6421V17.0686C85.6421 15.6647 86.0538 14.5322 86.877 13.6712C87.7003 12.8101 88.7785 12.3783 90.109 12.3783H92.0741V8.45535H90.109C87.448 8.45535 85.3775 9.15606 83.9 10.5599Z"/>
<path d="M109.77 0C109.052 0 108.444 0.254138 107.949 0.764864C107.452 1.27559 107.205 1.88254 107.205 2.58324C107.205 3.28395 107.452 3.8909 107.949 4.40162C108.444 4.91235 109.052 5.16647 109.77 5.16647C110.488 5.16647 111.064 4.91235 111.561 4.40162C112.056 3.8909 112.306 3.28395 112.306 2.58324C112.306 1.88254 112.059 1.27559 111.561 0.764864C111.064 0.254138 110.468 0 109.77 0Z"/>
<path d="M111.733 8.45288H107.773V24.8825H111.733V8.45288Z"/>
<path d="M159.185 16.1088C159.185 14.811 159.55 13.8069 160.278 13.0938C161.005 12.3808 161.951 12.0255 163.113 12.0255C164.274 12.0255 165.22 12.3808 165.948 13.0938C166.675 13.8069 167.04 14.811 167.04 16.1088V24.8825H171V16.0151C171 13.57 170.265 11.6455 168.797 10.2417C167.329 8.83777 165.433 8.13708 163.11 8.13708C160.787 8.13708 158.864 8.83777 157.408 10.2417C155.95 11.6455 155.223 13.57 155.223 16.0151V24.8825H159.182L159.185 16.1088Z"/>
<path d="M148.428 19.3484C147.514 20.8534 145.867 21.8551 143.993 21.8551C141.918 21.8551 139.622 20.3822 138.784 18.6082L136.468 21.1297C138.176 23.5921 140.8 25.4351 143.993 25.4351C147.874 25.4351 151.175 22.879 152.319 19.3484H148.428Z"/>
<path d="M98.8736 2.71155H94.914V18.7266C94.914 20.8312 95.4408 22.4177 96.4968 23.4786C97.5529 24.542 99.0623 25.0724 101.027 25.0724C102.422 25.0724 103.71 24.9861 104.891 24.8183V20.9891C103.835 21.1371 102.801 21.2136 101.787 21.2136C100.773 21.2136 99.9811 20.9842 99.5376 20.5277C99.0941 20.0713 98.8712 19.3434 98.8712 18.3417L98.8721 12.3956H104.865V8.46768H98.8727L98.8736 2.71155Z"/>
<path d="M126.307 24.8035C126.616 24.7147 126.912 24.616 127.206 24.5124V25.6276C127.206 26.8217 126.841 27.7544 126.111 28.4205C125.381 29.0867 124.413 29.4198 123.205 29.4198C122.347 29.4198 121.612 29.2298 121 28.8474C120.387 28.4649 119.953 27.9493 119.701 27.3028H115.758C116.207 29.0275 117.084 30.3795 118.388 31.3615C119.694 32.341 121.299 32.832 123.207 32.832C125.486 32.832 127.331 32.188 128.743 30.9051C130.154 29.6196 130.86 27.8605 130.86 25.6251V22.6002C133.336 20.8622 135.197 18.5793 136.876 16.5196C137.857 15.3164 138.776 14.1892 139.72 13.2912C139.894 13.1259 140.07 12.9655 140.246 12.8175C140.852 12.2204 141.579 11.7862 142.371 11.5419C142.873 11.3667 143.4 11.2754 143.959 11.2828C144.211 11.2878 144.51 11.3124 144.843 11.3815C145.863 11.5592 146.784 12.0304 147.514 12.704C148.095 13.2394 148.558 13.908 148.852 14.6556H139.592V17.8162L152.488 17.8433C152.547 17.4338 152.579 17.0119 152.579 16.585C152.579 13.1234 150.54 10.1331 147.6 8.75142C146.487 8.22836 145.247 7.90762 143.941 7.93723C141.107 7.99871 139.792 8.88295 138.678 9.63192L138.534 9.72847C138.115 10.0023 136.708 11.3963 136.206 11.9243C135.42 12.7777 134.666 13.7027 133.907 14.6334C131.269 17.8707 128.575 21.1755 124.278 21.7638L124.254 21.7676C124.113 21.7899 123.406 21.902 123.043 21.902C122.742 21.902 122.448 21.8773 122.159 21.828C121.965 21.7959 121.774 21.7515 121.588 21.6972C119.382 21.0606 117.765 19.0178 117.765 16.6048C117.765 13.6835 120.132 11.305 123.043 11.305C127.753 11.2113 128.983 15.8942 128.983 15.8942L131.188 13.6736C130.943 12.1933 128.493 7.99891 123.048 7.93476C118.285 7.93476 114.411 11.8207 114.411 16.5998C114.411 21.3789 118.285 25.2649 123.048 25.2649C123.276 25.2649 123.501 25.255 123.727 25.2377C123.727 25.2377 125.307 25.0922 126.307 24.8035Z"/>
</mask>
<path d="M2.56544 0C1.84751 0 1.23984 0.254138 0.744883 0.764864C0.247476 1.27559 0 1.88254 0 2.58324C0 3.28395 0.247476 3.8909 0.744883 4.40162C1.23984 4.91235 1.84751 5.16647 2.56544 5.16647C3.28337 5.16647 3.85919 4.91235 4.35414 4.40162C4.8491 3.8909 5.09903 3.28395 5.09903 2.58324C5.09903 1.88254 4.85155 1.27559 4.35414 0.764864C3.85673 0.254138 3.26132 0 2.56544 0Z" fill="#555CF5"/>
<path d="M4.53056 8.45288H0.570915V24.8825H4.53056V8.45288Z" fill="#555CF5"/>
<path d="M24.9561 8.13461C22.5475 8.13461 20.7637 9.04996 19.6022 10.8782C18.3991 9.04996 16.6129 8.13461 14.2484 8.13461C12.222 8.13461 10.5533 8.81065 9.24245 10.1602C7.93155 11.5098 7.27732 13.3455 7.27732 15.6623V24.8825H11.237V15.6623C11.237 14.5347 11.5335 13.6465 12.124 12.9976C12.7145 12.3487 13.4863 12.0255 14.437 12.0255C15.3877 12.0255 16.1522 12.3438 16.7329 12.9828C17.3137 13.6218 17.6052 14.515 17.6052 15.6623V24.8825H21.5649V15.6623C21.5649 14.5347 21.8614 13.6465 22.4519 12.9976C23.0424 12.3487 23.8143 12.0255 24.765 12.0255C25.7157 12.0255 26.4802 12.3438 27.0609 12.9828C27.6416 13.6218 27.9332 14.515 27.9332 15.6623V24.8825H31.8928V15.6623C31.8928 13.3455 31.2435 11.5098 29.9448 10.1602C28.6462 8.81065 26.9825 8.13461 24.9561 8.13461Z" fill="#555CF5"/>
<path d="M52.3526 8.13461C49.944 8.13461 48.1602 9.04996 46.9988 10.8782C45.7957 9.04996 44.0094 8.13461 41.6449 8.13461C39.6185 8.13461 37.9499 8.81065 36.639 10.1602C35.3281 11.5098 34.6739 13.3455 34.6739 15.6623V24.8825H38.6335V15.6623C38.6335 14.5347 38.93 13.6465 39.5205 12.9976C40.1111 12.3487 40.8829 12.0255 41.8336 12.0255C42.7843 12.0255 43.5488 12.3438 44.1295 12.9828C44.7102 13.6218 45.0018 14.515 45.0018 15.6623V24.8825H48.9615V15.6623C48.9615 14.5347 49.2579 13.6465 49.8485 12.9976C50.439 12.3487 51.2108 12.0255 52.1615 12.0255C53.1122 12.0255 53.8767 12.3438 54.4574 12.9828C55.0381 13.6218 55.3297 14.515 55.3297 15.6623V24.8825H59.2894V15.6623C59.2894 13.3455 58.6401 11.5098 57.3414 10.1602C56.0428 8.81065 54.379 8.13461 52.3526 8.13461Z" fill="#555CF5"/>
<path d="M70.4381 8.13461C67.9683 8.13461 65.9247 8.93647 64.3075 10.5427C62.6928 12.1489 61.8842 14.1942 61.8842 16.6837C61.8842 19.1732 62.6928 21.2136 64.3075 22.8075C65.9223 24.4013 67.9658 25.2007 70.4381 25.2007C72.9105 25.2007 74.9785 24.4038 76.5834 22.8075C78.1884 21.2136 78.9921 19.1707 78.9921 16.6837C78.9921 14.1967 78.1884 12.1217 76.5834 10.5279C74.9785 8.93401 72.9301 8.13461 70.4381 8.13461ZM73.7019 20.017C72.8566 20.9003 71.7686 21.3419 70.4381 21.3419C69.1076 21.3419 68.0197 20.9003 67.1744 20.017C66.329 19.1337 65.9076 18.0234 65.9076 16.6837C65.9076 15.344 66.329 14.2066 67.1744 13.3332C68.0197 12.4622 69.1076 12.0255 70.4381 12.0255C71.7686 12.0255 72.8566 12.4622 73.7019 13.3332C74.5473 14.2066 74.9687 15.3218 74.9687 16.6837C74.9687 18.0456 74.5448 19.1362 73.7019 20.017Z" fill="#555CF5"/>
<path d="M83.9 10.5599C82.4224 11.9638 81.6825 14.1326 81.6825 17.0686V24.8849H85.6421V17.0686C85.6421 15.6647 86.0538 14.5322 86.877 13.6712C87.7003 12.8101 88.7785 12.3783 90.109 12.3783H92.0741V8.45535H90.109C87.448 8.45535 85.3775 9.15606 83.9 10.5599Z" fill="#555CF5"/>
<path d="M109.77 0C109.052 0 108.444 0.254138 107.949 0.764864C107.452 1.27559 107.205 1.88254 107.205 2.58324C107.205 3.28395 107.452 3.8909 107.949 4.40162C108.444 4.91235 109.052 5.16647 109.77 5.16647C110.488 5.16647 111.064 4.91235 111.561 4.40162C112.056 3.8909 112.306 3.28395 112.306 2.58324C112.306 1.88254 112.059 1.27559 111.561 0.764864C111.064 0.254138 110.468 0 109.77 0Z" fill="#555CF5"/>
<path d="M111.733 8.45288H107.773V24.8825H111.733V8.45288Z" fill="#555CF5"/>
<path d="M159.185 16.1088C159.185 14.811 159.55 13.8069 160.278 13.0938C161.005 12.3808 161.951 12.0255 163.113 12.0255C164.274 12.0255 165.22 12.3808 165.948 13.0938C166.675 13.8069 167.04 14.811 167.04 16.1088V24.8825H171V16.0151C171 13.57 170.265 11.6455 168.797 10.2417C167.329 8.83777 165.433 8.13708 163.11 8.13708C160.787 8.13708 158.864 8.83777 157.408 10.2417C155.95 11.6455 155.223 13.57 155.223 16.0151V24.8825H159.182L159.185 16.1088Z" fill="#555CF5"/>
<path d="M148.428 19.3484C147.514 20.8534 145.867 21.8551 143.993 21.8551C141.918 21.8551 139.622 20.3822 138.784 18.6082L136.468 21.1297C138.176 23.5921 140.8 25.4351 143.993 25.4351C147.874 25.4351 151.175 22.879 152.319 19.3484H148.428Z" fill="#555CF5"/>
<path d="M98.8736 2.71155H94.914V18.7266C94.914 20.8312 95.4408 22.4177 96.4968 23.4786C97.5529 24.542 99.0623 25.0724 101.027 25.0724C102.422 25.0724 103.71 24.9861 104.891 24.8183V20.9891C103.835 21.1371 102.801 21.2136 101.787 21.2136C100.773 21.2136 99.9811 20.9842 99.5376 20.5277C99.0941 20.0713 98.8712 19.3434 98.8712 18.3417L98.8721 12.3956H104.865V8.46768H98.8727L98.8736 2.71155Z" fill="#555CF5"/>
<path d="M126.307 24.8035C126.616 24.7147 126.912 24.616 127.206 24.5124V25.6276C127.206 26.8217 126.841 27.7544 126.111 28.4205C125.381 29.0867 124.413 29.4198 123.205 29.4198C122.347 29.4198 121.612 29.2298 121 28.8474C120.387 28.4649 119.953 27.9493 119.701 27.3028H115.758C116.207 29.0275 117.084 30.3795 118.388 31.3615C119.694 32.341 121.299 32.832 123.207 32.832C125.486 32.832 127.331 32.188 128.743 30.9051C130.154 29.6196 130.86 27.8605 130.86 25.6251V22.6002C133.336 20.8622 135.197 18.5793 136.876 16.5196C137.857 15.3164 138.776 14.1892 139.72 13.2912C139.894 13.1259 140.07 12.9655 140.246 12.8175C140.852 12.2204 141.579 11.7862 142.371 11.5419C142.873 11.3667 143.4 11.2754 143.959 11.2828C144.211 11.2878 144.51 11.3124 144.843 11.3815C145.863 11.5592 146.784 12.0304 147.514 12.704C148.095 13.2394 148.558 13.908 148.852 14.6556H139.592V17.8162L152.488 17.8433C152.547 17.4338 152.579 17.0119 152.579 16.585C152.579 13.1234 150.54 10.1331 147.6 8.75142C146.487 8.22836 145.247 7.90762 143.941 7.93723C141.107 7.99871 139.792 8.88295 138.678 9.63192L138.534 9.72847C138.115 10.0023 136.708 11.3963 136.206 11.9243C135.42 12.7777 134.666 13.7027 133.907 14.6334C131.269 17.8707 128.575 21.1755 124.278 21.7638L124.254 21.7676C124.113 21.7899 123.406 21.902 123.043 21.902C122.742 21.902 122.448 21.8773 122.159 21.828C121.965 21.7959 121.774 21.7515 121.588 21.6972C119.382 21.0606 117.765 19.0178 117.765 16.6048C117.765 13.6835 120.132 11.305 123.043 11.305C127.753 11.2113 128.983 15.8942 128.983 15.8942L131.188 13.6736C130.943 12.1933 128.493 7.99891 123.048 7.93476C118.285 7.93476 114.411 11.8207 114.411 16.5998C114.411 21.3789 118.285 25.2649 123.048 25.2649C123.276 25.2649 123.501 25.255 123.727 25.2377C123.727 25.2377 125.307 25.0922 126.307 24.8035Z" fill="#555CF5"/>
<path d="M136.876 16.5196L136.777 16.4384C136.567 16.6959 136.354 16.9566 136.138 17.2193L136.237 17.301L136.336 17.3827C136.553 17.1195 136.766 16.8583 136.976 16.6009L136.876 16.5196ZM0.744883 0.764864L0.929097 0.944274L0.929539 0.943818L0.744883 0.764864ZM0.744883 4.40162L0.929539 4.22267L0.929096 4.22221L0.744883 4.40162ZM4.53056 8.45288H4.7877V8.19574H4.53056V8.45288ZM0.570915 8.45288V8.19574H0.313772V8.45288H0.570915ZM0.570915 24.8825H0.313772V25.1396H0.570915V24.8825ZM4.53056 24.8825V25.1396H4.7877V24.8825H4.53056ZM19.6022 10.8782L19.3874 11.0196L19.606 11.3518L19.8193 11.0161L19.6022 10.8782ZM7.27732 24.8825H7.02018V25.1396H7.27732V24.8825ZM11.237 24.8825V25.1396H11.4941V24.8825H11.237ZM17.6052 24.8825H17.3481V25.1396H17.6052V24.8825ZM21.5649 24.8825V25.1396H21.822V24.8825H21.5649ZM27.9332 24.8825H27.676V25.1396H27.9332V24.8825ZM31.8928 24.8825V25.1396H32.15V24.8825H31.8928ZM46.9988 10.8782L46.784 11.0196L47.0026 11.3518L47.2158 11.0161L46.9988 10.8782ZM34.6739 24.8825H34.4167V25.1396H34.6739V24.8825ZM38.6335 24.8825V25.1396H38.8907V24.8825H38.6335ZM45.0018 24.8825H44.7447V25.1396H45.0018V24.8825ZM48.9615 24.8825V25.1396H49.2186V24.8825H48.9615ZM55.3297 24.8825H55.0726V25.1396H55.3297V24.8825ZM59.2894 24.8825V25.1396H59.5465V24.8825H59.2894ZM64.3075 10.5427L64.1263 10.3602L64.1262 10.3604L64.3075 10.5427ZM76.5834 22.8075L76.4022 22.625L76.4021 22.6252L76.5834 22.8075ZM73.7019 20.017L73.8877 20.1948L73.8877 20.1948L73.7019 20.017ZM67.1744 13.3332L66.9898 13.1541L66.9896 13.1543L67.1744 13.3332ZM73.7019 13.3332L73.8867 13.1543L73.8864 13.1541L73.7019 13.3332ZM81.6825 24.8849H81.4253V25.1421H81.6825V24.8849ZM85.6421 24.8849V25.1421H85.8993V24.8849H85.6421ZM92.0741 12.3783V12.6355H92.3312V12.3783H92.0741ZM92.0741 8.45535H92.3312V8.19821H92.0741V8.45535ZM107.949 0.764864L108.134 0.944274L108.134 0.943818L107.949 0.764864ZM107.949 4.40162L108.134 4.22267L108.134 4.22221L107.949 4.40162ZM111.561 4.40162L111.745 4.58103L111.746 4.58058L111.561 4.40162ZM111.733 8.45288H111.99V8.19574H111.733V8.45288ZM107.773 8.45288V8.19574H107.516V8.45288H107.773ZM107.773 24.8825H107.516V25.1396H107.773V24.8825ZM111.733 24.8825V25.1396H111.99V24.8825H111.733ZM159.185 16.1088L159.442 16.1089V16.1088H159.185ZM167.04 24.8825H166.783V25.1396H167.04V24.8825ZM171 24.8825V25.1396H171.257V24.8825H171ZM157.408 10.2417L157.587 10.4269L157.587 10.4267L157.408 10.2417ZM155.223 24.8825H154.965V25.1396H155.223V24.8825ZM159.182 24.8825V25.1396H159.439L159.439 24.8825L159.182 24.8825ZM136.876 16.5196L137.076 16.6821L136.876 16.5196ZM148.428 19.3484V19.0912H148.283L148.208 19.2149L148.428 19.3484ZM138.784 18.6082L139.016 18.4984L138.853 18.1526L138.594 18.4343L138.784 18.6082ZM136.468 21.1297L136.279 20.9558L136.14 21.1073L136.257 21.2763L136.468 21.1297ZM152.319 19.3484L152.564 19.4276L152.673 19.0912H152.319V19.3484ZM98.8736 2.71155L99.1308 2.71159L99.1308 2.4544H98.8736V2.71155ZM94.914 2.71155V2.4544H94.6568V2.71155H94.914ZM96.4968 23.4786L96.6793 23.2974L96.6791 23.2972L96.4968 23.4786ZM104.891 24.8183L104.928 25.0729L105.149 25.0415V24.8183H104.891ZM104.891 20.9891H105.149V20.6934L104.856 20.7344L104.891 20.9891ZM98.8712 18.3417L98.614 18.3417V18.3417H98.8712ZM98.8721 12.3956V12.1384H98.615L98.6149 12.3956L98.8721 12.3956ZM104.865 12.3956V12.6527H105.122V12.3956H104.865ZM104.865 8.46768H105.122V8.21054H104.865V8.46768ZM98.8727 8.46768L98.6156 8.46764L98.6155 8.72482H98.8727V8.46768ZM126.307 24.8035L126.236 24.5564L126.236 24.5565L126.307 24.8035ZM127.206 24.5124H127.463V24.1491L127.121 24.2698L127.206 24.5124ZM119.701 27.3028L119.941 27.2093L119.877 27.0457H119.701V27.3028ZM115.758 27.3028V27.0457H115.426L115.51 27.3676L115.758 27.3028ZM118.388 31.3615L118.233 31.5669L118.233 31.5672L118.388 31.3615ZM128.743 30.9051L128.915 31.0953L128.916 31.0952L128.743 30.9051ZM130.86 22.6002L130.712 22.3898L130.602 22.4666V22.6002H130.86ZM139.72 13.2912L139.543 13.1048L139.542 13.105L139.72 13.2912ZM140.246 12.8175L140.412 13.0145L140.42 13.0078L140.427 13.0005L140.246 12.8175ZM142.371 11.5419L142.447 11.7878L142.456 11.7847L142.371 11.5419ZM143.959 11.2828L143.964 11.0257L143.962 11.0257L143.959 11.2828ZM144.843 11.3815L144.791 11.6334L144.799 11.6349L144.843 11.3815ZM147.514 12.704L147.34 12.893L147.34 12.8931L147.514 12.704ZM148.852 14.6556V14.9128H149.229L149.091 14.5615L148.852 14.6556ZM139.592 14.6556V14.3985H139.335V14.6556H139.592ZM139.592 17.8162H139.335V18.0728L139.592 18.0733L139.592 17.8162ZM152.488 17.8433L152.488 18.1005L152.711 18.1009L152.743 17.8799L152.488 17.8433ZM147.6 8.75142L147.49 8.98413L147.49 8.98415L147.6 8.75142ZM143.941 7.93723L143.947 8.19431L143.947 8.1943L143.941 7.93723ZM138.678 9.63192L138.821 9.84542L138.821 9.84531L138.678 9.63192ZM138.534 9.72847L138.674 9.94373L138.677 9.94197L138.534 9.72847ZM136.206 11.9243L136.02 11.7471L136.017 11.7501L136.206 11.9243ZM133.907 14.6334L134.107 14.7958L133.907 14.6334ZM124.278 21.7638L124.243 21.509L124.238 21.5098L124.278 21.7638ZM124.254 21.7676L124.214 21.5136L124.213 21.5137L124.254 21.7676ZM122.159 21.828L122.202 21.5745L122.201 21.5743L122.159 21.828ZM121.588 21.6972L121.66 21.4503L121.659 21.4501L121.588 21.6972ZM123.043 11.305V11.5622L123.048 11.5621L123.043 11.305ZM128.983 15.8942L128.734 15.9595L128.848 16.3945L129.165 16.0754L128.983 15.8942ZM131.188 13.6736L131.37 13.8548L131.463 13.7615L131.441 13.6316L131.188 13.6736ZM123.048 7.93476L123.051 7.67761H123.048V7.93476ZM123.727 25.2377L123.746 25.4942L123.75 25.4938L123.727 25.2377ZM2.56544 0V-0.257143C1.77911 -0.257143 1.10445 0.024351 0.560227 0.585909L0.744883 0.764864L0.929539 0.943818C1.37523 0.483925 1.91591 0.257143 2.56544 0.257143V0ZM0.744883 0.764864L0.560669 0.585454C0.0170938 1.14358 -0.257143 1.81467 -0.257143 2.58324H0H0.257143C0.257143 1.9504 0.477859 1.40759 0.929096 0.944273L0.744883 0.764864ZM0 2.58324H-0.257143C-0.257143 3.35181 0.0170939 4.0229 0.560669 4.58103L0.744883 4.40162L0.929096 4.22221C0.477859 3.75889 0.257143 3.21608 0.257143 2.58324H0ZM0.744883 4.40162L0.560227 4.58058C1.10445 5.14214 1.77912 5.42361 2.56544 5.42361V5.16647V4.90933C1.9159 4.90933 1.37523 4.68256 0.929539 4.22267L0.744883 4.40162ZM2.56544 5.16647V5.42361C3.35532 5.42361 3.99707 5.13957 4.5388 4.58058L4.35414 4.40162L4.16949 4.22267C3.7213 4.68513 3.21143 4.90933 2.56544 4.90933V5.16647ZM4.35414 4.40162L4.5388 4.58058C5.07911 4.02305 5.35617 3.35237 5.35617 2.58324H5.09903H4.84189C4.84189 3.21553 4.61909 3.75874 4.16949 4.22267L4.35414 4.40162ZM5.09903 2.58324H5.35617C5.35617 1.81467 5.08193 1.14358 4.53835 0.585454L4.35414 0.764864L4.16993 0.944273C4.62117 1.40759 4.84189 1.9504 4.84189 2.58324H5.09903ZM4.35414 0.764864L4.53835 0.585454C3.99375 0.0262634 3.3324 -0.257143 2.56544 -0.257143V0V0.257143C3.19024 0.257143 3.71972 0.482013 4.16993 0.944273L4.35414 0.764864ZM4.53056 8.45288V8.19574H0.570915V8.45288V8.71002H4.53056V8.45288ZM0.570915 8.45288H0.313772V24.8825H0.570915H0.828058V8.45288H0.570915ZM0.570915 24.8825V25.1396H4.53056V24.8825V24.6253H0.570915V24.8825ZM4.53056 24.8825H4.7877V8.45288H4.53056H4.27342V24.8825H4.53056ZM24.9561 8.13461V7.87746C22.471 7.87746 20.5997 8.82857 19.3852 10.7403L19.6022 10.8782L19.8193 11.0161C20.9277 9.27135 22.6239 8.39175 24.9561 8.39175V8.13461ZM19.6022 10.8782L19.817 10.7369C18.562 8.82969 16.6911 7.87746 14.2484 7.87746V8.13461V8.39175C16.5346 8.39175 18.2363 9.27024 19.3874 11.0196L19.6022 10.8782ZM14.2484 8.13461V7.87746C12.1583 7.87746 10.4212 8.5776 9.058 9.98108L9.24245 10.1602L9.4269 10.3394C10.6855 9.04368 12.2857 8.39175 14.2484 8.39175V8.13461ZM9.24245 10.1602L9.058 9.98108C7.69009 11.3894 7.02018 13.2952 7.02018 15.6623H7.27732H7.53447C7.53447 13.3958 8.17301 11.6303 9.4269 10.3394L9.24245 10.1602ZM7.27732 15.6623H7.02018V24.8825H7.27732H7.53447V15.6623H7.27732ZM7.27732 24.8825V25.1396H11.237V24.8825V24.6253H7.27732V24.8825ZM11.237 24.8825H11.4941V15.6623H11.237H10.9798V24.8825H11.237ZM11.237 15.6623H11.4941C11.4941 14.5802 11.7778 13.7601 12.3142 13.1707L12.124 12.9976L11.9338 12.8245C11.2891 13.5329 10.9798 14.4893 10.9798 15.6623H11.237ZM12.124 12.9976L12.3142 13.1707C12.8513 12.5804 13.5516 12.2826 14.437 12.2826V12.0255V11.7684C13.4211 11.7684 12.5777 12.117 11.9338 12.8245L12.124 12.9976ZM14.437 12.0255V12.2826C15.3236 12.2826 16.016 12.5762 16.5426 13.1557L16.7329 12.9828L16.9232 12.8099C16.2885 12.1113 15.4519 11.7684 14.437 11.7684V12.0255ZM16.7329 12.9828L16.5426 13.1557C17.068 13.7338 17.3481 14.5578 17.3481 15.6623H17.6052H17.8624C17.8624 14.4722 17.5594 13.5098 16.9232 12.8099L16.7329 12.9828ZM17.6052 15.6623H17.3481V24.8825H17.6052H17.8624V15.6623H17.6052ZM17.6052 24.8825V25.1396H21.5649V24.8825V24.6253H17.6052V24.8825ZM21.5649 24.8825H21.822V15.6623H21.5649H21.3078V24.8825H21.5649ZM21.5649 15.6623H21.822C21.822 14.5802 22.1057 13.7601 22.6421 13.1707L22.4519 12.9976L22.2617 12.8245C21.6171 13.5329 21.3078 14.4893 21.3078 15.6623H21.5649ZM22.4519 12.9976L22.6421 13.1707C23.1792 12.5804 23.8795 12.2826 24.765 12.2826V12.0255V11.7684C23.749 11.7684 22.9056 12.117 22.2617 12.8245L22.4519 12.9976ZM24.765 12.0255V12.2826C25.6515 12.2826 26.3439 12.5762 26.8706 13.1557L27.0609 12.9828L27.2512 12.8099C26.6164 12.1113 25.7798 11.7684 24.765 11.7684V12.0255ZM27.0609 12.9828L26.8706 13.1557C27.3959 13.7338 27.676 14.5578 27.676 15.6623H27.9332H28.1903C28.1903 14.4722 27.8873 13.5098 27.2512 12.8099L27.0609 12.9828ZM27.9332 15.6623H27.676V24.8825H27.9332H28.1903V15.6623H27.9332ZM27.9332 24.8825V25.1396H31.8928V24.8825V24.6253H27.9332V24.8825ZM31.8928 24.8825H32.15V15.6623H31.8928H31.6357V24.8825H31.8928ZM31.8928 15.6623H32.15C32.15 13.2957 31.4853 11.3903 30.1301 9.98195L29.9448 10.1602L29.7596 10.3385C31.0017 11.6294 31.6357 13.3953 31.6357 15.6623H31.8928ZM29.9448 10.1602L30.1301 9.98195C28.7788 8.57761 27.0461 7.87746 24.9561 7.87746V8.13461V8.39175C26.9188 8.39175 28.5136 9.04368 29.7596 10.3385L29.9448 10.1602ZM52.3526 8.13461V7.87746C49.8676 7.87746 47.9962 8.82857 46.7817 10.7403L46.9988 10.8782L47.2158 11.0161C48.3242 9.27135 50.0205 8.39175 52.3526 8.39175V8.13461ZM46.9988 10.8782L47.2136 10.7369C45.9586 8.82969 44.0877 7.87746 41.6449 7.87746V8.13461V8.39175C43.9312 8.39175 45.6328 9.27024 46.784 11.0196L46.9988 10.8782ZM41.6449 8.13461V7.87746C39.5549 7.87746 37.8178 8.5776 36.4546 9.98108L36.639 10.1602L36.8235 10.3394C38.082 9.04368 39.6822 8.39175 41.6449 8.39175V8.13461ZM36.639 10.1602L36.4546 9.98108C35.0866 11.3894 34.4167 13.2952 34.4167 15.6623H34.6739H34.931C34.931 13.3958 35.5696 11.6303 36.8235 10.3394L36.639 10.1602ZM34.6739 15.6623H34.4167V24.8825H34.6739H34.931V15.6623H34.6739ZM34.6739 24.8825V25.1396H38.6335V24.8825V24.6253H34.6739V24.8825ZM38.6335 24.8825H38.8907V15.6623H38.6335H38.3764V24.8825H38.6335ZM38.6335 15.6623H38.8907C38.8907 14.5802 39.1743 13.7601 39.7107 13.1707L39.5205 12.9976L39.3304 12.8245C38.6857 13.5329 38.3764 14.4893 38.3764 15.6623H38.6335ZM39.5205 12.9976L39.7107 13.1707C40.2479 12.5804 40.9481 12.2826 41.8336 12.2826V12.0255V11.7684C40.8176 11.7684 39.9742 12.117 39.3304 12.8245L39.5205 12.9976ZM41.8336 12.0255V12.2826C42.7202 12.2826 43.4126 12.5762 43.9392 13.1557L44.1295 12.9828L44.3198 12.8099C43.685 12.1113 42.8484 11.7684 41.8336 11.7684V12.0255ZM44.1295 12.9828L43.9392 13.1557C44.4645 13.7338 44.7447 14.5578 44.7447 15.6623H45.0018H45.2589C45.2589 14.4722 44.9559 13.5098 44.3198 12.8099L44.1295 12.9828ZM45.0018 15.6623H44.7447V24.8825H45.0018H45.2589V15.6623H45.0018ZM45.0018 24.8825V25.1396H48.9615V24.8825V24.6253H45.0018V24.8825ZM48.9615 24.8825H49.2186V15.6623H48.9615H48.7043V24.8825H48.9615ZM48.9615 15.6623H49.2186C49.2186 14.5802 49.5023 13.7601 50.0386 13.1707L49.8485 12.9976L49.6583 12.8245C49.0136 13.5329 48.7043 14.4893 48.7043 15.6623H48.9615ZM49.8485 12.9976L50.0386 13.1707C50.5758 12.5804 51.2761 12.2826 52.1615 12.2826V12.0255V11.7684C51.1456 11.7684 50.3021 12.117 49.6583 12.8245L49.8485 12.9976ZM52.1615 12.0255V12.2826C53.0481 12.2826 53.7405 12.5762 54.2671 13.1557L54.4574 12.9828L54.6477 12.8099C54.0129 12.1113 53.1764 11.7684 52.1615 11.7684V12.0255ZM54.4574 12.9828L54.2671 13.1557C54.7924 13.7338 55.0726 14.5578 55.0726 15.6623H55.3297H55.5869C55.5869 14.4722 55.2838 13.5098 54.6477 12.8099L54.4574 12.9828ZM55.3297 15.6623H55.0726V24.8825H55.3297H55.5869V15.6623H55.3297ZM55.3297 24.8825V25.1396H59.2894V24.8825V24.6253H55.3297V24.8825ZM59.2894 24.8825H59.5465V15.6623H59.2894H59.0322V24.8825H59.2894ZM59.2894 15.6623H59.5465C59.5465 13.2957 58.8818 11.3903 57.5267 9.98195L57.3414 10.1602L57.1561 10.3385C58.3983 11.6294 59.0322 13.3953 59.0322 15.6623H59.2894ZM57.3414 10.1602L57.5267 9.98195C56.1754 8.57761 54.4426 7.87746 52.3526 7.87746V8.13461V8.39175C54.3154 8.39175 55.9101 9.04368 57.1561 10.3385L57.3414 10.1602ZM70.4381 8.13461V7.87746C67.9067 7.87746 65.796 8.70188 64.1263 10.3602L64.3075 10.5427L64.4887 10.7251C66.0534 9.17106 68.0298 8.39175 70.4381 8.39175V8.13461ZM64.3075 10.5427L64.1262 10.3604C62.4583 12.0194 61.6271 14.1326 61.6271 16.6837H61.8842H62.1414C62.1414 14.2558 62.9273 12.2783 64.4889 10.725L64.3075 10.5427ZM61.8842 16.6837H61.6271C61.6271 19.2347 62.4583 21.3435 64.1269 22.9905L64.3075 22.8075L64.4882 22.6245C62.9273 21.0838 62.1414 19.1116 62.1414 16.6837H61.8842ZM64.3075 22.8075L64.1269 22.9905C65.7942 24.6362 67.9047 25.4579 70.4381 25.4579V25.2007V24.9436C68.027 24.9436 66.0504 24.1665 64.4882 22.6245L64.3075 22.8075ZM70.4381 25.2007V25.4579C72.9705 25.4579 75.1063 24.6394 76.7648 22.9898L76.5834 22.8075L76.4021 22.6252C74.8507 24.1682 72.8504 24.9436 70.4381 24.9436V25.2007ZM76.5834 22.8075L76.7646 22.9899C78.4232 21.3428 79.2492 19.2317 79.2492 16.6837H78.9921H78.7349C78.7349 19.1097 77.9535 21.0845 76.4022 22.625L76.5834 22.8075ZM78.9921 16.6837H79.2492C79.2492 14.1367 78.4239 11.9932 76.7646 10.3454L76.5834 10.5279L76.4022 10.7103C77.9528 12.2502 78.7349 14.2567 78.7349 16.6837H78.9921ZM76.5834 10.5279L76.7646 10.3454C75.1065 8.69876 72.9906 7.87746 70.4381 7.87746V8.13461V8.39175C72.8696 8.39175 74.8505 9.16926 76.4022 10.7103L76.5834 10.5279ZM73.7019 20.017L73.5161 19.8392C72.7239 20.667 71.7054 21.0848 70.4381 21.0848V21.3419V21.5991C71.8319 21.5991 72.9893 21.1335 73.8877 20.1948L73.7019 20.017ZM70.4381 21.3419V21.0848C69.1709 21.0848 68.1524 20.667 67.3601 19.8392L67.1744 20.017L66.9886 20.1948C67.887 21.1335 69.0444 21.5991 70.4381 21.5991V21.3419ZM67.1744 20.017L67.3601 19.8392C66.5652 19.0086 66.1647 17.9642 66.1647 16.6837H65.9076H65.6504C65.6504 18.0826 66.0928 19.2588 66.9886 20.1948L67.1744 20.017ZM65.9076 16.6837H66.1647C66.1647 15.4013 66.5664 14.3311 67.3591 13.512L67.1744 13.3332L66.9896 13.1543C66.0917 14.0821 65.6504 15.2867 65.6504 16.6837H65.9076ZM67.1744 13.3332L67.3589 13.5122C68.151 12.6961 69.17 12.2826 70.4381 12.2826V12.0255V11.7684C69.0453 11.7684 67.8884 12.2283 66.9898 13.1541L67.1744 13.3332ZM70.4381 12.0255V12.2826C71.7063 12.2826 72.7253 12.6961 73.5174 13.5122L73.7019 13.3332L73.8864 13.1541C72.9879 12.2283 71.831 11.7684 70.4381 11.7684V12.0255ZM73.7019 13.3332L73.5171 13.512C74.3103 14.3315 74.7116 15.3797 74.7116 16.6837H74.9687H75.2258C75.2258 15.2638 74.7842 14.0817 73.8867 13.1543L73.7019 13.3332ZM74.9687 16.6837H74.7116C74.7116 17.9857 74.3091 19.0106 73.5161 19.8392L73.7019 20.017L73.8877 20.1948C74.7806 19.2617 75.2258 18.1056 75.2258 16.6837H74.9687ZM83.9 10.5599L83.7228 10.3735C82.1753 11.8439 81.4253 14.0933 81.4253 17.0686H81.6825H81.9396C81.9396 14.1718 82.6696 12.0837 84.0771 10.7464L83.9 10.5599ZM81.6825 17.0686H81.4253V24.8849H81.6825H81.9396V17.0686H81.6825ZM81.6825 24.8849V25.1421H85.6421V24.8849V24.6278H81.6825V24.8849ZM85.6421 24.8849H85.8993V17.0686H85.6421H85.385V24.8849H85.6421ZM85.6421 17.0686H85.8993C85.8993 15.7183 86.2934 14.6537 87.0629 13.8489L86.877 13.6712L86.6912 13.4935C85.8141 14.4108 85.385 15.6112 85.385 17.0686H85.6421ZM86.877 13.6712L87.0629 13.8489C87.8318 13.0446 88.8397 12.6355 90.109 12.6355V12.3783V12.1212C88.7172 12.1212 87.5688 12.5755 86.6912 13.4935L86.877 13.6712ZM90.109 12.3783V12.6355H92.0741V12.3783V12.1212H90.109V12.3783ZM92.0741 12.3783H92.3312V8.45535H92.0741H91.817V12.3783H92.0741ZM92.0741 8.45535V8.19821H90.109V8.45535V8.71249H92.0741V8.45535ZM90.109 8.45535V8.19821C87.403 8.19821 85.2614 8.91161 83.7228 10.3735L83.9 10.5599L84.0771 10.7464C85.4935 9.40051 87.4929 8.71249 90.109 8.71249V8.45535ZM109.77 0V-0.257143C108.984 -0.257143 108.309 0.02435 107.765 0.585909L107.949 0.764864L108.134 0.943818C108.58 0.483926 109.12 0.257143 109.77 0.257143V0ZM107.949 0.764864L107.765 0.585454C107.222 1.14359 106.947 1.81467 106.947 2.58324H107.205H107.462C107.462 1.9504 107.682 1.40759 108.134 0.944273L107.949 0.764864ZM107.205 2.58324H106.947C106.947 3.35181 107.222 4.0229 107.765 4.58103L107.949 4.40162L108.134 4.22221C107.682 3.75889 107.462 3.21608 107.462 2.58324H107.205ZM107.949 4.40162L107.765 4.58058C108.309 5.14214 108.984 5.42361 109.77 5.42361V5.16647V4.90933C109.12 4.90933 108.58 4.68256 108.134 4.22267L107.949 4.40162ZM109.77 5.16647V5.42361C110.56 5.42361 111.201 5.13952 111.745 4.58103L111.561 4.40162L111.377 4.22221C110.926 4.68517 110.416 4.90933 109.77 4.90933V5.16647ZM111.561 4.40162L111.746 4.58058C112.286 4.02305 112.563 3.35236 112.563 2.58324H112.306H112.049C112.049 3.21553 111.826 3.75874 111.377 4.22267L111.561 4.40162ZM112.306 2.58324H112.563C112.563 1.81467 112.289 1.14359 111.745 0.585454L111.561 0.764864L111.377 0.944273C111.828 1.40759 112.049 1.9504 112.049 2.58324H112.306ZM111.561 0.764864L111.745 0.585454C111.201 0.0261624 110.539 -0.257143 109.77 -0.257143V0V0.257143C110.397 0.257143 110.927 0.482114 111.377 0.944273L111.561 0.764864ZM111.733 8.45288V8.19574H107.773V8.45288V8.71002H111.733V8.45288ZM107.773 8.45288H107.516V24.8825H107.773H108.03V8.45288H107.773ZM107.773 24.8825V25.1396H111.733V24.8825V24.6253H107.773V24.8825ZM111.733 24.8825H111.99V8.45288H111.733H111.476V24.8825H111.733ZM159.185 16.1088H159.442C159.442 14.8605 159.792 13.93 160.458 13.2775L160.278 13.0938L160.098 12.9101C159.308 13.6837 158.928 14.7616 158.928 16.1088H159.185ZM160.278 13.0938L160.458 13.2775C161.13 12.6184 162.008 12.2826 163.113 12.2826V12.0255V11.7684C161.894 11.7684 160.88 12.1431 160.098 12.9101L160.278 13.0938ZM163.113 12.0255V12.2826C164.217 12.2826 165.095 12.6184 165.768 13.2775L165.948 13.0938L166.127 12.9101C165.345 12.1431 164.331 11.7684 163.113 11.7684V12.0255ZM165.948 13.0938L165.768 13.2775C166.433 13.93 166.783 14.8605 166.783 16.1088H167.04H167.297C167.297 14.7616 166.917 13.6837 166.127 12.9101L165.948 13.0938ZM167.04 16.1088H166.783V24.8825H167.04H167.297V16.1088H167.04ZM167.04 24.8825V25.1396H171V24.8825V24.6253H167.04V24.8825ZM171 24.8825H171.257V16.0151H171H170.743V24.8825H171ZM171 16.0151H171.257C171.257 13.5151 170.503 11.5179 168.975 10.0558L168.797 10.2417L168.619 10.4275C170.026 11.7732 170.743 13.6249 170.743 16.0151H171ZM168.797 10.2417L168.975 10.0558C167.452 8.59945 165.489 7.87993 163.11 7.87993V8.13708V8.39422C165.377 8.39422 167.207 9.0761 168.619 10.4275L168.797 10.2417ZM163.11 8.13708V7.87993C160.733 7.87993 158.741 8.59878 157.23 10.0566L157.408 10.2417L157.587 10.4267C158.986 9.07677 160.842 8.39422 163.11 8.39422V8.13708ZM157.408 10.2417L157.23 10.0564C155.711 11.5187 154.965 13.5159 154.965 16.0151H155.223H155.48C155.48 13.6242 156.189 11.7724 157.587 10.4269L157.408 10.2417ZM155.223 16.0151H154.965V24.8825H155.223H155.48V16.0151H155.223ZM155.223 24.8825V25.1396H159.182V24.8825V24.6253H155.223V24.8825ZM159.182 24.8825L159.439 24.8825L159.442 16.1089L159.185 16.1088L158.928 16.1088L158.925 24.8824L159.182 24.8825ZM148.428 19.3484L148.208 19.2149C147.339 20.6468 145.773 21.598 143.993 21.598V21.8551V22.1122C145.961 22.1122 147.689 21.06 148.648 19.4818L148.428 19.3484ZM143.993 21.8551V21.598C143.013 21.598 141.967 21.249 141.061 20.6792C140.155 20.1092 139.41 19.3316 139.016 18.4984L138.784 18.6082L138.551 18.718C138.996 19.6587 139.818 20.5046 140.787 21.1146C141.758 21.7248 142.897 22.1122 143.993 22.1122V21.8551ZM138.784 18.6082L138.594 18.4343L136.279 20.9558L136.468 21.1297L136.658 21.3037L138.973 18.7821L138.784 18.6082ZM136.468 21.1297L136.257 21.2763C137.998 23.7868 140.693 25.6923 143.993 25.6923V25.4351V25.178C140.907 25.178 138.354 23.3973 136.679 20.9832L136.468 21.1297ZM143.993 25.4351V25.6923C147.99 25.6923 151.386 23.0601 152.564 19.4276L152.319 19.3484L152.074 19.2691C150.963 22.698 147.758 25.178 143.993 25.178V25.4351ZM152.319 19.3484V19.0912H148.428V19.3484V19.6055H152.319V19.3484ZM98.8736 2.71155V2.4544H94.914V2.71155V2.96869H98.8736V2.71155ZM94.914 2.71155H94.6568V18.7266H94.914H95.1711V2.71155H94.914ZM94.914 18.7266H94.6568C94.6568 20.8709 95.1938 22.534 96.3146 23.66L96.4968 23.4786L96.6791 23.2972C95.6878 22.3013 95.1711 20.7914 95.1711 18.7266H94.914ZM96.4968 23.4786L96.3144 23.6598C97.4324 24.7856 99.0161 25.3296 101.027 25.3296V25.0724V24.8153C99.1085 24.8153 97.6734 24.2984 96.6793 23.2974L96.4968 23.4786ZM101.027 25.0724V25.3296C102.432 25.3296 103.733 25.2426 104.928 25.0729L104.891 24.8183L104.855 24.5637C103.688 24.7296 102.411 24.8153 101.027 24.8153V25.0724ZM104.891 24.8183H105.149V20.9891H104.891H104.634V24.8183H104.891ZM104.891 20.9891L104.856 20.7344C103.811 20.881 102.788 20.9565 101.787 20.9565V21.2136V21.4708C102.814 21.4708 103.86 21.3933 104.927 21.2437L104.891 20.9891ZM101.787 21.2136V20.9565C100.797 20.9565 100.093 20.7301 99.7221 20.3485L99.5376 20.5277L99.3532 20.7069C99.8694 21.2382 100.748 21.4708 101.787 21.4708V21.2136ZM99.5376 20.5277L99.7221 20.3485C99.3456 19.9611 99.1283 19.3131 99.1283 18.3417H98.8712H98.614C98.614 19.3737 98.8426 20.1814 99.3532 20.7069L99.5376 20.5277ZM98.8712 18.3417L99.1283 18.3418L99.1292 12.3956L98.8721 12.3956L98.6149 12.3956L98.614 18.3417L98.8712 18.3417ZM98.8721 12.3956V12.6527H104.865V12.3956V12.1384H98.8721V12.3956ZM104.865 12.3956H105.122V8.46768H104.865H104.607V12.3956H104.865ZM104.865 8.46768V8.21054H98.8727V8.46768V8.72482H104.865V8.46768ZM98.8727 8.46768L99.1298 8.46772L99.1308 2.71159L98.8736 2.71155L98.6165 2.71151L98.6156 8.46764L98.8727 8.46768ZM126.307 24.8035L126.378 25.0506C126.693 24.9599 126.995 24.8595 127.292 24.7549L127.206 24.5124L127.121 24.2698C126.829 24.3725 126.538 24.4694 126.236 24.5564L126.307 24.8035ZM127.206 24.5124H126.949V25.6276H127.206H127.463V24.5124H127.206ZM127.206 25.6276H126.949C126.949 26.7659 126.603 27.6232 125.938 28.2306L126.111 28.4205L126.284 28.6105C127.079 27.8855 127.463 26.8775 127.463 25.6276H127.206ZM126.111 28.4205L125.938 28.2306C125.265 28.8444 124.364 29.1626 123.205 29.1626V29.4198V29.6769C124.462 29.6769 125.497 29.3289 126.284 28.6105L126.111 28.4205ZM123.205 29.4198V29.1626C122.386 29.1626 121.7 28.9816 121.136 28.6292L121 28.8474L120.863 29.0655C121.524 29.478 122.309 29.6769 123.205 29.6769V29.4198ZM121 28.8474L121.136 28.6292C120.568 28.2748 120.172 27.8019 119.941 27.2093L119.701 27.3028L119.461 27.3964C119.735 28.0966 120.206 28.655 120.863 29.0655L121 28.8474ZM119.701 27.3028V27.0457H115.758V27.3028V27.56H119.701V27.3028ZM115.758 27.3028L115.51 27.3676C115.971 29.143 116.879 30.5468 118.233 31.5669L118.388 31.3615L118.542 31.1561C117.289 30.2122 116.443 28.9119 116.007 27.2381L115.758 27.3028ZM118.388 31.3615L118.233 31.5672C119.591 32.5854 121.252 33.0891 123.207 33.0891V32.832V32.5749C121.345 32.5749 119.796 32.0966 118.542 31.1558L118.388 31.3615ZM123.207 32.832V33.0891C125.537 33.0891 127.448 32.4293 128.915 31.0953L128.743 30.9051L128.57 30.7148C127.214 31.9468 125.435 32.5749 123.207 32.5749V32.832ZM128.743 30.9051L128.916 31.0952C130.39 29.7526 131.117 27.9193 131.117 25.6251H130.86H130.602C130.602 27.8016 129.918 29.4866 128.569 30.715L128.743 30.9051ZM130.86 25.6251H131.117V22.6002H130.86H130.602V25.6251H130.86ZM130.86 22.6002L131.007 22.8107C133.517 21.0491 135.399 18.7382 137.076 16.6821L136.876 16.5196L136.677 16.3571C134.995 18.4204 133.155 20.6752 130.712 22.3898L130.86 22.6002ZM136.876 16.5196L137.076 16.6821C138.059 15.4755 138.968 14.3621 139.897 13.4774L139.72 13.2912L139.542 13.105C138.585 14.0163 137.655 15.1572 136.677 16.3571L136.876 16.5196ZM139.72 13.2912L139.897 13.4776C140.068 13.3147 140.241 13.1581 140.412 13.0145L140.246 12.8175L140.081 12.6205C139.9 12.7729 139.719 12.937 139.543 13.1048L139.72 13.2912ZM140.246 12.8175L140.427 13.0005C141.003 12.4322 141.695 12.0196 142.447 11.7876L142.371 11.5419L142.295 11.2962C141.464 11.5527 140.7 12.0086 140.066 12.6344L140.246 12.8175ZM142.371 11.5419L142.456 11.7847C142.931 11.6191 143.428 11.533 143.955 11.54L143.959 11.2828L143.962 11.0257C143.372 11.0179 142.816 11.1144 142.286 11.2991L142.371 11.5419ZM143.959 11.2828L143.954 11.5399C144.193 11.5446 144.476 11.568 144.791 11.6333L144.843 11.3815L144.895 11.1297C144.544 11.0569 144.229 11.0309 143.964 11.0258L143.959 11.2828ZM144.843 11.3815L144.799 11.6349C145.768 11.8038 146.645 12.2519 147.34 12.893L147.514 12.704L147.688 12.515C146.923 11.809 145.957 11.3146 144.887 11.1282L144.843 11.3815ZM147.514 12.704L147.34 12.8931C147.892 13.4026 148.333 14.0389 148.613 14.7497L148.852 14.6556L149.091 14.5615C148.783 13.7772 148.297 13.0762 147.688 12.5149L147.514 12.704ZM148.852 14.6556V14.3985H139.592V14.6556V14.9128H148.852V14.6556ZM139.592 14.6556H139.335V17.8162H139.592H139.849V14.6556H139.592ZM139.592 17.8162L139.592 18.0733L152.488 18.1005L152.488 17.8433L152.489 17.5862L139.593 17.559L139.592 17.8162ZM152.488 17.8433L152.743 17.8799C152.803 17.4587 152.836 17.0246 152.836 16.585H152.579H152.322C152.322 16.9991 152.291 17.4088 152.234 17.8068L152.488 17.8433ZM152.579 16.585H152.836C152.836 13.02 150.736 9.94111 147.709 8.5187L147.6 8.75142L147.49 8.98415C150.344 10.3251 152.322 13.2269 152.322 16.585H152.579ZM147.6 8.75142L147.709 8.51872C146.567 7.98173 145.288 7.64949 143.936 7.68015L143.941 7.93723L143.947 8.1943C145.207 8.16575 146.408 8.47499 147.49 8.98413L147.6 8.75142ZM143.941 7.93723L143.936 7.68014C142.491 7.71148 141.424 7.9529 140.57 8.28736C139.719 8.62109 139.091 9.04413 138.534 9.41852L138.678 9.63192L138.821 9.84531C139.378 9.47073 139.965 9.07717 140.758 8.76617C141.55 8.45589 142.557 8.22446 143.947 8.19431L143.941 7.93723ZM138.678 9.63192L138.534 9.41841L138.39 9.51497L138.534 9.72847L138.677 9.94197L138.821 9.84542L138.678 9.63192ZM138.534 9.72847L138.393 9.51323C138.159 9.66638 137.683 10.1036 137.223 10.5457C136.754 10.9966 136.274 11.4798 136.02 11.7471L136.206 11.9243L136.392 12.1016C136.64 11.8409 137.115 11.3631 137.579 10.9165C138.053 10.4612 138.49 10.0644 138.674 9.94371L138.534 9.72847ZM136.206 11.9243L136.017 11.7501C135.224 12.6102 134.466 13.5414 133.708 14.4709L133.907 14.6334L134.107 14.7958C134.866 13.864 135.615 12.9452 136.395 12.0986L136.206 11.9243ZM133.907 14.6334L133.708 14.4709C131.056 17.7252 128.423 20.9367 124.243 21.5091L124.278 21.7638L124.313 22.0186C128.727 21.4142 131.482 18.0162 134.107 14.7958L133.907 14.6334ZM124.278 21.7638L124.238 21.5098L124.214 21.5136L124.254 21.7676L124.293 22.0217L124.318 22.0179L124.278 21.7638ZM124.254 21.7676L124.213 21.5137C124.064 21.5373 123.381 21.6448 123.043 21.6448V21.902V22.1591C123.431 22.1591 124.162 22.0426 124.294 22.0216L124.254 21.7676ZM123.043 21.902V21.6448C122.756 21.6448 122.476 21.6213 122.202 21.5745L122.159 21.828L122.115 22.0814C122.419 22.1333 122.728 22.1591 123.043 22.1591V21.902ZM122.159 21.828L122.201 21.5743C122.018 21.544 121.837 21.5019 121.66 21.4503L121.588 21.6972L121.516 21.9441C121.711 22.001 121.912 22.0478 122.117 22.0817L122.159 21.828ZM121.588 21.6972L121.659 21.4501C119.561 20.8446 118.022 18.9004 118.022 16.6048H117.765H117.508C117.508 19.1351 119.204 21.2767 121.516 21.9443L121.588 21.6972ZM117.765 16.6048H118.022C118.022 13.8245 120.275 11.5622 123.043 11.5622V11.305V11.0479C119.989 11.0479 117.508 13.5425 117.508 16.6048H117.765ZM123.043 11.305L123.048 11.5621C125.302 11.5173 126.716 12.6096 127.575 13.7217C128.007 14.28 128.298 14.8425 128.481 15.2659C128.572 15.4772 128.636 15.6529 128.677 15.7748C128.697 15.8357 128.712 15.8831 128.721 15.9147C128.726 15.9305 128.729 15.9423 128.731 15.9499C128.732 15.9536 128.733 15.9564 128.733 15.958C128.734 15.9588 128.734 15.9593 128.734 15.9596C128.734 15.9597 128.734 15.9598 128.734 15.9598C128.734 15.9598 128.734 15.9597 128.734 15.9597C128.734 15.9596 128.734 15.9595 128.983 15.8942C129.231 15.8289 129.231 15.8287 129.231 15.8286C129.231 15.8285 129.231 15.8283 129.231 15.8282C129.231 15.8279 129.231 15.8275 129.231 15.8271C129.231 15.8262 129.23 15.825 129.23 15.8236C129.229 15.8207 129.228 15.8167 129.227 15.8117C129.224 15.8015 129.22 15.787 129.214 15.7685C129.203 15.7316 129.187 15.6784 129.164 15.6115C129.119 15.4776 129.051 15.2882 128.953 15.062C128.758 14.6103 128.447 14.0079 127.982 13.4072C127.05 12.2013 125.494 10.9991 123.038 11.048L123.043 11.305ZM128.983 15.8942L129.165 16.0754L131.37 13.8548L131.188 13.6736L131.005 13.4924L128.8 15.713L128.983 15.8942ZM131.188 13.6736L131.441 13.6316C131.308 12.824 130.599 11.3569 129.244 10.0856C127.878 8.80505 125.845 7.71055 123.051 7.67763L123.048 7.93476L123.045 8.19188C125.696 8.22312 127.609 9.25787 128.892 10.4607C130.184 11.6727 130.823 13.0429 130.934 13.7156L131.188 13.6736ZM123.048 7.93476V7.67761C118.142 7.67761 114.154 11.6795 114.154 16.5998H114.411H114.668C114.668 11.962 118.427 8.1919 123.048 8.1919V7.93476ZM114.411 16.5998H114.154C114.154 21.5202 118.142 25.522 123.048 25.522V25.2649V25.0077C118.427 25.0077 114.668 21.2377 114.668 16.5998H114.411ZM123.048 25.2649V25.522C123.283 25.522 123.515 25.5118 123.746 25.4941L123.727 25.2377L123.707 24.9814C123.487 24.9982 123.268 25.0077 123.048 25.0077V25.2649ZM123.727 25.2377C123.75 25.4938 123.75 25.4938 123.75 25.4938C123.75 25.4938 123.75 25.4938 123.75 25.4938C123.75 25.4938 123.751 25.4938 123.751 25.4938C123.751 25.4937 123.751 25.4937 123.752 25.4937C123.753 25.4936 123.754 25.4935 123.755 25.4933C123.759 25.493 123.763 25.4926 123.769 25.492C123.781 25.4908 123.799 25.4891 123.822 25.4868C123.868 25.4822 123.935 25.4752 124.018 25.4661C124.183 25.4477 124.414 25.4202 124.677 25.3836C125.2 25.3107 125.86 25.2002 126.378 25.0506L126.307 24.8035L126.236 24.5565C125.754 24.6955 125.124 24.8021 124.606 24.8742C124.349 24.91 124.123 24.937 123.961 24.9549C123.88 24.9639 123.815 24.9706 123.771 24.9751C123.749 24.9773 123.732 24.979 123.72 24.9801C123.714 24.9806 123.71 24.981 123.707 24.9813C123.706 24.9814 123.705 24.9815 123.704 24.9816C123.704 24.9816 123.703 24.9817 123.703 24.9817C123.703 24.9817 123.703 24.9817 123.703 24.9817C123.703 24.9817 123.703 24.9817 123.703 24.9817C123.703 24.9817 123.703 24.9817 123.727 25.2377Z" fill="white" mask="url(#path-1-inside-1_1030_5200)"/>
</svg>
