<svg width="202" height="74" viewBox="0 0 202 74" fill="none" xmlns="http://www.w3.org/2000/svg">
<path d="M42.4412 10.6583V29H38.7624V10.6583H42.4412ZM64.1548 14.2321C65.9417 14.2321 67.3782 14.7839 68.4643 15.8875C69.568 16.9737 70.1198 18.4978 70.1198 20.4598V29H66.441V20.9591C66.441 19.8204 66.1519 18.9532 65.5738 18.3576C64.9957 17.7445 64.2074 17.4379 63.2088 17.4379C62.2103 17.4379 61.4132 17.7445 60.8176 18.3576C60.2395 18.9532 59.9504 19.8204 59.9504 20.9591V29H56.2716V20.9591C56.2716 19.8204 55.9825 18.9532 55.4044 18.3576C54.8263 17.7445 54.038 17.4379 53.0395 17.4379C52.0234 17.4379 51.2176 17.7445 50.6219 18.3576C50.0438 18.9532 49.7548 19.8204 49.7548 20.9591V29H46.0759V14.4423H49.7548V16.2029C50.2278 15.5897 50.8321 15.108 51.5679 14.7576C52.3212 14.4072 53.1446 14.2321 54.038 14.2321C55.1767 14.2321 56.1928 14.4773 57.0862 14.9678C57.9796 15.4408 58.6716 16.124 59.1621 17.0175C59.6351 16.1766 60.3183 15.5021 61.2118 14.9941C62.1227 14.4861 63.1037 14.2321 64.1548 14.2321ZM91.6897 14.2321C93.4766 14.2321 94.9131 14.7839 95.9992 15.8875C97.1029 16.9737 97.6547 18.4978 97.6547 20.4598V29H93.9759V20.9591C93.9759 19.8204 93.6868 18.9532 93.1087 18.3576C92.5306 17.7445 91.7423 17.4379 90.7437 17.4379C89.7452 17.4379 88.9481 17.7445 88.3525 18.3576C87.7744 18.9532 87.4853 19.8204 87.4853 20.9591V29H83.8065V20.9591C83.8065 19.8204 83.5174 18.9532 82.9393 18.3576C82.3612 17.7445 81.5729 17.4379 80.5744 17.4379C79.5583 17.4379 78.7525 17.7445 78.1568 18.3576C77.5787 18.9532 77.2897 19.8204 77.2897 20.9591V29H73.6108V14.4423H77.2897V16.2029C77.7627 15.5897 78.367 15.108 79.1028 14.7576C79.8561 14.4072 80.6795 14.2321 81.5729 14.2321C82.7116 14.2321 83.7277 14.4773 84.6211 14.9678C85.5145 15.4408 86.2065 16.124 86.697 17.0175C87.17 16.1766 87.8532 15.5021 88.7467 14.9941C89.6576 14.4861 90.6386 14.2321 91.6897 14.2321ZM107.61 29.2365C106.209 29.2365 104.947 28.9299 103.826 28.3168C102.705 27.6861 101.82 26.8015 101.172 25.6628C100.541 24.5241 100.226 23.2102 100.226 21.7211C100.226 20.2321 100.55 18.9182 101.198 17.7795C101.864 16.6408 102.766 15.7649 103.905 15.1518C105.044 14.5211 106.314 14.2058 107.715 14.2058C109.117 14.2058 110.387 14.5211 111.525 15.1518C112.664 15.7649 113.557 16.6408 114.206 17.7795C114.871 18.9182 115.204 20.2321 115.204 21.7211C115.204 23.2102 114.863 24.5241 114.179 25.6628C113.514 26.8015 112.603 27.6861 111.446 28.3168C110.308 28.9299 109.029 29.2365 107.61 29.2365ZM107.61 26.0306C108.276 26.0306 108.898 25.873 109.476 25.5576C110.071 25.2248 110.544 24.7343 110.895 24.0861C111.245 23.4379 111.42 22.6496 111.42 21.7211C111.42 20.3372 111.052 19.2773 110.317 18.5416C109.598 17.7883 108.714 17.4116 107.663 17.4116C106.611 17.4116 105.727 17.7883 105.009 18.5416C104.308 19.2773 103.957 20.3372 103.957 21.7211C103.957 23.1051 104.299 24.1737 104.982 24.927C105.683 25.6628 106.559 26.0306 107.61 26.0306ZM121.582 16.7021C122.055 15.9313 122.668 15.3269 123.421 14.889C124.192 14.451 125.068 14.2321 126.049 14.2321V18.0948H125.077C123.92 18.0948 123.044 18.3664 122.449 18.9094C121.871 19.4525 121.582 20.3985 121.582 21.7474V29H117.903V14.4423H121.582V16.7021ZM132.81 17.4642V24.5066C132.81 24.9971 132.924 25.3562 133.151 25.5839C133.397 25.7941 133.8 25.8993 134.36 25.8993H136.068V29H133.756C130.655 29 129.105 27.4934 129.105 24.4803V17.4642H127.37V14.4423H129.105V10.8423H132.81V14.4423H136.068V17.4642H132.81ZM140.58 12.708C139.932 12.708 139.389 12.5065 138.951 12.1036C138.53 11.6831 138.32 11.1663 138.32 10.5532C138.32 9.94006 138.53 9.43203 138.951 9.02911C139.389 8.60867 139.932 8.39845 140.58 8.39845C141.228 8.39845 141.763 8.60867 142.183 9.02911C142.621 9.43203 142.84 9.94006 142.84 10.5532C142.84 11.1663 142.621 11.6831 142.183 12.1036C141.763 12.5065 141.228 12.708 140.58 12.708ZM142.393 14.4423V29H138.714V14.4423H142.393ZM151.73 14.2058C152.816 14.2058 153.771 14.4248 154.594 14.8627C155.418 15.2832 156.066 15.835 156.539 16.5182V14.4423H160.244V29.1051C160.244 30.454 159.972 31.654 159.429 32.7051C158.886 33.7737 158.072 34.6146 156.986 35.2278C155.899 35.8584 154.586 36.1738 153.044 36.1738C150.977 36.1738 149.278 35.692 147.946 34.7285C146.632 33.765 145.888 32.4511 145.713 30.7869H149.365C149.558 31.4526 149.969 31.9781 150.6 32.3635C151.248 32.7664 152.028 32.9679 152.939 32.9679C154.007 32.9679 154.875 32.6438 155.54 31.9956C156.206 31.365 156.539 30.4015 156.539 29.1051V26.8452C156.066 27.5285 155.409 28.0978 154.568 28.5533C153.745 29.0088 152.799 29.2365 151.73 29.2365C150.504 29.2365 149.383 28.9212 148.367 28.2905C147.351 27.6598 146.545 26.7752 145.949 25.6365C145.371 24.4803 145.082 23.1576 145.082 21.6686C145.082 20.197 145.371 18.8919 145.949 17.7532C146.545 16.6145 147.342 15.7386 148.34 15.1255C149.356 14.5123 150.486 14.2058 151.73 14.2058ZM156.539 21.7211C156.539 20.8277 156.364 20.0657 156.013 19.435C155.663 18.7868 155.19 18.2963 154.594 17.9635C153.999 17.6131 153.359 17.4379 152.676 17.4379C151.993 17.4379 151.362 17.6043 150.784 17.9372C150.206 18.27 149.733 18.7605 149.365 19.4087C149.015 20.0394 148.84 20.7927 148.84 21.6686C148.84 22.5445 149.015 23.3153 149.365 23.981C149.733 24.6292 150.206 25.1285 150.784 25.4788C151.38 25.8292 152.01 26.0044 152.676 26.0044C153.359 26.0044 153.999 25.8379 154.594 25.5051C155.19 25.1547 155.663 24.6642 156.013 24.0336C156.364 23.3854 156.539 22.6146 156.539 21.7211ZM177.37 21.4058C177.37 21.9314 177.335 22.4044 177.265 22.8248H166.622C166.71 23.8759 167.078 24.6993 167.726 25.2949C168.374 25.8905 169.171 26.1883 170.117 26.1883C171.484 26.1883 172.456 25.6014 173.034 24.4277H177.002C176.582 25.8292 175.776 26.9854 174.585 27.8963C173.393 28.7898 171.93 29.2365 170.196 29.2365C168.795 29.2365 167.533 28.9299 166.412 28.3168C165.309 27.6861 164.441 26.8015 163.811 25.6628C163.198 24.5241 162.891 23.2102 162.891 21.7211C162.891 20.2146 163.198 18.8919 163.811 17.7532C164.424 16.6145 165.282 15.7386 166.386 15.1255C167.49 14.5123 168.76 14.2058 170.196 14.2058C171.58 14.2058 172.815 14.5036 173.901 15.0992C175.005 15.6948 175.855 16.5445 176.45 17.6481C177.063 18.7343 177.37 19.9868 177.37 21.4058ZM173.56 20.3547C173.542 19.4087 173.201 18.6554 172.535 18.0948C171.869 17.5167 171.055 17.2277 170.091 17.2277C169.18 17.2277 168.409 17.508 167.779 18.0686C167.166 18.6116 166.789 19.3737 166.649 20.3547H173.56ZM188.122 14.2321C189.857 14.2321 191.258 14.7839 192.327 15.8875C193.395 16.9737 193.93 18.4978 193.93 20.4598V29H190.251V20.9591C190.251 19.8029 189.962 18.9182 189.384 18.3051C188.806 17.6744 188.017 17.3591 187.019 17.3591C186.003 17.3591 185.197 17.6744 184.601 18.3051C184.023 18.9182 183.734 19.8029 183.734 20.9591V29H180.055V14.4423H183.734V16.2554C184.225 15.6248 184.846 15.1342 185.6 14.7839C186.371 14.416 187.211 14.2321 188.122 14.2321Z" fill="#FAFAFA"/>
<path d="M1.37361 19.1205C2.1322 17.4726 4.08302 16.7517 5.73087 17.5103C8.10852 18.6049 9.26481 22.03 11.6425 23.1246L15.3734 24.8421L19.701 26.8343C22.0787 27.9289 25.4326 26.5801 27.8103 27.6747C29.4581 28.4333 30.179 30.3841 29.4204 32.0319C28.6618 33.6798 26.711 34.4007 25.0632 33.6421C22.6855 32.5475 21.5292 29.1224 19.1516 28.0278L14.8239 26.0356L11.093 24.318C8.71539 23.2235 5.36141 24.5723 2.98376 23.4777C1.3359 22.7191 0.615014 20.7683 1.37361 19.1205Z" fill="#FAFAFA"/>
<path d="M3.42758 8.57749C4.19078 6.93176 6.14361 6.21634 7.78933 6.97954C7.92699 7.04338 8.05813 7.11554 8.18245 7.19515C10.1669 8.46591 11.1404 11.4302 13.2782 12.4216L17.4102 14.3378C17.4108 14.3381 17.4115 14.3378 17.4118 14.3373C17.4122 14.3367 17.4129 14.3365 17.4135 14.3367C19.788 15.437 23.1451 14.0982 25.5193 15.1992C27.165 15.9624 27.8805 17.9153 27.1173 19.561C26.3541 21.2067 24.4012 21.9221 22.7555 21.1589C20.3813 20.0579 19.2346 16.6304 16.8607 15.5287C16.8601 15.5284 16.8594 15.5286 16.8591 15.5292C16.8588 15.5298 16.858 15.53 16.8574 15.5297L12.7223 13.6121C10.5864 12.6215 7.69813 13.792 5.44732 13.101C5.30514 13.0574 5.16424 13.0036 5.02552 12.9392C3.3798 12.176 2.66437 10.2232 3.42758 8.57749Z" fill="#FAFAFA"/>
<circle cx="18.0656" cy="5.95622" r="2.95622" fill="#FAFAFA"/>
<circle cx="12.1554" cy="32.2336" r="2.95622" fill="#FAFAFA"/>
<path d="M1.40909 62V50.3636H2.81818V60.75H8.22727V62H1.40909ZM10.5473 62V53.2727H11.8882V62H10.5473ZM11.2291 51.8182C10.9677 51.8182 10.7423 51.7292 10.553 51.5511C10.3673 51.3731 10.2745 51.1591 10.2745 50.9091C10.2745 50.6591 10.3673 50.4451 10.553 50.267C10.7423 50.089 10.9677 50 11.2291 50C11.4905 50 11.7139 50.089 11.8995 50.267C12.0889 50.4451 12.1836 50.6591 12.1836 50.9091C12.1836 51.1591 12.0889 51.3731 11.8995 51.5511C11.7139 51.7292 11.4905 51.8182 11.2291 51.8182ZM21.8005 53.2727L18.5732 62H17.2096L13.9823 53.2727H15.4369L17.846 60.2273H17.9369L20.346 53.2727H21.8005ZM27.237 62.1818C26.3961 62.1818 25.6707 61.9962 25.0609 61.625C24.4548 61.25 23.987 60.7273 23.6574 60.0568C23.3317 59.3826 23.1688 58.5985 23.1688 57.7045C23.1688 56.8106 23.3317 56.0227 23.6574 55.3409C23.987 54.6553 24.4453 54.1212 25.0324 53.7386C25.6234 53.3523 26.3127 53.1591 27.1006 53.1591C27.5552 53.1591 28.004 53.2348 28.4472 53.3864C28.8904 53.5379 29.2938 53.7841 29.6574 54.125C30.0211 54.4621 30.3109 54.9091 30.5268 55.4659C30.7427 56.0227 30.8506 56.7083 30.8506 57.5227V58.0909H24.1234V56.9318H29.487C29.487 56.4394 29.3885 56 29.1915 55.6136C28.9984 55.2273 28.7218 54.9223 28.362 54.6989C28.0059 54.4754 27.5855 54.3636 27.1006 54.3636C26.5665 54.3636 26.1044 54.4962 25.7143 54.7614C25.3279 55.0227 25.0305 55.3636 24.8222 55.7841C24.6139 56.2045 24.5097 56.6553 24.5097 57.1364V57.9091C24.5097 58.5682 24.6234 59.1269 24.8506 59.5852C25.0817 60.0398 25.4018 60.3864 25.8109 60.625C26.2199 60.8598 26.6953 60.9773 27.237 60.9773C27.5893 60.9773 27.9074 60.928 28.1915 60.8295C28.4794 60.7273 28.7275 60.5758 28.9359 60.375C29.1442 60.1705 29.3052 59.9167 29.4188 59.6136L30.7143 59.9773C30.5779 60.4167 30.3487 60.803 30.0268 61.1364C29.7048 61.4659 29.3071 61.7235 28.8336 61.9091C28.3601 62.0909 27.8279 62.1818 27.237 62.1818ZM37.2122 50.3636H38.8259L42.0531 55.7955H42.1895L45.4168 50.3636H47.0304L42.8259 57.2045V62H41.4168V57.2045L37.2122 50.3636ZM51.3021 62.1818C50.5142 62.1818 49.8229 61.9943 49.2282 61.6193C48.6373 61.2443 48.1752 60.7197 47.8419 60.0455C47.5123 59.3712 47.3476 58.5833 47.3476 57.6818C47.3476 56.7727 47.5123 55.9792 47.8419 55.3011C48.1752 54.6231 48.6373 54.0966 49.2282 53.7216C49.8229 53.3466 50.5142 53.1591 51.3021 53.1591C52.09 53.1591 52.7794 53.3466 53.3703 53.7216C53.965 54.0966 54.4271 54.6231 54.7566 55.3011C55.09 55.9792 55.2566 56.7727 55.2566 57.6818C55.2566 58.5833 55.09 59.3712 54.7566 60.0455C54.4271 60.7197 53.965 61.2443 53.3703 61.6193C52.7794 61.9943 52.09 62.1818 51.3021 62.1818ZM51.3021 60.9773C51.9006 60.9773 52.393 60.8239 52.7794 60.517C53.1657 60.2102 53.4517 59.8068 53.6373 59.3068C53.8229 58.8068 53.9157 58.2652 53.9157 57.6818C53.9157 57.0985 53.8229 56.5549 53.6373 56.0511C53.4517 55.5473 53.1657 55.1402 52.7794 54.8295C52.393 54.5189 51.9006 54.3636 51.3021 54.3636C50.7036 54.3636 50.2112 54.5189 49.8248 54.8295C49.4385 55.1402 49.1525 55.5473 48.9669 56.0511C48.7813 56.5549 48.6885 57.0985 48.6885 57.6818C48.6885 58.2652 48.7813 58.8068 48.9669 59.3068C49.1525 59.8068 49.4385 60.2102 49.8248 60.517C50.2112 60.8239 50.7036 60.9773 51.3021 60.9773ZM63.1235 58.4318V53.2727H64.4644V62H63.1235V60.5227H63.0326C62.8281 60.9659 62.5099 61.3428 62.0781 61.6534C61.6463 61.9602 61.1008 62.1136 60.4417 62.1136C59.8963 62.1136 59.4114 61.9943 58.9872 61.7557C58.5629 61.5133 58.2296 61.1496 57.9872 60.6648C57.7447 60.1761 57.6235 59.5606 57.6235 58.8182V53.2727H58.9644V58.7273C58.9644 59.3636 59.1425 59.8712 59.4985 60.25C59.8584 60.6288 60.3167 60.8182 60.8735 60.8182C61.2069 60.8182 61.5459 60.733 61.8906 60.5625C62.2391 60.392 62.5307 60.1307 62.7656 59.7784C63.0042 59.4261 63.1235 58.9773 63.1235 58.4318ZM68.5813 56.75V62H67.2404V53.2727H68.5358V54.6364H68.6495C68.854 54.1932 69.1646 53.8371 69.5813 53.5682C69.998 53.2955 70.5359 53.1591 71.1949 53.1591C71.7859 53.1591 72.3029 53.2803 72.7461 53.5227C73.1893 53.7614 73.534 54.125 73.7802 54.6136C74.0264 55.0985 74.1495 55.7121 74.1495 56.4545V62H72.8086V56.5455C72.8086 55.8598 72.6305 55.3258 72.2745 54.9432C71.9184 54.5568 71.4298 54.3636 70.8086 54.3636C70.3805 54.3636 69.998 54.4564 69.6609 54.642C69.3275 54.8277 69.0643 55.0985 68.8711 55.4545C68.6779 55.8106 68.5813 56.2424 68.5813 56.75ZM80.4425 65.4545C79.7948 65.4545 79.238 65.3712 78.772 65.2045C78.3061 65.0417 77.9179 64.8258 77.6073 64.5568C77.3005 64.2917 77.0561 64.0076 76.8743 63.7045L77.9425 62.9545C78.0637 63.1136 78.2171 63.2955 78.4027 63.5C78.5883 63.7083 78.8421 63.8883 79.1641 64.0398C79.4898 64.1951 79.916 64.2727 80.4425 64.2727C81.147 64.2727 81.7285 64.1023 82.1868 63.7614C82.6451 63.4205 82.8743 62.8864 82.8743 62.1591V60.3864H82.7607C82.6622 60.5455 82.522 60.7424 82.3402 60.9773C82.1622 61.2083 81.9046 61.4148 81.5675 61.5966C81.2342 61.7746 80.7834 61.8636 80.2152 61.8636C79.5107 61.8636 78.8781 61.697 78.3175 61.3636C77.7607 61.0303 77.3194 60.5455 76.9936 59.9091C76.6717 59.2727 76.5107 58.5 76.5107 57.5909C76.5107 56.697 76.6679 55.9186 76.9823 55.2557C77.2967 54.589 77.7342 54.0739 78.2948 53.7102C78.8554 53.3428 79.5031 53.1591 80.238 53.1591C80.8061 53.1591 81.2569 53.2538 81.5902 53.4432C81.9273 53.6288 82.1849 53.8409 82.363 54.0795C82.5448 54.3144 82.6849 54.5076 82.7834 54.6591H82.9198V53.2727H84.2152V62.25C84.2152 63 84.0448 63.6098 83.7039 64.0795C83.3667 64.553 82.9122 64.8996 82.3402 65.1193C81.772 65.3428 81.1395 65.4545 80.4425 65.4545ZM80.397 60.6591C80.9349 60.6591 81.3895 60.536 81.7607 60.2898C82.1319 60.0436 82.4141 59.6894 82.6073 59.2273C82.8005 58.7652 82.897 58.2121 82.897 57.5682C82.897 56.9394 82.8023 56.3845 82.613 55.9034C82.4236 55.4223 82.1433 55.0455 81.772 54.7727C81.4008 54.5 80.9425 54.3636 80.397 54.3636C79.8289 54.3636 79.3554 54.5076 78.9766 54.7955C78.6016 55.0833 78.3194 55.4697 78.13 55.9545C77.9444 56.4394 77.8516 56.9773 77.8516 57.5682C77.8516 58.1742 77.9463 58.7102 78.1357 59.1761C78.3289 59.6383 78.613 60.0019 78.988 60.267C79.3667 60.5284 79.8364 60.6591 80.397 60.6591ZM90.6489 62.1818C89.808 62.1818 89.0826 61.9962 88.4727 61.625C87.8667 61.25 87.3989 60.7273 87.0693 60.0568C86.7436 59.3826 86.5807 58.5985 86.5807 57.7045C86.5807 56.8106 86.7436 56.0227 87.0693 55.3409C87.3989 54.6553 87.8572 54.1212 88.4443 53.7386C89.0352 53.3523 89.7246 53.1591 90.5125 53.1591C90.967 53.1591 91.4159 53.2348 91.8591 53.3864C92.3023 53.5379 92.7057 53.7841 93.0693 54.125C93.433 54.4621 93.7227 54.9091 93.9386 55.4659C94.1545 56.0227 94.2625 56.7083 94.2625 57.5227V58.0909H87.5352V56.9318H92.8989C92.8989 56.4394 92.8004 56 92.6034 55.6136C92.4102 55.2273 92.1337 54.9223 91.7739 54.6989C91.4178 54.4754 90.9973 54.3636 90.5125 54.3636C89.9784 54.3636 89.5163 54.4962 89.1261 54.7614C88.7398 55.0227 88.4424 55.3636 88.2341 55.7841C88.0258 56.2045 87.9216 56.6553 87.9216 57.1364V57.9091C87.9216 58.5682 88.0352 59.1269 88.2625 59.5852C88.4936 60.0398 88.8136 60.3864 89.2227 60.625C89.6318 60.8598 90.1072 60.9773 90.6489 60.9773C91.0011 60.9773 91.3193 60.928 91.6034 60.8295C91.8913 60.7273 92.1394 60.5758 92.3477 60.375C92.5561 60.1705 92.717 59.9167 92.8307 59.6136L94.1261 59.9773C93.9898 60.4167 93.7606 60.803 93.4386 61.1364C93.1167 61.4659 92.7189 61.7235 92.2455 61.9091C91.772 62.0909 91.2398 62.1818 90.6489 62.1818ZM96.6223 62V53.2727H97.9177V54.5909H98.0086C98.1677 54.1591 98.4556 53.8087 98.8723 53.5398C99.2889 53.2708 99.7586 53.1364 100.281 53.1364C100.38 53.1364 100.503 53.1383 100.651 53.142C100.798 53.1458 100.91 53.1515 100.986 53.1591V54.5227C100.94 54.5114 100.836 54.4943 100.673 54.4716C100.514 54.4451 100.346 54.4318 100.168 54.4318C99.7435 54.4318 99.3647 54.5208 99.0314 54.6989C98.7018 54.8731 98.4405 55.1155 98.2473 55.4261C98.0579 55.733 97.9632 56.0833 97.9632 56.4773V62H96.6223ZM102.873 62.0909C102.592 62.0909 102.352 61.9905 102.151 61.7898C101.95 61.589 101.85 61.3485 101.85 61.0682C101.85 60.7879 101.95 60.5473 102.151 60.3466C102.352 60.1458 102.592 60.0455 102.873 60.0455C103.153 60.0455 103.394 60.1458 103.594 60.3466C103.795 60.5473 103.895 60.7879 103.895 61.0682C103.895 61.2538 103.848 61.4242 103.753 61.5795C103.662 61.7348 103.539 61.8598 103.384 61.9545C103.233 62.0455 103.062 62.0909 102.873 62.0909ZM111.623 62V50.3636H113.033V60.75H118.442V62H111.623ZM120.762 62V53.2727H122.103V62H120.762ZM121.443 51.8182C121.182 51.8182 120.957 51.7292 120.767 51.5511C120.582 51.3731 120.489 51.1591 120.489 50.9091C120.489 50.6591 120.582 50.4451 120.767 50.267C120.957 50.089 121.182 50 121.443 50C121.705 50 121.928 50.089 122.114 50.267C122.303 50.4451 122.398 50.6591 122.398 50.9091C122.398 51.1591 122.303 51.3731 122.114 51.5511C121.928 51.7292 121.705 51.8182 121.443 51.8182ZM132.015 53.2727L128.788 62H127.424L124.197 53.2727H125.651L128.06 60.2273H128.151L130.56 53.2727H132.015ZM137.451 62.1818C136.61 62.1818 135.885 61.9962 135.275 61.625C134.669 61.25 134.201 60.7273 133.872 60.0568C133.546 59.3826 133.383 58.5985 133.383 57.7045C133.383 56.8106 133.546 56.0227 133.872 55.3409C134.201 54.6553 134.66 54.1212 135.247 53.7386C135.838 53.3523 136.527 53.1591 137.315 53.1591C137.77 53.1591 138.218 53.2348 138.662 53.3864C139.105 53.5379 139.508 53.7841 139.872 54.125C140.235 54.4621 140.525 54.9091 140.741 55.4659C140.957 56.0227 141.065 56.7083 141.065 57.5227V58.0909H134.338V56.9318H139.701C139.701 56.4394 139.603 56 139.406 55.6136C139.213 55.2273 138.936 54.9223 138.576 54.6989C138.22 54.4754 137.8 54.3636 137.315 54.3636C136.781 54.3636 136.319 54.4962 135.929 54.7614C135.542 55.0227 135.245 55.3636 135.037 55.7841C134.828 56.2045 134.724 56.6553 134.724 57.1364V57.9091C134.724 58.5682 134.838 59.1269 135.065 59.5852C135.296 60.0398 135.616 60.3864 136.025 60.625C136.434 60.8598 136.91 60.9773 137.451 60.9773C137.804 60.9773 138.122 60.928 138.406 60.8295C138.694 60.7273 138.942 60.5758 139.15 60.375C139.359 60.1705 139.52 59.9167 139.633 59.6136L140.929 59.9773C140.792 60.4167 140.563 60.803 140.241 61.1364C139.919 61.4659 139.521 61.7235 139.048 61.9091C138.574 62.0909 138.042 62.1818 137.451 62.1818ZM148.427 62V50.3636H149.836V60.75H155.245V62H148.427ZM161.11 62.1818C160.322 62.1818 159.631 61.9943 159.036 61.6193C158.445 61.2443 157.983 60.7197 157.65 60.0455C157.32 59.3712 157.156 58.5833 157.156 57.6818C157.156 56.7727 157.32 55.9792 157.65 55.3011C157.983 54.6231 158.445 54.0966 159.036 53.7216C159.631 53.3466 160.322 53.1591 161.11 53.1591C161.898 53.1591 162.587 53.3466 163.178 53.7216C163.773 54.0966 164.235 54.6231 164.565 55.3011C164.898 55.9792 165.065 56.7727 165.065 57.6818C165.065 58.5833 164.898 59.3712 164.565 60.0455C164.235 60.7197 163.773 61.2443 163.178 61.6193C162.587 61.9943 161.898 62.1818 161.11 62.1818ZM161.11 60.9773C161.709 60.9773 162.201 60.8239 162.587 60.517C162.974 60.2102 163.26 59.8068 163.445 59.3068C163.631 58.8068 163.724 58.2652 163.724 57.6818C163.724 57.0985 163.631 56.5549 163.445 56.0511C163.26 55.5473 162.974 55.1402 162.587 54.8295C162.201 54.5189 161.709 54.3636 161.11 54.3636C160.512 54.3636 160.019 54.5189 159.633 54.8295C159.247 55.1402 158.961 55.5473 158.775 56.0511C158.589 56.5549 158.497 57.0985 158.497 57.6818C158.497 58.2652 158.589 58.8068 158.775 59.3068C158.961 59.8068 159.247 60.2102 159.633 60.517C160.019 60.8239 160.512 60.9773 161.11 60.9773ZM168.773 56.75V62H167.432V53.2727H168.727V54.6364H168.841C169.045 54.1932 169.356 53.8371 169.773 53.5682C170.189 53.2955 170.727 53.1591 171.386 53.1591C171.977 53.1591 172.494 53.2803 172.937 53.5227C173.381 53.7614 173.725 54.125 173.971 54.6136C174.218 55.0985 174.341 55.7121 174.341 56.4545V62H173V56.5455C173 55.8598 172.822 55.3258 172.466 54.9432C172.11 54.5568 171.621 54.3636 171 54.3636C170.572 54.3636 170.189 54.4564 169.852 54.642C169.519 54.8277 169.256 55.0985 169.062 55.4545C168.869 55.8106 168.773 56.2424 168.773 56.75ZM180.634 65.4545C179.986 65.4545 179.429 65.3712 178.963 65.2045C178.497 65.0417 178.109 64.8258 177.799 64.5568C177.492 64.2917 177.247 64.0076 177.066 63.7045L178.134 62.9545C178.255 63.1136 178.408 63.2955 178.594 63.5C178.78 63.7083 179.033 63.8883 179.355 64.0398C179.681 64.1951 180.107 64.2727 180.634 64.2727C181.338 64.2727 181.92 64.1023 182.378 63.7614C182.836 63.4205 183.066 62.8864 183.066 62.1591V60.3864H182.952C182.853 60.5455 182.713 60.7424 182.531 60.9773C182.353 61.2083 182.096 61.4148 181.759 61.5966C181.425 61.7746 180.975 61.8636 180.406 61.8636C179.702 61.8636 179.069 61.697 178.509 61.3636C177.952 61.0303 177.511 60.5455 177.185 59.9091C176.863 59.2727 176.702 58.5 176.702 57.5909C176.702 56.697 176.859 55.9186 177.174 55.2557C177.488 54.589 177.925 54.0739 178.486 53.7102C179.047 53.3428 179.694 53.1591 180.429 53.1591C180.997 53.1591 181.448 53.2538 181.781 53.4432C182.119 53.6288 182.376 53.8409 182.554 54.0795C182.736 54.3144 182.876 54.5076 182.975 54.6591H183.111V53.2727H184.406V62.25C184.406 63 184.236 63.6098 183.895 64.0795C183.558 64.553 183.103 64.8996 182.531 65.1193C181.963 65.3428 181.331 65.4545 180.634 65.4545ZM180.588 60.6591C181.126 60.6591 181.581 60.536 181.952 60.2898C182.323 60.0436 182.605 59.6894 182.799 59.2273C182.992 58.7652 183.088 58.2121 183.088 57.5682C183.088 56.9394 182.994 56.3845 182.804 55.9034C182.615 55.4223 182.335 55.0455 181.963 54.7727C181.592 54.5 181.134 54.3636 180.588 54.3636C180.02 54.3636 179.547 54.5076 179.168 54.7955C178.793 55.0833 178.511 55.4697 178.321 55.9545C178.136 56.4394 178.043 56.9773 178.043 57.5682C178.043 58.1742 178.138 58.7102 178.327 59.1761C178.52 59.6383 178.804 60.0019 179.179 60.267C179.558 60.5284 180.028 60.6591 180.588 60.6591ZM190.84 62.1818C189.999 62.1818 189.274 61.9962 188.664 61.625C188.058 61.25 187.59 60.7273 187.261 60.0568C186.935 59.3826 186.772 58.5985 186.772 57.7045C186.772 56.8106 186.935 56.0227 187.261 55.3409C187.59 54.6553 188.048 54.1212 188.636 53.7386C189.226 53.3523 189.916 53.1591 190.704 53.1591C191.158 53.1591 191.607 53.2348 192.05 53.3864C192.494 53.5379 192.897 53.7841 193.261 54.125C193.624 54.4621 193.914 54.9091 194.13 55.4659C194.346 56.0227 194.454 56.7083 194.454 57.5227V58.0909H187.726V56.9318H193.09C193.09 56.4394 192.992 56 192.795 55.6136C192.601 55.2273 192.325 54.9223 191.965 54.6989C191.609 54.4754 191.189 54.3636 190.704 54.3636C190.17 54.3636 189.708 54.4962 189.317 54.7614C188.931 55.0227 188.634 55.3636 188.425 55.7841C188.217 56.2045 188.113 56.6553 188.113 57.1364V57.9091C188.113 58.5682 188.226 59.1269 188.454 59.5852C188.685 60.0398 189.005 60.3864 189.414 60.625C189.823 60.8598 190.298 60.9773 190.84 60.9773C191.192 60.9773 191.511 60.928 191.795 60.8295C192.083 60.7273 192.331 60.5758 192.539 60.375C192.747 60.1705 192.908 59.9167 193.022 59.6136L194.317 59.9773C194.181 60.4167 193.952 60.803 193.63 61.1364C193.308 61.4659 192.91 61.7235 192.437 61.9091C191.963 62.0909 191.431 62.1818 190.84 62.1818ZM196.814 62V53.2727H198.109V54.5909H198.2C198.359 54.1591 198.647 53.8087 199.064 53.5398C199.48 53.2708 199.95 53.1364 200.473 53.1364C200.571 53.1364 200.694 53.1383 200.842 53.142C200.99 53.1458 201.101 53.1515 201.177 53.1591V54.5227C201.132 54.5114 201.028 54.4943 200.865 54.4716C200.706 54.4451 200.537 54.4318 200.359 54.4318C199.935 54.4318 199.556 54.5208 199.223 54.6989C198.893 54.8731 198.632 55.1155 198.439 55.4261C198.249 55.733 198.154 56.0833 198.154 56.4773V62H196.814Z" fill="#FAFAFA"/>
</svg>
