<svg width="181" height="39" viewBox="0 0 181 39" fill="none" xmlns="http://www.w3.org/2000/svg">
<path d="M3.68609 2.00031C2.93338 2.00031 2.29896 2.26483 1.77851 2.79602C1.25807 3.32722 1 3.95734 1 4.68639C1 5.41544 1.26022 6.04557 1.77851 6.57676C2.29681 7.10796 2.93338 7.37248 3.68609 7.37248C4.4388 7.37248 5.04096 7.10796 5.55925 6.57676C6.07755 6.04557 6.33777 5.41544 6.33777 4.68639C6.33777 3.95734 6.07755 3.32722 5.55925 2.79602C5.03881 2.26483 4.41514 2.00031 3.68609 2.00031Z" fill="#1F1F1F"/>
<path d="M5.74155 10.7872H1.59521V27.8651H5.74155V10.7872Z" fill="#1F1F1F"/>
<path d="M27.1233 10.4562C24.6028 10.4562 22.734 11.4067 21.5189 13.3078C20.2586 11.4067 18.3898 10.4562 15.9144 10.4562C13.7918 10.4562 12.0455 11.1573 10.6756 12.5616C9.30352 13.9659 8.61963 15.8735 8.61963 18.2822V27.8652H12.766V18.2822C12.766 17.1101 13.0757 16.1875 13.695 15.5122C14.3144 14.8391 15.1209 14.5014 16.1166 14.5014C17.1123 14.5014 17.9123 14.8326 18.521 15.4971C19.1296 16.1595 19.4328 17.0886 19.4328 18.2822V27.8652H23.5791V18.2822C23.5791 17.1101 23.8888 16.1875 24.5082 15.5122C25.1276 14.8391 25.934 14.5014 26.9298 14.5014C27.9255 14.5014 28.7255 14.8326 29.3341 15.4971C29.9427 16.1595 30.246 17.0886 30.246 18.2822V27.8652H34.3923V18.2822C34.3923 15.8735 33.7127 13.9659 32.3536 12.5616C30.9944 11.1573 29.2524 10.4562 27.1298 10.4562H27.1233Z" fill="#1F1F1F"/>
<path d="M55.801 10.4562C53.2806 10.4562 51.4117 11.4067 50.1966 13.3078C48.9364 11.4067 47.0675 10.4562 44.5922 10.4562C42.4695 10.4562 40.7233 11.1573 39.3533 12.5616C37.9813 13.9659 37.2974 15.8735 37.2974 18.2822V27.8652H41.4437V18.2822C41.4437 17.1101 41.7534 16.1875 42.3728 15.5122C42.9921 14.8391 43.7986 14.5014 44.7943 14.5014C45.79 14.5014 46.5901 14.8326 47.1987 15.4971C47.8073 16.1595 48.1105 17.0886 48.1105 18.2822V27.8652H52.2569V18.2822C52.2569 17.1101 52.5666 16.1875 53.1859 15.5122C53.8053 14.8391 54.6118 14.5014 55.6075 14.5014C56.6032 14.5014 57.4032 14.8326 58.0119 15.4971C58.6205 16.1595 58.9237 17.0886 58.9237 18.2822V27.8652H63.07V18.2822C63.07 15.8735 62.3905 13.9659 61.0313 12.5616C59.6721 11.1573 57.9301 10.4562 55.8075 10.4562H55.801Z" fill="#1F1F1F"/>
<path d="M74.7329 10.4561C72.1457 10.4561 70.008 11.2906 68.3155 12.9594C66.6252 14.6283 65.7778 16.7574 65.7778 19.3424C65.7778 21.9274 66.623 24.0522 68.3155 25.7103C70.0059 27.3684 72.1457 28.1985 74.7329 28.1985C77.3201 28.1985 79.4857 27.3684 81.1675 25.7103C82.8471 24.0522 83.688 21.9295 83.688 19.3424C83.688 16.7552 82.8471 14.6003 81.1675 12.9422C79.4878 11.2841 77.3416 10.454 74.7329 10.454V10.4561ZM78.148 22.8091C77.2641 23.7274 76.1243 24.1855 74.7329 24.1855C73.3415 24.1855 72.2016 23.7274 71.3178 22.8091C70.4339 21.893 69.9908 20.736 69.9908 19.3445C69.9908 17.9531 70.4339 16.7703 71.3178 15.8627C72.2016 14.9573 73.3415 14.5035 74.7329 14.5035C76.1243 14.5035 77.2641 14.9573 78.148 15.8627C79.0319 16.7703 79.4749 17.9294 79.4749 19.3445C79.4749 20.7596 79.0319 21.893 78.148 22.8091Z" fill="#1F1F1F"/>
<path d="M88.8234 12.9765C87.275 14.4346 86.5029 16.6906 86.5029 19.7423V27.8672H90.6493V19.7423C90.6493 18.2842 91.0794 17.1057 91.9418 16.211C92.8042 15.3164 93.9311 14.8669 95.3247 14.8669H97.3806V10.7872H95.3247C92.5396 10.7872 90.3718 11.5163 88.8256 12.9765H88.8234Z" fill="#1F1F1F"/>
<path d="M104.499 4.81952H100.353V21.4672C100.353 23.6565 100.906 25.3039 102.011 26.4093C103.117 27.5147 104.697 28.0674 106.753 28.0674C108.211 28.0674 109.56 27.9792 110.798 27.8029V23.8243C109.693 23.9791 108.609 24.0566 107.549 24.0566C106.489 24.0566 105.659 23.82 105.194 23.3426C104.729 22.8673 104.497 22.1103 104.497 21.0715V4.82167L104.499 4.81952Z" fill="#1F1F1F"/>
<path d="M115.904 1.99998C115.151 1.99998 114.517 2.26451 113.996 2.7957C113.476 3.3269 113.218 3.95702 113.218 4.68607C113.218 5.41512 113.478 6.04525 113.996 6.57644C114.515 7.10764 115.151 7.37216 115.904 7.37216C116.657 7.37216 117.259 7.10764 117.777 6.57644C118.295 6.04525 118.556 5.41512 118.556 4.68607C118.556 3.95702 118.295 3.3269 117.777 2.7957C117.257 2.26451 116.633 1.99998 115.904 1.99998Z" fill="#1F1F1F"/>
<path d="M117.96 10.7872H113.813V27.8651H117.96V10.7872Z" fill="#1F1F1F"/>
<path d="M167.63 18.7467C167.63 17.3983 168.01 16.3531 168.774 15.6133C169.537 14.8735 170.527 14.5014 171.742 14.5014C172.957 14.5014 173.946 14.8713 174.709 15.6133C175.473 16.3552 175.854 17.3983 175.854 18.7467V27.8674H180V18.6478C180 16.1058 179.232 14.1036 177.695 12.6455C176.157 11.1874 174.174 10.4562 171.742 10.4562C169.309 10.4562 167.299 11.1852 165.772 12.6455C164.247 14.1036 163.483 16.1058 163.483 18.6478V27.8674H167.63V18.7467Z" fill="#1F1F1F"/>
<path d="M137.982 25.4933V28.6374C137.982 30.9601 137.242 32.7902 135.765 34.1257C134.287 35.4613 132.356 36.1279 129.971 36.1279C127.973 36.1279 126.292 35.6182 124.926 34.5989C123.56 33.5795 122.644 32.173 122.175 30.3794H126.302C126.567 31.0525 127.021 31.588 127.664 31.9838C128.307 32.3816 129.074 32.5795 129.971 32.5795C131.236 32.5795 132.249 32.2332 133.014 31.5386C133.778 30.8461 134.161 29.8783 134.161 28.6331V27.474C135.584 26.9664 136.844 26.2825 137.982 25.489V25.4933Z" fill="#1F1F1F"/>
<path d="M151.679 24.764C150.197 24.764 148.784 24.1683 147.696 23.0801L145.464 21.08L143.104 23.6973L145.283 25.6178C146.995 27.3125 149.266 28.2458 151.679 28.2458C155.636 28.2458 159.008 25.6995 160.23 22.1661H156.369C155.393 23.7253 153.655 24.764 151.679 24.764Z" fill="#1F1F1F"/>
<path d="M110.77 10.8026H105.843V14.8866H110.77V10.8026Z" fill="#1F1F1F"/>
<path d="M155.51 11.0949C154.346 10.553 153.067 10.2584 151.699 10.2584C149.316 10.2584 147.968 10.7143 146.77 11.5143C146.036 11.9143 144.002 13.8886 143.587 14.3918C139.901 18.3661 136.892 23.8329 131.1 24.62C131.079 24.6222 131.057 24.6265 131.036 24.6286C131.036 24.6286 131.036 24.6286 131.034 24.6286C130.636 24.7168 130.225 24.7619 129.808 24.7619C129.494 24.7619 129.184 24.7361 128.883 24.6845C128.681 24.6501 128.481 24.6049 128.285 24.549C125.978 23.8888 124.285 21.764 124.285 19.2543C124.285 16.2176 126.763 13.7445 129.81 13.7445C131.313 13.7445 132.69 14.3251 133.793 15.4284L135.726 17.1402L138.221 14.9614L136.206 12.8907C134.501 11.1853 132.227 10.2455 129.81 10.2455C124.825 10.2455 120.769 14.2864 120.769 19.2543C120.769 24.2221 124.791 28.233 129.776 28.233C130.012 28.233 130.283 28.2524 130.52 28.233L130.743 28.2158C130.743 28.2158 132.176 28.0803 133.223 27.7814C133.546 27.6889 133.86 27.5878 134.167 27.4781C135.591 26.9706 136.851 26.2867 137.989 25.4931C142.094 22.6307 144.585 18.3446 147.262 15.8133C147.445 15.6391 147.628 15.4757 147.813 15.3208C148.447 14.6993 149.206 14.2499 150.036 13.9939C150.563 13.8111 151.114 13.7165 151.699 13.7251C151.963 13.7294 152.275 13.7552 152.626 13.8283C153.692 14.0111 154.656 14.5015 155.419 15.2026C156.028 15.7596 156.512 16.4521 156.822 17.2306H147.129V20.5167L160.626 20.5446C160.688 20.1188 160.723 19.6822 160.723 19.2371C160.723 15.6391 158.587 12.5294 155.512 11.0928L155.51 11.0949Z" fill="#654BFF"/>
</svg>
