<svg width="133" height="26" viewBox="0 0 133 26" fill="none" xmlns="http://www.w3.org/2000/svg">
<mask id="path-1-inside-1_443_892" fill="white">
<path d="M1.99534 0C1.43695 0 0.964319 0.197663 0.579353 0.594894C0.192482 0.992125 0 1.4642 0 2.00919C0 2.55418 0.192482 3.02625 0.579353 3.42348C0.964319 3.82071 1.43695 4.01837 1.99534 4.01837C2.55373 4.01837 3.00159 3.82071 3.38655 3.42348C3.77152 3.02625 3.96591 2.55418 3.96591 2.00919C3.96591 1.4642 3.77343 0.992125 3.38655 0.594894C2.99968 0.197663 2.53658 0 1.99534 0Z"/>
<path d="M3.52377 6.57446H0.444045V19.353H3.52377V6.57446Z"/>
<path d="M19.4103 6.32692C17.5369 6.32692 16.1495 7.03886 15.2462 8.46083C14.3104 7.03886 12.9211 6.32692 11.0821 6.32692C9.50599 6.32692 8.20816 6.85272 7.18857 7.90241C6.16898 8.9521 5.66014 10.3798 5.66014 12.1818V19.353H8.73987V12.1818C8.73987 11.3048 8.97047 10.6139 9.42976 10.1092C9.88905 9.60456 10.4894 9.35317 11.2288 9.35317C11.9682 9.35317 12.5628 9.60071 13.0145 10.0977C13.4662 10.5947 13.693 11.2894 13.693 12.1818V19.353H16.7727V12.1818C16.7727 11.3048 17.0033 10.6139 17.4626 10.1092C17.9219 9.60456 18.5222 9.35317 19.2616 9.35317C20.0011 9.35317 20.5957 9.60071 21.0473 10.0977C21.499 10.5947 21.7258 11.2894 21.7258 12.1818V19.353H24.8055V12.1818C24.8055 10.3798 24.3005 8.9521 23.2904 7.90241C22.2804 6.85272 20.9864 6.32692 19.4103 6.32692Z"/>
<path d="M40.7187 6.32692C38.8453 6.32692 37.4579 7.03886 36.5546 8.46083C35.6189 7.03886 34.2296 6.32692 32.3905 6.32692C30.8144 6.32692 29.5166 6.85272 28.497 7.90241C27.4774 8.9521 26.9686 10.3798 26.9686 12.1818V19.353H30.0483V12.1818C30.0483 11.3048 30.2789 10.6139 30.7382 10.1092C31.1975 9.60456 31.7978 9.35317 32.5372 9.35317C33.2767 9.35317 33.8713 9.60071 34.3229 10.0977C34.7746 10.5947 35.0014 11.2894 35.0014 12.1818V19.353H38.0811V12.1818C38.0811 11.3048 38.3117 10.6139 38.771 10.1092C39.2303 9.60456 39.8306 9.35317 40.5701 9.35317C41.3095 9.35317 41.9041 9.60071 42.3558 10.0977C42.8074 10.5947 43.0342 11.2894 43.0342 12.1818V19.353H46.114V12.1818C46.114 10.3798 45.6089 8.9521 44.5989 7.90241C43.5888 6.85272 42.2948 6.32692 40.7187 6.32692Z"/>
<path d="M54.7852 6.32692C52.8642 6.32692 51.2748 6.95059 50.017 8.19985C48.7611 9.44911 48.1322 11.0399 48.1322 12.9762C48.1322 14.9125 48.7611 16.4995 50.017 17.7391C51.2729 18.9788 52.8623 19.6006 54.7852 19.6006C56.7081 19.6006 58.3166 18.9807 59.5649 17.7391C60.8132 16.4995 61.4383 14.9106 61.4383 12.9762C61.4383 11.0419 60.8132 9.42801 59.5649 8.18834C58.3166 6.94867 56.7234 6.32692 54.7852 6.32692ZM57.3237 15.5688C56.6662 16.2558 55.8201 16.5993 54.7852 16.5993C53.7504 16.5993 52.9042 16.2558 52.2467 15.5688C51.5892 14.8818 51.2615 14.0182 51.2615 12.9762C51.2615 11.9342 51.5892 11.0496 52.2467 10.3702C52.9042 9.69283 53.7504 9.35317 54.7852 9.35317C55.8201 9.35317 56.6662 9.69283 57.3237 10.3702C57.9812 11.0496 58.309 11.9169 58.309 12.9762C58.309 14.0355 57.9793 14.8837 57.3237 15.5688Z"/>
<path d="M65.2555 8.21329C64.1064 9.30519 63.5308 10.992 63.5308 13.2756V19.3549H66.6105V13.2756C66.6105 12.1837 66.9307 11.3029 67.571 10.6331C68.2114 9.9634 69.0499 9.62758 70.0847 9.62758H71.6132V6.57638H70.0847C68.0151 6.57638 66.4047 7.12138 65.2555 8.21329Z"/>
<path d="M85.3767 0C84.8183 0 84.3456 0.197663 83.9607 0.594894C83.5738 0.992125 83.3813 1.4642 83.3813 2.00919C83.3813 2.55418 83.5738 3.02625 83.9607 3.42348C84.3456 3.82071 84.8183 4.01837 85.3767 4.01837C85.9351 4.01837 86.3829 3.82071 86.7698 3.42348C87.1548 3.02625 87.3491 2.55418 87.3491 2.00919C87.3491 1.4642 87.1567 0.992125 86.7698 0.594894C86.3829 0.197663 85.9198 0 85.3767 0Z"/>
<path d="M86.9032 6.57446H83.8235V19.353H86.9032V6.57446Z"/>
<path d="M123.81 12.5291C123.81 11.5197 124.094 10.7387 124.66 10.1841C125.226 9.62949 125.962 9.35317 126.865 9.35317C127.769 9.35317 128.504 9.62949 129.07 10.1841C129.636 10.7387 129.92 11.5197 129.92 12.5291V19.353H133V12.4562C133 10.5545 132.428 9.05763 131.287 7.96573C130.145 6.87382 128.67 6.32884 126.863 6.32884C125.057 6.32884 123.561 6.87382 122.429 7.96573C121.295 9.05763 120.729 10.5545 120.729 12.4562V19.353H123.808L123.81 12.5291Z"/>
<path d="M115.444 15.0487C114.733 16.2193 113.452 16.9984 111.995 16.9984C110.38 16.9984 108.595 15.8528 107.943 14.473L106.142 16.4342C107.47 18.3494 109.511 19.7829 111.995 19.7829C115.013 19.7829 117.58 17.7948 118.47 15.0487H115.444Z"/>
<path d="M76.9017 2.10898H73.822V14.5651C73.822 16.202 74.2317 17.4359 75.0531 18.2611C75.8745 19.0882 77.0484 19.5008 78.5769 19.5008C79.6612 19.5008 80.6637 19.4336 81.5823 19.3031V16.3248C80.7609 16.44 79.9566 16.4995 79.1677 16.4995C78.3787 16.4995 77.7631 16.321 77.4182 15.966C77.0732 15.611 76.8998 15.0449 76.8998 14.2658L76.9005 9.64102H81.5613V6.58597H76.901L76.9017 2.10898Z"/>
<path d="M98.2387 19.2916C98.4788 19.2225 98.7095 19.1458 98.9381 19.0652V19.9325C98.9381 20.8613 98.6542 21.5867 98.0863 22.1048C97.5184 22.623 96.7656 22.882 95.826 22.882C95.159 22.882 94.5873 22.7343 94.1108 22.4368C93.6344 22.1394 93.2971 21.7383 93.1008 21.2355H90.0344C90.3831 22.5769 91.0654 23.6285 92.0793 24.3923C93.0951 25.1541 94.3433 25.536 95.8279 25.536C97.6003 25.536 99.0353 25.0351 100.133 24.0373C101.231 23.0375 101.78 21.6692 101.78 19.9306V17.578C103.706 16.2261 105.153 14.4506 106.459 12.8486C107.222 11.9127 107.937 11.036 108.671 10.3376C108.806 10.209 108.943 10.0843 109.081 9.96915C109.551 9.50476 110.117 9.16702 110.733 8.97704C111.124 8.84079 111.533 8.76979 111.968 8.77555C112.164 8.77939 112.397 8.79857 112.656 8.8523C113.449 8.99047 114.165 9.35701 114.733 9.88089C115.185 10.2973 115.545 10.8174 115.774 11.3988H108.572V13.857L118.602 13.8781C118.648 13.5596 118.672 13.2314 118.672 12.8995C118.672 10.2071 117.087 7.8813 114.8 6.80666C113.935 6.39984 112.97 6.15037 111.954 6.1734C109.75 6.22122 108.727 6.90896 107.86 7.49149L107.748 7.56659C107.423 7.77959 106.329 8.86382 105.938 9.27448C105.326 9.93819 104.74 10.6577 104.15 11.3815C102.098 13.8994 100.003 16.4698 96.6607 16.9274L96.6417 16.9304C96.5322 16.9477 95.9824 17.0349 95.7002 17.0349C95.4658 17.0349 95.2371 17.0157 95.0122 16.9773C94.8616 16.9524 94.713 16.9178 94.5681 16.8756C92.853 16.3805 91.5951 14.7916 91.5951 12.9148C91.5951 10.6427 93.4361 8.79281 95.7002 8.79281C99.3631 8.71989 100.32 12.3621 100.32 12.3621L102.035 10.6351C101.844 9.48366 99.9386 6.22137 95.704 6.17148C91.9992 6.17148 88.9861 9.19388 88.9861 12.911C88.9861 16.6281 91.9992 19.6505 95.704 19.6505C95.8812 19.6505 96.0565 19.6428 96.2319 19.6294C96.2319 19.6294 97.4611 19.5161 98.2387 19.2916Z"/>
</mask>
<path d="M1.99534 0C1.43695 0 0.964319 0.197663 0.579353 0.594894C0.192482 0.992125 0 1.4642 0 2.00919C0 2.55418 0.192482 3.02625 0.579353 3.42348C0.964319 3.82071 1.43695 4.01837 1.99534 4.01837C2.55373 4.01837 3.00159 3.82071 3.38655 3.42348C3.77152 3.02625 3.96591 2.55418 3.96591 2.00919C3.96591 1.4642 3.77343 0.992125 3.38655 0.594894C2.99968 0.197663 2.53658 0 1.99534 0Z" fill="black"/>
<path d="M3.52377 6.57446H0.444045V19.353H3.52377V6.57446Z" fill="black"/>
<path d="M19.4103 6.32692C17.5369 6.32692 16.1495 7.03886 15.2462 8.46083C14.3104 7.03886 12.9211 6.32692 11.0821 6.32692C9.50599 6.32692 8.20816 6.85272 7.18857 7.90241C6.16898 8.9521 5.66014 10.3798 5.66014 12.1818V19.353H8.73987V12.1818C8.73987 11.3048 8.97047 10.6139 9.42976 10.1092C9.88905 9.60456 10.4894 9.35317 11.2288 9.35317C11.9682 9.35317 12.5628 9.60071 13.0145 10.0977C13.4662 10.5947 13.693 11.2894 13.693 12.1818V19.353H16.7727V12.1818C16.7727 11.3048 17.0033 10.6139 17.4626 10.1092C17.9219 9.60456 18.5222 9.35317 19.2616 9.35317C20.0011 9.35317 20.5957 9.60071 21.0473 10.0977C21.499 10.5947 21.7258 11.2894 21.7258 12.1818V19.353H24.8055V12.1818C24.8055 10.3798 24.3005 8.9521 23.2904 7.90241C22.2804 6.85272 20.9864 6.32692 19.4103 6.32692Z" fill="black"/>
<path d="M40.7187 6.32692C38.8453 6.32692 37.4579 7.03886 36.5546 8.46083C35.6189 7.03886 34.2296 6.32692 32.3905 6.32692C30.8144 6.32692 29.5166 6.85272 28.497 7.90241C27.4774 8.9521 26.9686 10.3798 26.9686 12.1818V19.353H30.0483V12.1818C30.0483 11.3048 30.2789 10.6139 30.7382 10.1092C31.1975 9.60456 31.7978 9.35317 32.5372 9.35317C33.2767 9.35317 33.8713 9.60071 34.3229 10.0977C34.7746 10.5947 35.0014 11.2894 35.0014 12.1818V19.353H38.0811V12.1818C38.0811 11.3048 38.3117 10.6139 38.771 10.1092C39.2303 9.60456 39.8306 9.35317 40.5701 9.35317C41.3095 9.35317 41.9041 9.60071 42.3558 10.0977C42.8074 10.5947 43.0342 11.2894 43.0342 12.1818V19.353H46.114V12.1818C46.114 10.3798 45.6089 8.9521 44.5989 7.90241C43.5888 6.85272 42.2948 6.32692 40.7187 6.32692Z" fill="black"/>
<path d="M54.7852 6.32692C52.8642 6.32692 51.2748 6.95059 50.017 8.19985C48.7611 9.44911 48.1322 11.0399 48.1322 12.9762C48.1322 14.9125 48.7611 16.4995 50.017 17.7391C51.2729 18.9788 52.8623 19.6006 54.7852 19.6006C56.7081 19.6006 58.3166 18.9807 59.5649 17.7391C60.8132 16.4995 61.4383 14.9106 61.4383 12.9762C61.4383 11.0419 60.8132 9.42801 59.5649 8.18834C58.3166 6.94867 56.7234 6.32692 54.7852 6.32692ZM57.3237 15.5688C56.6662 16.2558 55.8201 16.5993 54.7852 16.5993C53.7504 16.5993 52.9042 16.2558 52.2467 15.5688C51.5892 14.8818 51.2615 14.0182 51.2615 12.9762C51.2615 11.9342 51.5892 11.0496 52.2467 10.3702C52.9042 9.69283 53.7504 9.35317 54.7852 9.35317C55.8201 9.35317 56.6662 9.69283 57.3237 10.3702C57.9812 11.0496 58.309 11.9169 58.309 12.9762C58.309 14.0355 57.9793 14.8837 57.3237 15.5688Z" fill="black"/>
<path d="M65.2555 8.21329C64.1064 9.30519 63.5308 10.992 63.5308 13.2756V19.3549H66.6105V13.2756C66.6105 12.1837 66.9307 11.3029 67.571 10.6331C68.2114 9.9634 69.0499 9.62758 70.0847 9.62758H71.6132V6.57638H70.0847C68.0151 6.57638 66.4047 7.12138 65.2555 8.21329Z" fill="black"/>
<path d="M85.3767 0C84.8183 0 84.3456 0.197663 83.9607 0.594894C83.5738 0.992125 83.3813 1.4642 83.3813 2.00919C83.3813 2.55418 83.5738 3.02625 83.9607 3.42348C84.3456 3.82071 84.8183 4.01837 85.3767 4.01837C85.9351 4.01837 86.3829 3.82071 86.7698 3.42348C87.1548 3.02625 87.3491 2.55418 87.3491 2.00919C87.3491 1.4642 87.1567 0.992125 86.7698 0.594894C86.3829 0.197663 85.9198 0 85.3767 0Z" fill="black"/>
<path d="M86.9032 6.57446H83.8235V19.353H86.9032V6.57446Z" fill="black"/>
<path d="M123.81 12.5291C123.81 11.5197 124.094 10.7387 124.66 10.1841C125.226 9.62949 125.962 9.35317 126.865 9.35317C127.769 9.35317 128.504 9.62949 129.07 10.1841C129.636 10.7387 129.92 11.5197 129.92 12.5291V19.353H133V12.4562C133 10.5545 132.428 9.05763 131.287 7.96573C130.145 6.87382 128.67 6.32884 126.863 6.32884C125.057 6.32884 123.561 6.87382 122.429 7.96573C121.295 9.05763 120.729 10.5545 120.729 12.4562V19.353H123.808L123.81 12.5291Z" fill="black"/>
<path d="M115.444 15.0487C114.733 16.2193 113.452 16.9984 111.995 16.9984C110.38 16.9984 108.595 15.8528 107.943 14.473L106.142 16.4342C107.47 18.3494 109.511 19.7829 111.995 19.7829C115.013 19.7829 117.58 17.7948 118.47 15.0487H115.444Z" fill="black"/>
<path d="M76.9017 2.10898H73.822V14.5651C73.822 16.202 74.2317 17.4359 75.0531 18.2611C75.8745 19.0882 77.0484 19.5008 78.5769 19.5008C79.6612 19.5008 80.6637 19.4336 81.5823 19.3031V16.3248C80.7609 16.44 79.9566 16.4995 79.1677 16.4995C78.3787 16.4995 77.7631 16.321 77.4182 15.966C77.0732 15.611 76.8998 15.0449 76.8998 14.2658L76.9005 9.64102H81.5613V6.58597H76.901L76.9017 2.10898Z" fill="black"/>
<path d="M98.2387 19.2916C98.4788 19.2225 98.7095 19.1458 98.9381 19.0652V19.9325C98.9381 20.8613 98.6542 21.5867 98.0863 22.1048C97.5184 22.623 96.7656 22.882 95.826 22.882C95.159 22.882 94.5873 22.7343 94.1108 22.4368C93.6344 22.1394 93.2971 21.7383 93.1008 21.2355H90.0344C90.3831 22.5769 91.0654 23.6285 92.0793 24.3923C93.0951 25.1541 94.3433 25.536 95.8279 25.536C97.6003 25.536 99.0353 25.0351 100.133 24.0373C101.231 23.0375 101.78 21.6692 101.78 19.9306V17.578C103.706 16.2261 105.153 14.4506 106.459 12.8486C107.222 11.9127 107.937 11.036 108.671 10.3376C108.806 10.209 108.943 10.0843 109.081 9.96915C109.551 9.50476 110.117 9.16702 110.733 8.97704C111.124 8.84079 111.533 8.76979 111.968 8.77555C112.164 8.77939 112.397 8.79857 112.656 8.8523C113.449 8.99047 114.165 9.35701 114.733 9.88089C115.185 10.2973 115.545 10.8174 115.774 11.3988H108.572V13.857L118.602 13.8781C118.648 13.5596 118.672 13.2314 118.672 12.8995C118.672 10.2071 117.087 7.8813 114.8 6.80666C113.935 6.39984 112.97 6.15037 111.954 6.1734C109.75 6.22122 108.727 6.90896 107.86 7.49149L107.748 7.56659C107.423 7.77959 106.329 8.86382 105.938 9.27448C105.326 9.93819 104.74 10.6577 104.15 11.3815C102.098 13.8994 100.003 16.4698 96.6607 16.9274L96.6417 16.9304C96.5322 16.9477 95.9824 17.0349 95.7002 17.0349C95.4658 17.0349 95.2371 17.0157 95.0122 16.9773C94.8616 16.9524 94.713 16.9178 94.5681 16.8756C92.853 16.3805 91.5951 14.7916 91.5951 12.9148C91.5951 10.6427 93.4361 8.79281 95.7002 8.79281C99.3631 8.71989 100.32 12.3621 100.32 12.3621L102.035 10.6351C101.844 9.48366 99.9386 6.22137 95.704 6.17148C91.9992 6.17148 88.9861 9.19388 88.9861 12.911C88.9861 16.6281 91.9992 19.6505 95.704 19.6505C95.8812 19.6505 96.0565 19.6428 96.2319 19.6294C96.2319 19.6294 97.4611 19.5161 98.2387 19.2916Z" fill="black"/>
<path d="M106.459 12.8486L106.382 12.7854C106.219 12.9857 106.053 13.1885 105.885 13.3928L105.962 13.4563L106.039 13.5199C106.208 13.3152 106.374 13.112 106.537 12.9118L106.459 12.8486ZM0.579353 0.594894L0.722631 0.734435L0.722975 0.734081L0.579353 0.594894ZM0.579353 3.42348L0.722975 3.2843L0.722631 3.28394L0.579353 3.42348ZM3.52377 6.57446H3.72377V6.37446H3.52377V6.57446ZM0.444045 6.57446V6.37446H0.244045V6.57446H0.444045ZM0.444045 19.353H0.244045V19.553H0.444045V19.353ZM3.52377 19.353V19.553H3.72377V19.353H3.52377ZM15.2462 8.46083L15.0791 8.57077L15.2491 8.82916L15.415 8.56807L15.2462 8.46083ZM5.66014 19.353H5.46014V19.553H5.66014V19.353ZM8.73987 19.353V19.553H8.93987V19.353H8.73987ZM13.693 19.353H13.493V19.553H13.693V19.353ZM16.7727 19.353V19.553H16.9727V19.353H16.7727ZM21.7258 19.353H21.5258V19.553H21.7258V19.353ZM24.8055 19.353V19.553H25.0055V19.353H24.8055ZM36.5546 8.46083L36.3875 8.57077L36.5576 8.82916L36.7234 8.56807L36.5546 8.46083ZM26.9686 19.353H26.7686V19.553H26.9686V19.353ZM30.0483 19.353V19.553H30.2483V19.353H30.0483ZM35.0014 19.353H34.8014V19.553H35.0014V19.353ZM38.0811 19.353V19.553H38.2811V19.353H38.0811ZM43.0342 19.353H42.8342V19.553H43.0342V19.353ZM46.114 19.353V19.553H46.314V19.353H46.114ZM50.017 8.19985L49.876 8.05795L49.8759 8.05805L50.017 8.19985ZM59.5649 17.7391L59.424 17.5972L59.4239 17.5973L59.5649 17.7391ZM57.3237 15.5688L57.4682 15.7071L57.4682 15.707L57.3237 15.5688ZM52.2467 10.3702L52.1032 10.2309L52.103 10.2311L52.2467 10.3702ZM57.3237 10.3702L57.4674 10.2311L57.4672 10.2309L57.3237 10.3702ZM63.5308 19.3549H63.3308V19.5549H63.5308V19.3549ZM66.6105 19.3549V19.5549H66.8105V19.3549H66.6105ZM71.6132 9.62758V9.82758H71.8132V9.62758H71.6132ZM71.6132 6.57638H71.8132V6.37638H71.6132V6.57638ZM83.9607 0.594894L84.104 0.734435L84.1043 0.734081L83.9607 0.594894ZM83.9607 3.42348L84.1043 3.2843L84.104 3.28394L83.9607 3.42348ZM86.7698 3.42348L86.9131 3.56302L86.9134 3.56267L86.7698 3.42348ZM86.9032 6.57446H87.1032V6.37446H86.9032V6.57446ZM83.8235 6.57446V6.37446H83.6235V6.57446H83.8235ZM83.8235 19.353H83.6235V19.553H83.8235V19.353ZM86.9032 19.353V19.553H87.1032V19.353H86.9032ZM123.81 12.5291L124.01 12.5291V12.5291H123.81ZM129.92 19.353H129.72V19.553H129.92V19.353ZM133 19.353V19.553H133.2V19.353H133ZM122.429 7.96573L122.567 8.10979L122.568 8.10968L122.429 7.96573ZM120.729 19.353H120.529V19.553H120.729V19.353ZM123.808 19.353V19.553H124.008L124.008 19.3531L123.808 19.353ZM106.459 12.8486L106.614 12.975L106.459 12.8486ZM115.444 15.0487V14.8487H115.331L115.273 14.9449L115.444 15.0487ZM107.943 14.473L108.124 14.3876L107.997 14.1187L107.796 14.3378L107.943 14.473ZM106.142 16.4342L105.995 16.299L105.886 16.4168L105.978 16.5482L106.142 16.4342ZM118.47 15.0487L118.661 15.1104L118.745 14.8487H118.47V15.0487ZM76.9017 2.10898L77.1017 2.10901L77.1017 1.90898H76.9017V2.10898ZM73.822 2.10898V1.90898H73.622V2.10898H73.822ZM75.0531 18.2611L75.195 18.1202L75.1948 18.12L75.0531 18.2611ZM81.5823 19.3031L81.6104 19.5011L81.7823 19.4767V19.3031H81.5823ZM81.5823 16.3248H81.7823V16.0949L81.5545 16.1268L81.5823 16.3248ZM76.8998 14.2658L76.6998 14.2657V14.2658H76.8998ZM76.9005 9.64102V9.44102H76.7005L76.7005 9.64098L76.9005 9.64102ZM81.5613 9.64102V9.84101H81.7613V9.64102H81.5613ZM81.5613 6.58597H81.7613V6.38597H81.5613V6.58597ZM76.901 6.58597L76.701 6.58594L76.701 6.78597H76.901V6.58597ZM98.2387 19.2916L98.1834 19.0994L98.1832 19.0995L98.2387 19.2916ZM98.9381 19.0652H99.1381V18.7826L98.8717 18.8765L98.9381 19.0652ZM93.1008 21.2355L93.2871 21.1628L93.2374 21.0355H93.1008V21.2355ZM90.0344 21.2355V21.0355H89.7757L89.8408 21.2859L90.0344 21.2355ZM92.0793 24.3923L91.9589 24.552L91.9593 24.5523L92.0793 24.3923ZM100.133 24.0373L100.268 24.1853L100.268 24.1851L100.133 24.0373ZM101.78 17.578L101.665 17.4143L101.58 17.474V17.578H101.78ZM108.671 10.3376L108.533 10.1926L108.533 10.1927L108.671 10.3376ZM109.081 9.96915L109.209 10.1224L109.215 10.1172L109.221 10.1115L109.081 9.96915ZM110.733 8.97704L110.792 9.16827L110.799 9.16588L110.733 8.97704ZM111.968 8.77555L111.972 8.57558L111.97 8.57557L111.968 8.77555ZM112.656 8.8523L112.615 9.04824L112.621 9.04933L112.656 8.8523ZM114.733 9.88089L114.598 10.0279L114.598 10.0279L114.733 9.88089ZM115.774 11.3988V11.5988H116.067L115.96 11.3256L115.774 11.3988ZM108.572 11.3988V11.1988H108.372V11.3988H108.572ZM108.572 13.857H108.372V14.0566L108.571 14.057L108.572 13.857ZM118.602 13.8781L118.601 14.0781L118.775 14.0785L118.8 13.9066L118.602 13.8781ZM114.8 6.80666L114.715 6.98765L114.715 6.98767L114.8 6.80666ZM111.954 6.1734L111.959 6.37335L111.959 6.37335L111.954 6.1734ZM107.86 7.49149L107.972 7.65755L107.972 7.65747L107.86 7.49149ZM107.748 7.56659L107.858 7.73401L107.86 7.73264L107.748 7.56659ZM105.938 9.27448L105.793 9.13661L105.791 9.13897L105.938 9.27448ZM104.15 11.3815L104.305 11.5078L104.15 11.3815ZM96.6607 16.9274L96.6335 16.7292L96.6298 16.7298L96.6607 16.9274ZM96.6417 16.9304L96.6109 16.7328L96.6104 16.7328L96.6417 16.9304ZM95.0122 16.9773L95.0458 16.7802L95.0449 16.78L95.0122 16.9773ZM94.5681 16.8756L94.6241 16.6836L94.6236 16.6834L94.5681 16.8756ZM95.7002 8.79281V8.99285L95.7042 8.99277L95.7002 8.79281ZM100.32 12.3621L100.126 12.413L100.215 12.7513L100.462 12.5031L100.32 12.3621ZM102.035 10.6351L102.177 10.776L102.249 10.7034L102.232 10.6024L102.035 10.6351ZM95.704 6.17148L95.7063 5.97148H95.704V6.17148ZM96.2319 19.6294L96.2472 19.8288L96.2502 19.8285L96.2319 19.6294ZM1.99534 0V-0.2C1.38375 -0.2 0.859014 0.0189397 0.435732 0.455707L0.579353 0.594894L0.722975 0.734081C1.06962 0.376386 1.49015 0.2 1.99534 0.2V0ZM0.579353 0.594894L0.436076 0.455353C0.0132952 0.889455 -0.2 1.41141 -0.2 2.00919H0H0.2C0.2 1.51698 0.371668 1.09479 0.722631 0.734435L0.579353 0.594894ZM0 2.00919H-0.2C-0.2 2.60697 0.0132952 3.12892 0.436076 3.56302L0.579353 3.42348L0.722631 3.28394C0.371668 2.92358 0.2 2.5014 0.2 2.00919H0ZM0.579353 3.42348L0.435732 3.56267C0.859016 3.99944 1.38376 4.21837 1.99534 4.21837V4.01837V3.81837C1.49015 3.81837 1.06962 3.64199 0.722975 3.2843L0.579353 3.42348ZM1.99534 4.01837V4.21837C2.60969 4.21837 3.10883 3.99744 3.53018 3.56267L3.38655 3.42348L3.24293 3.2843C2.89435 3.64399 2.49778 3.81837 1.99534 3.81837V4.01837ZM3.38655 3.42348L3.53018 3.56267C3.95042 3.12904 4.16591 2.6074 4.16591 2.00919H3.96591H3.76591C3.76591 2.50097 3.59262 2.92346 3.24293 3.2843L3.38655 3.42348ZM3.96591 2.00919H4.16591C4.16591 1.41141 3.95261 0.889454 3.52983 0.455353L3.38655 0.594894L3.24328 0.734435C3.59424 1.0948 3.76591 1.51698 3.76591 2.00919H3.96591ZM3.38655 0.594894L3.52983 0.455353C3.10625 0.0204271 2.59187 -0.2 1.99534 -0.2V0V0.2C2.4813 0.2 2.89312 0.374899 3.24328 0.734435L3.38655 0.594894ZM3.52377 6.57446V6.37446H0.444045V6.57446V6.77446H3.52377V6.57446ZM0.444045 6.57446H0.244045V19.353H0.444045H0.644045V6.57446H0.444045ZM0.444045 19.353V19.553H3.52377V19.353V19.153H0.444045V19.353ZM3.52377 19.353H3.72377V6.57446H3.52377H3.32377V19.353H3.52377ZM19.4103 6.32692V6.12692C17.4774 6.12692 16.022 6.86667 15.0774 8.35359L15.2462 8.46083L15.415 8.56807C16.2771 7.21105 17.5964 6.52692 19.4103 6.52692V6.32692ZM15.2462 8.46083L15.4132 8.35089C14.4371 6.86753 12.982 6.12692 11.0821 6.12692V6.32692V6.52692C12.8603 6.52692 14.1838 7.21019 15.0791 8.57077L15.2462 8.46083ZM11.0821 6.32692V6.12692C9.45646 6.12692 8.1054 6.67147 7.04511 7.76306L7.18857 7.90241L7.33203 8.04176C8.31092 7.03398 9.55551 6.52692 11.0821 6.52692V6.32692ZM7.18857 7.90241L7.04511 7.76306C5.98118 8.8584 5.46014 10.3407 5.46014 12.1818H5.66014H5.86014C5.86014 10.419 6.35679 9.0458 7.33203 8.04176L7.18857 7.90241ZM5.66014 12.1818H5.46014V19.353H5.66014H5.86014V12.1818H5.66014ZM5.66014 19.353V19.553H8.73987V19.353V19.153H5.66014V19.353ZM8.73987 19.353H8.93987V12.1818H8.73987H8.53987V19.353H8.73987ZM8.73987 12.1818H8.93987C8.93987 11.3401 9.16049 10.7023 9.57768 10.2439L9.42976 10.1092L9.28184 9.97464C8.78044 10.5256 8.53987 11.2694 8.53987 12.1818H8.73987ZM9.42976 10.1092L9.57768 10.2439C9.99547 9.78476 10.5401 9.55317 11.2288 9.55317V9.35317V9.15317C10.4386 9.15317 9.78262 9.42435 9.28184 9.97464L9.42976 10.1092ZM11.2288 9.35317V9.55317C11.9184 9.55317 12.4569 9.78149 12.8665 10.2322L13.0145 10.0977L13.1625 9.96322C12.6688 9.41992 12.0181 9.15317 11.2288 9.15317V9.35317ZM13.0145 10.0977L12.8665 10.2322C13.2751 10.6818 13.493 11.3227 13.493 12.1818H13.693H13.893C13.893 11.2562 13.6573 10.5076 13.1625 9.96322L13.0145 10.0977ZM13.693 12.1818H13.493V19.353H13.693H13.893V12.1818H13.693ZM13.693 19.353V19.553H16.7727V19.353V19.153H13.693V19.353ZM16.7727 19.353H16.9727V12.1818H16.7727H16.5727V19.353H16.7727ZM16.7727 12.1818H16.9727C16.9727 11.3401 17.1933 10.7023 17.6105 10.2439L17.4626 10.1092L17.3147 9.97464C16.8133 10.5256 16.5727 11.2694 16.5727 12.1818H16.7727ZM17.4626 10.1092L17.6105 10.2439C18.0283 9.78476 18.5729 9.55317 19.2616 9.55317V9.35317V9.15317C18.4715 9.15317 17.8155 9.42435 17.3147 9.97464L17.4626 10.1092ZM19.2616 9.35317V9.55317C19.9512 9.55317 20.4897 9.78149 20.8993 10.2322L21.0473 10.0977L21.1954 9.96322C20.7016 9.41992 20.051 9.15317 19.2616 9.15317V9.35317ZM21.0473 10.0977L20.8993 10.2322C21.3079 10.6818 21.5258 11.3227 21.5258 12.1818H21.7258H21.9258C21.9258 11.2562 21.6901 10.5076 21.1954 9.96322L21.0473 10.0977ZM21.7258 12.1818H21.5258V19.353H21.7258H21.9258V12.1818H21.7258ZM21.7258 19.353V19.553H24.8055V19.353V19.153H21.7258V19.353ZM24.8055 19.353H25.0055V12.1818H24.8055H24.6055V19.353H24.8055ZM24.8055 12.1818H25.0055C25.0055 10.3411 24.4886 8.85909 23.4346 7.76374L23.2904 7.90241L23.1463 8.04109C24.1124 9.0451 24.6055 10.4186 24.6055 12.1818H24.8055ZM23.2904 7.90241L23.4346 7.76374C22.3835 6.67148 21.0358 6.12692 19.4103 6.12692V6.32692V6.52692C20.9369 6.52692 22.1772 7.03397 23.1463 8.04109L23.2904 7.90241ZM40.7187 6.32692V6.12692C38.7859 6.12692 37.3304 6.86667 36.3858 8.35359L36.5546 8.46083L36.7234 8.56807C37.5855 7.21105 38.9048 6.52692 40.7187 6.52692V6.32692ZM36.5546 8.46083L36.7217 8.35089C35.7456 6.86753 34.2904 6.12692 32.3905 6.12692V6.32692V6.52692C34.1687 6.52692 35.4922 7.21019 36.3875 8.57077L36.5546 8.46083ZM32.3905 6.32692V6.12692C30.7649 6.12692 29.4138 6.67147 28.3535 7.76306L28.497 7.90241L28.6405 8.04176C29.6194 7.03398 30.8639 6.52692 32.3905 6.52692V6.32692ZM28.497 7.90241L28.3535 7.76306C27.2896 8.8584 26.7686 10.3407 26.7686 12.1818H26.9686H27.1686C27.1686 10.419 27.6652 9.0458 28.6405 8.04176L28.497 7.90241ZM26.9686 12.1818H26.7686V19.353H26.9686H27.1686V12.1818H26.9686ZM26.9686 19.353V19.553H30.0483V19.353V19.153H26.9686V19.353ZM30.0483 19.353H30.2483V12.1818H30.0483H29.8483V19.353H30.0483ZM30.0483 12.1818H30.2483C30.2483 11.3401 30.4689 10.7023 30.8861 10.2439L30.7382 10.1092L30.5903 9.97464C30.0889 10.5256 29.8483 11.2694 29.8483 12.1818H30.0483ZM30.7382 10.1092L30.8861 10.2439C31.3039 9.78476 31.8486 9.55317 32.5372 9.55317V9.35317V9.15317C31.7471 9.15317 31.0911 9.42435 30.5903 9.97464L30.7382 10.1092ZM32.5372 9.35317V9.55317C33.2268 9.55317 33.7653 9.78149 34.1749 10.2322L34.3229 10.0977L34.471 9.96322C33.9772 9.41992 33.3266 9.15317 32.5372 9.15317V9.35317ZM34.3229 10.0977L34.1749 10.2322C34.5835 10.6818 34.8014 11.3227 34.8014 12.1818H35.0014H35.2014C35.2014 11.2562 34.9657 10.5076 34.471 9.96322L34.3229 10.0977ZM35.0014 12.1818H34.8014V19.353H35.0014H35.2014V12.1818H35.0014ZM35.0014 19.353V19.553H38.0811V19.353V19.153H35.0014V19.353ZM38.0811 19.353H38.2811V12.1818H38.0811H37.8811V19.353H38.0811ZM38.0811 12.1818H38.2811C38.2811 11.3401 38.5018 10.7023 38.9189 10.2439L38.771 10.1092L38.6231 9.97464C38.1217 10.5256 37.8811 11.2694 37.8811 12.1818H38.0811ZM38.771 10.1092L38.9189 10.2439C39.3367 9.78476 39.8814 9.55317 40.5701 9.55317V9.35317V9.15317C39.7799 9.15317 39.1239 9.42435 38.6231 9.97464L38.771 10.1092ZM40.5701 9.35317V9.55317C41.2596 9.55317 41.7981 9.78149 42.2078 10.2322L42.3558 10.0977L42.5038 9.96322C42.0101 9.41992 41.3594 9.15317 40.5701 9.15317V9.35317ZM42.3558 10.0977L42.2078 10.2322C42.6163 10.6818 42.8342 11.3227 42.8342 12.1818H43.0342H43.2342C43.2342 11.2562 42.9985 10.5076 42.5038 9.96322L42.3558 10.0977ZM43.0342 12.1818H42.8342V19.353H43.0342H43.2342V12.1818H43.0342ZM43.0342 19.353V19.553H46.114V19.353V19.153H43.0342V19.353ZM46.114 19.353H46.314V12.1818H46.114H45.914V19.353H46.114ZM46.114 12.1818H46.314C46.314 10.3411 45.797 8.85909 44.743 7.76374L44.5989 7.90241L44.4548 8.04109C45.4209 9.0451 45.914 10.4186 45.914 12.1818H46.114ZM44.5989 7.90241L44.743 7.76374C43.692 6.67148 42.3443 6.12692 40.7187 6.12692V6.32692V6.52692C42.2453 6.52692 43.4857 7.03397 44.4548 8.04109L44.5989 7.90241ZM54.7852 6.32692V6.12692C52.8163 6.12692 51.1747 6.76813 49.876 8.05795L50.017 8.19985L50.1579 8.34175C51.3749 7.13305 52.9121 6.52692 54.7852 6.52692V6.32692ZM50.017 8.19985L49.8759 8.05805C48.5787 9.34844 47.9322 10.992 47.9322 12.9762H48.1322H48.3322C48.3322 11.0879 48.9435 9.54978 50.158 8.34165L50.017 8.19985ZM48.1322 12.9762H47.9322C47.9322 14.9603 48.5787 16.6005 49.8765 17.8815L50.017 17.7391L50.1575 17.5968C48.9435 16.3985 48.3322 14.8646 48.3322 12.9762H48.1322ZM50.017 17.7391L49.8765 17.8815C51.1732 19.1615 52.8147 19.8006 54.7852 19.8006V19.6006V19.4006C52.9099 19.4006 51.3725 18.7961 50.1575 17.5968L50.017 17.7391ZM54.7852 19.6006V19.8006C56.7548 19.8006 58.416 19.1639 59.7059 17.8809L59.5649 17.7391L59.4239 17.5973C58.2172 18.7975 56.6615 19.4006 54.7852 19.4006V19.6006ZM59.5649 17.7391L59.7058 17.8811C60.9958 16.5999 61.6383 14.958 61.6383 12.9762H61.4383H61.2383C61.2383 14.8631 60.6305 16.399 59.424 17.5972L59.5649 17.7391ZM61.4383 12.9762H61.6383C61.6383 10.9952 60.9964 9.32806 59.7058 8.04643L59.5649 8.18834L59.424 8.33025C60.63 9.52795 61.2383 11.0885 61.2383 12.9762H61.4383ZM59.5649 8.18834L59.7058 8.04643C58.4162 6.7657 56.7705 6.12692 54.7852 6.12692V6.32692V6.52692C56.6763 6.52692 58.217 7.13164 59.424 8.33025L59.5649 8.18834ZM57.3237 15.5688L57.1792 15.4305C56.563 16.0744 55.7708 16.3993 54.7852 16.3993V16.5993V16.7993C55.8693 16.7993 56.7694 16.4372 57.4682 15.7071L57.3237 15.5688ZM54.7852 16.5993V16.3993C53.7996 16.3993 53.0074 16.0744 52.3912 15.4305L52.2467 15.5688L52.1022 15.7071C52.801 16.4372 53.7012 16.7993 54.7852 16.7993V16.5993ZM52.2467 15.5688L52.3912 15.4305C51.773 14.7845 51.4615 13.9722 51.4615 12.9762H51.2615H51.0615C51.0615 14.0643 51.4055 14.979 52.1022 15.7071L52.2467 15.5688ZM51.2615 12.9762H51.4615C51.4615 11.9788 51.7739 11.1464 52.3904 10.5093L52.2467 10.3702L52.103 10.2311C51.4046 10.9527 51.0615 11.8896 51.0615 12.9762H51.2615ZM52.2467 10.3702L52.3902 10.5095C53.0063 9.87477 53.7989 9.55317 54.7852 9.55317V9.35317V9.15317C53.7019 9.15317 52.8021 9.51088 52.1032 10.2309L52.2467 10.3702ZM54.7852 9.35317V9.55317C55.7716 9.55317 56.5641 9.87477 57.1802 10.5095L57.3237 10.3702L57.4672 10.2309C56.7683 9.51088 55.8685 9.15317 54.7852 9.15317V9.35317ZM57.3237 10.3702L57.18 10.5093C57.7969 11.1467 58.109 11.962 58.109 12.9762H58.309H58.509C58.509 11.8718 58.1655 10.9524 57.4674 10.2311L57.3237 10.3702ZM58.309 12.9762H58.109C58.109 13.9889 57.7959 14.786 57.1792 15.4305L57.3237 15.5688L57.4682 15.707C58.1627 14.9814 58.509 14.0821 58.509 12.9762H58.309ZM65.2555 8.21329L65.1178 8.0683C63.9141 9.21196 63.3308 10.9615 63.3308 13.2756H63.5308H63.7308C63.7308 11.0225 64.2986 9.39843 65.3933 8.35827L65.2555 8.21329ZM63.5308 13.2756H63.3308V19.3549H63.5308H63.7308V13.2756H63.5308ZM63.5308 19.3549V19.5549H66.6105V19.3549V19.1549H63.5308V19.3549ZM66.6105 19.3549H66.8105V13.2756H66.6105H66.4105V19.3549H66.6105ZM66.6105 13.2756H66.8105C66.8105 12.2253 67.1171 11.3973 67.7156 10.7713L67.571 10.6331L67.4265 10.4949C66.7443 11.2084 66.4105 12.142 66.4105 13.2756H66.6105ZM67.571 10.6331L67.7156 10.7713C68.3137 10.1458 69.0976 9.82758 70.0847 9.82758V9.62758V9.42758C69.0023 9.42758 68.1091 9.78098 67.4265 10.4949L67.571 10.6331ZM70.0847 9.62758V9.82758H71.6132V9.62758V9.42758H70.0847V9.62758ZM71.6132 9.62758H71.8132V6.57638H71.6132H71.4132V9.62758H71.6132ZM71.6132 6.57638V6.37638H70.0847V6.57638V6.77638H71.6132V6.57638ZM70.0847 6.57638V6.37638C67.9801 6.37638 66.3145 6.93125 65.1178 8.0683L65.2555 8.21329L65.3933 8.35827C66.495 7.31151 68.0501 6.77638 70.0847 6.77638V6.57638ZM85.3767 0V-0.2C84.7651 -0.2 84.2403 0.0189388 83.817 0.455707L83.9607 0.594894L84.1043 0.734081C84.4509 0.376387 84.8715 0.2 85.3767 0.2V0ZM83.9607 0.594894L83.8174 0.455353C83.3946 0.889456 83.1813 1.41141 83.1813 2.00919H83.3813H83.5813C83.5813 1.51698 83.753 1.09479 84.104 0.734435L83.9607 0.594894ZM83.3813 2.00919H83.1813C83.1813 2.60696 83.3946 3.12892 83.8174 3.56302L83.9607 3.42348L84.104 3.28394C83.753 2.92358 83.5813 2.5014 83.5813 2.00919H83.3813ZM83.9607 3.42348L83.817 3.56267C84.2403 3.99944 84.7651 4.21837 85.3767 4.21837V4.01837V3.81837C84.8715 3.81837 84.4509 3.64199 84.1043 3.2843L83.9607 3.42348ZM85.3767 4.01837V4.21837C85.9911 4.21837 86.49 3.9974 86.9131 3.56302L86.7698 3.42348L86.6265 3.28394C86.2758 3.64402 85.879 3.81837 85.3767 3.81837V4.01837ZM86.7698 3.42348L86.9134 3.56267C87.3337 3.12904 87.5491 2.60739 87.5491 2.00919H87.3491H87.1491C87.1491 2.50097 86.9759 2.92347 86.6262 3.2843L86.7698 3.42348ZM87.3491 2.00919H87.5491C87.5491 1.41141 87.3359 0.889456 86.9131 0.455353L86.7698 0.594894L86.6265 0.734435C86.9775 1.09479 87.1491 1.51698 87.1491 2.00919H87.3491ZM86.7698 0.594894L86.9131 0.455353C86.4894 0.0203485 85.975 -0.2 85.3767 -0.2V0V0.2C85.8646 0.2 86.2764 0.374977 86.6265 0.734435L86.7698 0.594894ZM86.9032 6.57446V6.37446H83.8235V6.57446V6.77446H86.9032V6.57446ZM83.8235 6.57446H83.6235V19.353H83.8235H84.0235V6.57446H83.8235ZM83.8235 19.353V19.553H86.9032V19.353V19.153H83.8235V19.353ZM86.9032 19.353H87.1032V6.57446H86.9032H86.7032V19.353H86.9032ZM123.81 12.5291H124.01C124.01 11.5582 124.282 10.8344 124.8 10.3269L124.66 10.1841L124.52 10.0412C123.906 10.6429 123.61 11.4812 123.61 12.5291H123.81ZM124.66 10.1841L124.8 10.3269C125.323 9.81433 126.006 9.55317 126.865 9.55317V9.35317V9.15317C125.918 9.15317 125.129 9.44466 124.52 10.0412L124.66 10.1841ZM126.865 9.35317V9.55317C127.724 9.55317 128.407 9.81433 128.93 10.3269L129.07 10.1841L129.21 10.0412C128.601 9.44465 127.813 9.15317 126.865 9.15317V9.35317ZM129.07 10.1841L128.93 10.3269C129.448 10.8344 129.72 11.5582 129.72 12.5291H129.92H130.12C130.12 11.4812 129.824 10.6429 129.21 10.0412L129.07 10.1841ZM129.92 12.5291H129.72V19.353H129.92H130.12V12.5291H129.92ZM129.92 19.353V19.553H133V19.353V19.153H129.92V19.353ZM133 19.353H133.2V12.4562H133H132.8V19.353H133ZM133 12.4562H133.2C133.2 10.5118 132.614 8.95833 131.425 7.8212L131.287 7.96573L131.148 8.11026C132.243 9.15693 132.8 10.5971 132.8 12.4562H133ZM131.287 7.96573L131.425 7.8212C130.241 6.68846 128.713 6.12884 126.863 6.12884V6.32884V6.52884C128.627 6.52884 130.05 7.05919 131.148 8.11026L131.287 7.96573ZM126.863 6.32884V6.12884C125.014 6.12884 123.465 6.68794 122.29 7.82178L122.429 7.96573L122.568 8.10968C123.656 7.05971 125.099 6.52884 126.863 6.52884V6.32884ZM122.429 7.96573L122.29 7.82166C121.109 8.95899 120.529 10.5123 120.529 12.4562H120.729H120.929C120.929 10.5966 121.481 9.15628 122.567 8.10979L122.429 7.96573ZM120.729 12.4562H120.529V19.353H120.729H120.929V12.4562H120.729ZM120.729 19.353V19.553H123.808V19.353V19.153H120.729V19.353ZM123.808 19.353L124.008 19.3531L124.01 12.5291L123.81 12.5291L123.61 12.529L123.608 19.353L123.808 19.353ZM115.444 15.0487L115.273 14.9449C114.597 16.0586 113.379 16.7984 111.995 16.7984V16.9984V17.1984C113.526 17.1984 114.87 16.38 115.615 15.1525L115.444 15.0487ZM111.995 16.9984V16.7984C111.232 16.7984 110.419 16.527 109.714 16.0838C109.009 15.6405 108.43 15.0357 108.124 14.3876L107.943 14.473L107.762 14.5585C108.108 15.2901 108.747 15.948 109.501 16.4224C110.256 16.897 111.142 17.1984 111.995 17.1984V16.9984ZM107.943 14.473L107.796 14.3378L105.995 16.299L106.142 16.4342L106.289 16.5695L108.09 14.6083L107.943 14.473ZM106.142 16.4342L105.978 16.5482C107.332 18.5009 109.428 19.9829 111.995 19.9829V19.7829V19.5829C109.595 19.5829 107.609 18.1979 106.306 16.3202L106.142 16.4342ZM111.995 19.7829V19.9829C115.103 19.9829 117.745 17.9356 118.661 15.1104L118.47 15.0487L118.28 14.9871C117.416 17.654 114.923 19.5829 111.995 19.5829V19.7829ZM118.47 15.0487V14.8487H115.444V15.0487V15.2487H118.47V15.0487ZM76.9017 2.10898V1.90898H73.822V2.10898V2.30898H76.9017V2.10898ZM73.822 2.10898H73.622V14.5651H73.822H74.022V2.10898H73.822ZM73.822 14.5651H73.622C73.622 16.2329 74.0396 17.5264 74.9114 18.4022L75.0531 18.2611L75.1948 18.12C74.4238 17.3455 74.022 16.1711 74.022 14.5651H73.822ZM75.0531 18.2611L74.9112 18.402C75.7808 19.2777 77.0125 19.7008 78.5769 19.7008V19.5008V19.3008C77.0844 19.3008 75.9682 18.8987 75.195 18.1202L75.0531 18.2611ZM78.5769 19.5008V19.7008C79.6694 19.7008 80.6813 19.6331 81.6104 19.5011L81.5823 19.3031L81.5541 19.1051C80.6461 19.2341 79.6531 19.3008 78.5769 19.3008V19.5008ZM81.5823 19.3031H81.7823V16.3248H81.5823H81.3823V19.3031H81.5823ZM81.5823 16.3248L81.5545 16.1268C80.7415 16.2407 79.9466 16.2995 79.1677 16.2995V16.4995V16.6995C79.9667 16.6995 80.7803 16.6392 81.61 16.5229L81.5823 16.3248ZM79.1677 16.4995V16.2995C78.3977 16.2995 77.85 16.1234 77.5616 15.8266L77.4182 15.966L77.2747 16.1054C77.6762 16.5186 78.3596 16.6995 79.1677 16.6995V16.4995ZM77.4182 15.966L77.5616 15.8266C77.2688 15.5253 77.0998 15.0213 77.0998 14.2658H76.8998H76.6998C76.6998 15.0685 76.8776 15.6967 77.2747 16.1054L77.4182 15.966ZM76.8998 14.2658L77.0998 14.2658L77.1005 9.64105L76.9005 9.64102L76.7005 9.64098L76.6998 14.2657L76.8998 14.2658ZM76.9005 9.64102V9.84101H81.5613V9.64102V9.44102H76.9005V9.64102ZM81.5613 9.64102H81.7613V6.58597H81.5613H81.3613V9.64102H81.5613ZM81.5613 6.58597V6.38597H76.901V6.58597V6.78597H81.5613V6.58597ZM76.901 6.58597L77.101 6.58601L77.1017 2.10901L76.9017 2.10898L76.7017 2.10895L76.701 6.58594L76.901 6.58597ZM98.2387 19.2916L98.294 19.4838C98.5392 19.4133 98.7738 19.3351 99.0046 19.2538L98.9381 19.0652L98.8717 18.8765C98.6451 18.9564 98.4184 19.0318 98.1834 19.0994L98.2387 19.2916ZM98.9381 19.0652H98.7382V19.9325H98.9381H99.1381V19.0652H98.9381ZM98.9381 19.9325H98.7382C98.7382 20.8179 98.4692 21.4847 97.9515 21.9571L98.0863 22.1048L98.2211 22.2526C98.8391 21.6887 99.1381 20.9047 99.1381 19.9325H98.9381ZM98.0863 22.1048L97.9515 21.9571C97.4281 22.4345 96.7272 22.682 95.826 22.682V22.882V23.082C96.8039 23.082 97.6086 22.8114 98.2211 22.2526L98.0863 22.1048ZM95.826 22.882V22.682C95.1891 22.682 94.6557 22.5412 94.2167 22.2672L94.1108 22.4368L94.0049 22.6065C94.5188 22.9273 95.1289 23.082 95.826 23.082V22.882ZM94.1108 22.4368L94.2167 22.2672C93.7752 21.9915 93.467 21.6237 93.2871 21.1628L93.1008 21.2355L92.9145 21.3083C93.1271 21.8529 93.4935 22.2872 94.0049 22.6065L94.1108 22.4368ZM93.1008 21.2355V21.0355H90.0344V21.2355V21.4355H93.1008V21.2355ZM90.0344 21.2355L89.8408 21.2859C90.1999 22.6668 90.9057 23.7587 91.9589 24.552L92.0793 24.3923L92.1996 24.2325C91.2251 23.4984 90.5664 22.487 90.228 21.1852L90.0344 21.2355ZM92.0793 24.3923L91.9593 24.5523C93.0152 25.3442 94.3075 25.736 95.8279 25.736V25.536V25.336C94.3792 25.336 93.1749 24.964 92.1993 24.2323L92.0793 24.3923ZM95.8279 25.536V25.736C97.64 25.736 99.1263 25.2228 100.268 24.1853L100.133 24.0373L99.9985 23.8893C98.9444 24.8475 97.5606 25.336 95.8279 25.336V25.536ZM100.133 24.0373L100.268 24.1851C101.414 23.1409 101.98 21.715 101.98 19.9306H101.78H101.58C101.58 21.6235 101.047 22.934 99.9984 23.8894L100.133 24.0373ZM101.78 19.9306H101.98V17.578H101.78H101.58V19.9306H101.78ZM101.78 17.578L101.895 17.7417C103.847 16.3715 105.311 14.5742 106.614 12.975L106.459 12.8486L106.304 12.7222C104.996 14.327 103.565 16.0807 101.665 17.4143L101.78 17.578ZM106.459 12.8486L106.614 12.975C107.38 12.0365 108.086 11.1705 108.809 10.4825L108.671 10.3376L108.533 10.1927C107.788 10.9016 107.065 11.7889 106.304 12.7222L106.459 12.8486ZM108.671 10.3376L108.809 10.4826C108.942 10.3559 109.076 10.2341 109.209 10.1224L109.081 9.96915L108.952 9.81595C108.811 9.93448 108.67 10.0621 108.533 10.1926L108.671 10.3376ZM109.081 9.96915L109.221 10.1115C109.669 9.66948 110.207 9.34857 110.792 9.16815L110.733 8.97704L110.674 8.78593C110.027 8.98547 109.434 9.34004 108.94 9.82678L109.081 9.96915ZM110.733 8.97704L110.799 9.16588C111.168 9.03704 111.555 8.97009 111.965 8.97553L111.968 8.77555L111.97 8.57557C111.512 8.56949 111.079 8.64454 110.667 8.78819L110.733 8.97704ZM111.968 8.77555L111.964 8.97551C112.15 8.97915 112.37 8.99733 112.615 9.04814L112.656 8.8523L112.696 8.65646C112.423 8.59981 112.178 8.57962 111.972 8.57559L111.968 8.77555ZM112.656 8.8523L112.621 9.04933C113.375 9.1807 114.057 9.52925 114.598 10.0279L114.733 9.88089L114.869 9.73388C114.273 9.18476 113.522 8.80024 112.69 8.65527L112.656 8.8523ZM114.733 9.88089L114.598 10.0279C115.027 10.4242 115.37 10.9191 115.588 11.472L115.774 11.3988L115.96 11.3256C115.72 10.7156 115.342 10.1704 114.869 9.73385L114.733 9.88089ZM115.774 11.3988V11.1988H108.572V11.3988V11.5988H115.774V11.3988ZM108.572 11.3988H108.372V13.857H108.572H108.772V11.3988H108.572ZM108.572 13.857L108.571 14.057L118.601 14.0781L118.602 13.8781L118.602 13.6781L108.572 13.657L108.572 13.857ZM118.602 13.8781L118.8 13.9066C118.847 13.579 118.872 13.2413 118.872 12.8995H118.672H118.472C118.472 13.2215 118.448 13.5402 118.404 13.8497L118.602 13.8781ZM118.672 12.8995H118.872C118.872 10.1266 117.239 7.73197 114.885 6.62565L114.8 6.80666L114.715 6.98767C116.934 8.03062 118.472 10.2876 118.472 12.8995H118.672ZM114.8 6.80666L114.885 6.62567C113.997 6.20801 113.002 5.94961 111.95 5.97345L111.954 6.1734L111.959 6.37335C112.939 6.35114 113.873 6.59166 114.715 6.98765L114.8 6.80666ZM111.954 6.1734L111.95 5.97345C110.827 5.99782 109.996 6.18559 109.333 6.44572C108.67 6.70529 108.182 7.03432 107.749 7.32551L107.86 7.49149L107.972 7.65747C108.405 7.36613 108.861 7.06002 109.479 6.81813C110.094 6.57681 110.878 6.3968 111.959 6.37335L111.954 6.1734ZM107.86 7.49149L107.749 7.32543L107.637 7.40053L107.748 7.56659L107.86 7.73264L107.972 7.65755L107.86 7.49149ZM107.748 7.56659L107.639 7.39918C107.457 7.5183 107.087 7.85833 106.729 8.20223C106.364 8.55289 105.991 8.92874 105.793 9.13663L105.938 9.27448L106.083 9.41233C106.276 9.20956 106.645 8.83797 107.006 8.49059C107.374 8.13647 107.714 7.82789 107.858 7.734L107.748 7.56659ZM105.938 9.27448L105.791 9.13897C105.175 9.80791 104.584 10.5322 103.995 11.2551L104.15 11.3815L104.305 11.5078C104.896 10.7831 105.478 10.0685 106.085 9.41L105.938 9.27448ZM104.15 11.3815L103.995 11.2551C101.932 13.7863 99.8849 16.2841 96.6335 16.7293L96.6607 16.9274L96.6878 17.1256C100.121 16.6555 102.264 14.0126 104.305 11.5078L104.15 11.3815ZM96.6607 16.9274L96.6298 16.7298L96.6109 16.7328L96.6417 16.9304L96.6726 17.128L96.6915 17.125L96.6607 16.9274ZM96.6417 16.9304L96.6104 16.7328C96.4942 16.7513 95.9629 16.8349 95.7002 16.8349V17.0349V17.2349C96.002 17.2349 96.5702 17.1442 96.673 17.1279L96.6417 16.9304ZM95.7002 17.0349V16.8349C95.4768 16.8349 95.2594 16.8166 95.0458 16.7802L95.0122 16.9773L94.9785 17.1745C95.2148 17.2148 95.4548 17.2349 95.7002 17.2349V17.0349ZM95.0122 16.9773L95.0449 16.78C94.9027 16.7564 94.7618 16.7237 94.6241 16.6836L94.5681 16.8756L94.5122 17.0676C94.6641 17.1119 94.8205 17.1483 94.9795 17.1746L95.0122 16.9773ZM94.5681 16.8756L94.6236 16.6834C92.9919 16.2125 91.7951 14.7003 91.7951 12.9148H91.5951H91.3951C91.3951 14.8828 92.714 16.5485 94.5127 17.0678L94.5681 16.8756ZM91.5951 12.9148H91.7951C91.7951 10.7524 93.5474 8.99281 95.7002 8.99281V8.79281V8.59281C93.3248 8.59281 91.3951 10.5331 91.3951 12.9148H91.5951ZM95.7002 8.79281L95.7042 8.99277C97.4569 8.95788 98.5565 9.8075 99.2253 10.6725C99.5611 11.1067 99.7873 11.5442 99.9294 11.8735C100 12.0378 100.05 12.1745 100.082 12.2693C100.098 12.3167 100.109 12.3535 100.116 12.3781C100.12 12.3904 100.123 12.3996 100.124 12.4054C100.125 12.4084 100.126 12.4105 100.126 12.4118C100.126 12.4124 100.126 12.4128 100.126 12.413C100.126 12.4131 100.126 12.4132 100.126 12.4131C100.126 12.4131 100.126 12.4131 100.126 12.4131C100.126 12.413 100.126 12.413 100.32 12.3621C100.513 12.3113 100.513 12.3112 100.513 12.3111C100.513 12.3111 100.513 12.3109 100.513 12.3108C100.513 12.3106 100.513 12.3103 100.513 12.3099C100.513 12.3093 100.512 12.3084 100.512 12.3072C100.512 12.305 100.511 12.3019 100.51 12.298C100.507 12.2901 100.504 12.2788 100.5 12.2644C100.491 12.2357 100.479 12.1943 100.461 12.1423C100.426 12.0382 100.373 11.8908 100.297 11.7149C100.145 11.3636 99.9031 10.895 99.5418 10.4278C98.8165 9.48987 97.6064 8.55482 95.6962 8.59285L95.7002 8.79281ZM100.32 12.3621L100.462 12.5031L102.177 10.776L102.035 10.6351L101.893 10.4941L100.178 12.2212L100.32 12.3621ZM102.035 10.6351L102.232 10.6024C102.128 9.9742 101.577 8.83311 100.523 7.84433C99.461 6.84837 97.8792 5.99709 95.7063 5.97149L95.704 6.17148L95.7016 6.37146C97.7634 6.39576 99.2518 7.20057 100.249 8.13608C101.254 9.07876 101.751 10.1445 101.838 10.6677L102.035 10.6351ZM95.704 6.17148V5.97148C91.8881 5.97148 88.7861 9.08403 88.7861 12.911H88.9861H89.1861C89.1861 9.30374 92.1102 6.37148 95.704 6.37148V6.17148ZM88.9861 12.911H88.7861C88.7861 16.7379 91.8881 19.8505 95.704 19.8505V19.6505V19.4505C92.1102 19.4505 89.1861 16.5182 89.1861 12.911H88.9861ZM95.704 19.6505V19.8505C95.887 19.8505 96.0675 19.8425 96.2472 19.8288L96.2319 19.6294L96.2166 19.4299C96.0456 19.443 95.8754 19.4505 95.704 19.4505V19.6505ZM96.2319 19.6294C96.2502 19.8285 96.2502 19.8285 96.2503 19.8285C96.2503 19.8285 96.2503 19.8285 96.2503 19.8285C96.2504 19.8285 96.2505 19.8285 96.2505 19.8285C96.2507 19.8285 96.251 19.8284 96.2513 19.8284C96.252 19.8284 96.2529 19.8283 96.2542 19.8281C96.2567 19.8279 96.2603 19.8276 96.265 19.8271C96.2745 19.8262 96.2884 19.8248 96.3062 19.823C96.342 19.8195 96.3937 19.8141 96.4581 19.8069C96.5869 19.7927 96.7668 19.7713 96.9713 19.7428C97.3778 19.6861 97.8911 19.6001 98.2941 19.4838L98.2387 19.2916L98.1832 19.0995C97.8087 19.2076 97.3186 19.2905 96.9161 19.3466C96.7161 19.3745 96.54 19.3954 96.4141 19.4094C96.3511 19.4164 96.3007 19.4216 96.2662 19.4251C96.2489 19.4268 96.2356 19.4281 96.2267 19.4289C96.2223 19.4294 96.2189 19.4297 96.2167 19.4299C96.2156 19.43 96.2148 19.4301 96.2142 19.4301C96.214 19.4302 96.2138 19.4302 96.2137 19.4302C96.2136 19.4302 96.2136 19.4302 96.2135 19.4302C96.2135 19.4302 96.2135 19.4302 96.2135 19.4302C96.2135 19.4302 96.2135 19.4302 96.2319 19.6294Z" fill="white" mask="url(#path-1-inside-1_443_892)"/>
</svg>
