    <svg width="1162" height="244" viewBox="0 0 1162 244" fill="none" xmlns="http://www.w3.org/2000/svg">
                                <path
                                    d="M236.746 90.08C233.026 90.08 229.666 89.444 226.666 88.172C223.69 86.876 221.23 85.04 219.286 82.664C217.366 80.264 216.118 77.42 215.542 74.132L223.39 72.944C224.182 76.112 225.838 78.584 228.358 80.36C230.878 82.112 233.818 82.988 237.178 82.988C239.266 82.988 241.186 82.664 242.938 82.016C244.69 81.344 246.094 80.396 247.15 79.172C248.23 77.924 248.77 76.436 248.77 74.708C248.77 73.772 248.602 72.944 248.266 72.224C247.954 71.504 247.51 70.88 246.934 70.352C246.382 69.8 245.698 69.332 244.882 68.948C244.09 68.54 243.214 68.192 242.254 67.904L228.97 63.98C227.674 63.596 226.354 63.104 225.01 62.504C223.666 61.88 222.43 61.076 221.302 60.092C220.198 59.084 219.298 57.848 218.602 56.384C217.906 54.896 217.558 53.096 217.558 50.984C217.558 47.792 218.374 45.092 220.006 42.884C221.662 40.652 223.894 38.972 226.702 37.844C229.51 36.692 232.654 36.116 236.134 36.116C239.638 36.164 242.77 36.788 245.53 37.988C248.314 39.188 250.618 40.916 252.442 43.172C254.29 45.404 255.562 48.116 256.258 51.308L248.194 52.676C247.834 50.732 247.066 49.064 245.89 47.672C244.714 46.256 243.274 45.176 241.57 44.432C239.866 43.664 238.018 43.268 236.026 43.244C234.106 43.196 232.342 43.484 230.734 44.108C229.15 44.732 227.878 45.608 226.918 46.736C225.982 47.864 225.514 49.16 225.514 50.624C225.514 52.064 225.934 53.228 226.774 54.116C227.614 55.004 228.646 55.712 229.87 56.24C231.118 56.744 232.354 57.164 233.578 57.5L243.154 60.2C244.354 60.536 245.71 60.992 247.222 61.568C248.758 62.12 250.234 62.9 251.65 63.908C253.09 64.916 254.278 66.26 255.214 67.94C256.15 69.596 256.618 71.684 256.618 74.204C256.618 76.82 256.09 79.124 255.034 81.116C253.978 83.084 252.526 84.74 250.678 86.084C248.854 87.404 246.742 88.4 244.342 89.072C241.942 89.744 239.41 90.08 236.746 90.08ZM291.578 89V69.884C291.578 68.372 291.446 66.824 291.182 65.24C290.942 63.632 290.462 62.144 289.742 60.776C289.046 59.408 288.05 58.304 286.754 57.464C285.482 56.624 283.814 56.204 281.75 56.204C280.406 56.204 279.134 56.432 277.934 56.888C276.734 57.32 275.678 58.028 274.766 59.012C273.878 59.996 273.17 61.292 272.642 62.9C272.138 64.508 271.886 66.464 271.886 68.768L267.206 67.004C267.206 63.476 267.866 60.368 269.186 57.68C270.506 54.968 272.402 52.856 274.874 51.344C277.346 49.832 280.334 49.076 283.838 49.076C286.526 49.076 288.782 49.508 290.606 50.372C292.43 51.236 293.906 52.376 295.034 53.792C296.186 55.184 297.062 56.708 297.662 58.364C298.262 60.02 298.67 61.64 298.886 63.224C299.102 64.808 299.21 66.2 299.21 67.4V89H291.578ZM264.254 89V37.16H270.986V65.132H271.886V89H264.254ZM319.567 90.08C316.687 90.08 314.275 89.552 312.331 88.496C310.387 87.416 308.911 86 307.903 84.248C306.919 82.472 306.427 80.528 306.427 78.416C306.427 76.448 306.775 74.72 307.471 73.232C308.167 71.744 309.199 70.484 310.567 69.452C311.935 68.396 313.615 67.544 315.607 66.896C317.335 66.392 319.291 65.948 321.475 65.564C323.659 65.18 325.951 64.82 328.351 64.484C330.775 64.148 333.175 63.812 335.551 63.476L332.815 64.988C332.863 61.94 332.215 59.684 330.871 58.22C329.551 56.732 327.271 55.988 324.031 55.988C321.991 55.988 320.119 56.468 318.415 57.428C316.711 58.364 315.523 59.924 314.851 62.108L307.831 59.948C308.791 56.612 310.615 53.96 313.303 51.992C316.015 50.024 319.615 49.04 324.103 49.04C327.583 49.04 330.607 49.64 333.175 50.84C335.767 52.016 337.663 53.888 338.863 56.456C339.487 57.728 339.871 59.072 340.015 60.488C340.159 61.904 340.231 63.428 340.231 65.06V89H333.571V80.108L334.867 81.26C333.259 84.236 331.207 86.456 328.711 87.92C326.239 89.36 323.191 90.08 319.567 90.08ZM320.899 83.924C323.035 83.924 324.871 83.552 326.407 82.808C327.943 82.04 329.179 81.068 330.115 79.892C331.051 78.716 331.663 77.492 331.951 76.22C332.359 75.068 332.587 73.772 332.635 72.332C332.707 70.892 332.743 69.74 332.743 68.876L335.191 69.776C332.815 70.136 330.655 70.46 328.711 70.748C326.767 71.036 325.003 71.324 323.419 71.612C321.859 71.876 320.467 72.2 319.243 72.584C318.211 72.944 317.287 73.376 316.471 73.88C315.679 74.384 315.043 74.996 314.563 75.716C314.107 76.436 313.879 77.312 313.879 78.344C313.879 79.352 314.131 80.288 314.635 81.152C315.139 81.992 315.907 82.664 316.939 83.168C317.971 83.672 319.291 83.924 320.899 83.924ZM367.831 90.08C364.111 90.08 360.991 89.18 358.471 87.38C355.951 85.556 354.043 83.096 352.747 80C351.451 76.904 350.803 73.412 350.803 69.524C350.803 65.636 351.439 62.144 352.711 59.048C354.007 55.952 355.903 53.516 358.399 51.74C360.919 49.94 364.015 49.04 367.687 49.04C371.335 49.04 374.479 49.94 377.119 51.74C379.783 53.516 381.835 55.952 383.275 59.048C384.715 62.12 385.435 65.612 385.435 69.524C385.435 73.412 384.715 76.916 383.275 80.036C381.859 83.132 379.831 85.58 377.191 87.38C374.575 89.18 371.455 90.08 367.831 90.08ZM349.543 106.28V50.12H356.239V78.092H357.103V106.28H349.543ZM366.787 83.276C369.187 83.276 371.167 82.664 372.727 81.44C374.311 80.216 375.487 78.572 376.255 76.508C377.047 74.42 377.443 72.092 377.443 69.524C377.443 66.98 377.047 64.676 376.255 62.612C375.487 60.548 374.299 58.904 372.691 57.68C371.083 56.456 369.031 55.844 366.535 55.844C364.183 55.844 362.239 56.42 360.703 57.572C359.191 58.724 358.063 60.332 357.319 62.396C356.599 64.46 356.239 66.836 356.239 69.524C356.239 72.212 356.599 74.588 357.319 76.652C358.039 78.716 359.179 80.336 360.739 81.512C362.299 82.688 364.315 83.276 366.787 83.276ZM394.104 43.748V36.44H401.628V43.748H394.104ZM394.104 89V50.12H401.628V89H394.104ZM439.726 89V69.884C439.726 68.372 439.594 66.824 439.33 65.24C439.09 63.632 438.61 62.144 437.89 60.776C437.194 59.408 436.198 58.304 434.902 57.464C433.63 56.624 431.962 56.204 429.898 56.204C428.554 56.204 427.282 56.432 426.082 56.888C424.882 57.32 423.826 58.028 422.914 59.012C422.026 59.996 421.318 61.292 420.79 62.9C420.286 64.508 420.034 66.464 420.034 68.768L415.354 67.004C415.354 63.476 416.014 60.368 417.334 57.68C418.654 54.968 420.55 52.856 423.022 51.344C425.494 49.832 428.482 49.076 431.986 49.076C434.674 49.076 436.93 49.508 438.754 50.372C440.578 51.236 442.054 52.376 443.182 53.792C444.334 55.184 445.21 56.708 445.81 58.364C446.41 60.02 446.818 61.64 447.034 63.224C447.25 64.808 447.358 66.2 447.358 67.4V89H439.726ZM412.402 89V50.12H419.134V61.352H420.034V89H412.402ZM472.755 107.36C470.667 107.36 468.639 107.036 466.671 106.388C464.727 105.74 462.951 104.78 461.343 103.508C459.735 102.26 458.403 100.712 457.347 98.864L464.295 95.336C465.135 96.992 466.335 98.204 467.895 98.972C469.455 99.74 471.099 100.124 472.827 100.124C474.963 100.124 476.787 99.74 478.299 98.972C479.811 98.228 480.951 97.1 481.719 95.588C482.511 94.076 482.895 92.204 482.871 89.972V79.1H483.771V50.12H490.431V90.044C490.431 91.076 490.395 92.06 490.323 92.996C490.251 93.932 490.119 94.868 489.927 95.804C489.375 98.42 488.319 100.58 486.759 102.284C485.223 103.988 483.255 105.26 480.855 106.1C478.479 106.94 475.779 107.36 472.755 107.36ZM472.179 90.08C468.555 90.08 465.423 89.18 462.783 87.38C460.167 85.58 458.139 83.132 456.699 80.036C455.283 76.916 454.575 73.412 454.575 69.524C454.575 65.612 455.295 62.12 456.735 59.048C458.175 55.952 460.215 53.516 462.855 51.74C465.519 49.94 468.675 49.04 472.323 49.04C475.995 49.04 479.079 49.94 481.575 51.74C484.095 53.516 485.991 55.952 487.263 59.048C488.559 62.144 489.207 65.636 489.207 69.524C489.207 73.412 488.559 76.904 487.263 80C485.967 83.096 484.059 85.556 481.539 87.38C479.019 89.18 475.899 90.08 472.179 90.08ZM473.223 83.276C475.695 83.276 477.711 82.688 479.271 81.512C480.831 80.336 481.971 78.716 482.691 76.652C483.411 74.588 483.771 72.212 483.771 69.524C483.771 66.836 483.399 64.46 482.655 62.396C481.935 60.332 480.807 58.724 479.271 57.572C477.759 56.42 475.827 55.844 473.475 55.844C470.979 55.844 468.927 56.456 467.319 57.68C465.711 58.904 464.511 60.548 463.719 62.612C462.951 64.676 462.567 66.98 462.567 69.524C462.567 72.092 462.951 74.42 463.719 76.508C464.511 78.572 465.687 80.216 467.247 81.44C468.831 82.664 470.823 83.276 473.223 83.276ZM537.202 89C534.754 89.48 532.354 89.684 530.002 89.612C527.65 89.54 525.55 89.084 523.702 88.244C521.854 87.404 520.462 86.084 519.526 84.284C518.686 82.676 518.23 81.044 518.158 79.388C518.11 77.708 518.086 75.812 518.086 73.7V39.32H525.646V73.34C525.646 74.9 525.658 76.256 525.682 77.408C525.73 78.56 525.982 79.532 526.438 80.324C527.302 81.812 528.67 82.664 530.542 82.88C532.438 83.072 534.658 82.988 537.202 82.628V89ZM510.634 56.168V50.12H537.202V56.168H510.634ZM572.687 89V69.884C572.687 68.372 572.555 66.824 572.291 65.24C572.051 63.632 571.571 62.144 570.851 60.776C570.155 59.408 569.159 58.304 567.863 57.464C566.591 56.624 564.923 56.204 562.859 56.204C561.515 56.204 560.243 56.432 559.043 56.888C557.843 57.32 556.787 58.028 555.875 59.012C554.987 59.996 554.279 61.292 553.751 62.9C553.247 64.508 552.995 66.464 552.995 68.768L548.315 67.004C548.315 63.476 548.975 60.368 550.295 57.68C551.615 54.968 553.511 52.856 555.983 51.344C558.455 49.832 561.443 49.076 564.947 49.076C567.635 49.076 569.891 49.508 571.715 50.372C573.539 51.236 575.015 52.376 576.143 53.792C577.295 55.184 578.171 56.708 578.771 58.364C579.371 60.02 579.779 61.64 579.995 63.224C580.211 64.808 580.319 66.2 580.319 67.4V89H572.687ZM545.363 89V37.16H552.095V65.132H552.995V89H545.363ZM606.94 90.08C603.076 90.08 599.68 89.24 596.752 87.56C593.848 85.856 591.58 83.492 589.948 80.468C588.34 77.42 587.536 73.892 587.536 69.884C587.536 65.636 588.328 61.952 589.912 58.832C591.52 55.712 593.752 53.3 596.608 51.596C599.464 49.892 602.788 49.04 606.58 49.04C610.54 49.04 613.912 49.964 616.696 51.812C619.48 53.636 621.556 56.24 622.924 59.624C624.316 63.008 624.868 67.028 624.58 71.684H617.056V68.948C617.008 64.436 616.144 61.1 614.464 58.94C612.808 56.78 610.276 55.7 606.868 55.7C603.1 55.7 600.268 56.888 598.372 59.264C596.476 61.64 595.528 65.072 595.528 69.56C595.528 73.832 596.476 77.144 598.372 79.496C600.268 81.824 603.004 82.988 606.58 82.988C608.932 82.988 610.96 82.46 612.664 81.404C614.392 80.324 615.736 78.788 616.696 76.796L624.076 79.136C622.564 82.616 620.272 85.316 617.2 87.236C614.128 89.132 610.708 90.08 606.94 90.08ZM593.08 71.684V65.816H620.836V71.684H593.08ZM877.034 90.08C873.314 90.08 870.194 89.18 867.674 87.38C865.154 85.556 863.246 83.096 861.95 80C860.654 76.904 860.006 73.412 860.006 69.524C860.006 65.636 860.642 62.144 861.914 59.048C863.21 55.952 865.106 53.516 867.602 51.74C870.122 49.94 873.218 49.04 876.89 49.04C880.538 49.04 883.682 49.94 886.322 51.74C888.986 53.516 891.038 55.952 892.478 59.048C893.918 62.12 894.638 65.612 894.638 69.524C894.638 73.412 893.918 76.916 892.478 80.036C891.062 83.132 889.034 85.58 886.394 87.38C883.778 89.18 880.658 90.08 877.034 90.08ZM858.746 89V37.16H866.306V61.028H865.442V89H858.746ZM875.99 83.276C878.39 83.276 880.37 82.664 881.93 81.44C883.514 80.216 884.69 78.572 885.458 76.508C886.25 74.42 886.646 72.092 886.646 69.524C886.646 66.98 886.25 64.676 885.458 62.612C884.69 60.548 883.502 58.904 881.894 57.68C880.286 56.456 878.234 55.844 875.738 55.844C873.386 55.844 871.442 56.42 869.906 57.572C868.394 58.724 867.266 60.332 866.522 62.396C865.802 64.46 865.442 66.836 865.442 69.524C865.442 72.212 865.802 74.588 866.522 76.652C867.242 78.716 868.382 80.336 869.942 81.512C871.502 82.688 873.518 83.276 875.99 83.276ZM905.452 106.28L912.976 85.796L913.084 91.844L896.128 50.12H903.976L916.648 82.34H914.344L926.44 50.12H934.072L912.616 106.28H905.452ZM254.835 211L254.871 186.772C254.871 183.964 254.151 181.78 252.711 180.22C251.271 178.636 249.375 177.844 247.023 177.844C245.583 177.844 244.263 178.18 243.063 178.852C241.887 179.5 240.927 180.484 240.183 181.804C239.463 183.1 239.103 184.732 239.103 186.7L235.467 184.864C235.419 182.128 235.995 179.728 237.195 177.664C238.419 175.6 240.075 174.004 242.163 172.876C244.251 171.724 246.591 171.148 249.183 171.148C253.383 171.148 256.635 172.408 258.939 174.928C261.243 177.448 262.395 180.796 262.395 184.972L262.359 211H254.835ZM208.215 211V172.12H214.911V183.352H215.775V211H208.215ZM231.543 211L231.579 186.916C231.579 184.084 230.859 181.864 229.419 180.256C228.003 178.648 226.095 177.844 223.695 177.844C221.319 177.844 219.399 178.66 217.935 180.292C216.495 181.924 215.775 184.06 215.775 186.7L212.175 184.396C212.175 181.852 212.787 179.584 214.011 177.592C215.235 175.6 216.891 174.028 218.979 172.876C221.067 171.724 223.431 171.148 226.071 171.148C228.831 171.148 231.183 171.736 233.127 172.912C235.071 174.064 236.547 175.684 237.555 177.772C238.587 179.86 239.103 182.284 239.103 185.044L239.067 211H231.543ZM282.723 212.08C279.843 212.08 277.431 211.552 275.487 210.496C273.543 209.416 272.067 208 271.059 206.248C270.075 204.472 269.583 202.528 269.583 200.416C269.583 198.448 269.931 196.72 270.627 195.232C271.323 193.744 272.355 192.484 273.723 191.452C275.091 190.396 276.771 189.544 278.763 188.896C280.491 188.392 282.447 187.948 284.631 187.564C286.815 187.18 289.107 186.82 291.507 186.484C293.931 186.148 296.331 185.812 298.707 185.476L295.971 186.988C296.019 183.94 295.371 181.684 294.027 180.22C292.707 178.732 290.427 177.988 287.187 177.988C285.147 177.988 283.275 178.468 281.571 179.428C279.867 180.364 278.679 181.924 278.007 184.108L270.987 181.948C271.947 178.612 273.771 175.96 276.459 173.992C279.171 172.024 282.771 171.04 287.259 171.04C290.739 171.04 293.763 171.64 296.331 172.84C298.923 174.016 300.819 175.888 302.019 178.456C302.643 179.728 303.027 181.072 303.171 182.488C303.315 183.904 303.387 185.428 303.387 187.06V211H296.727V202.108L298.023 203.26C296.415 206.236 294.363 208.456 291.867 209.92C289.395 211.36 286.347 212.08 282.723 212.08ZM284.055 205.924C286.191 205.924 288.027 205.552 289.563 204.808C291.099 204.04 292.335 203.068 293.271 201.892C294.207 200.716 294.819 199.492 295.107 198.22C295.515 197.068 295.743 195.772 295.791 194.332C295.863 192.892 295.899 191.74 295.899 190.876L298.347 191.776C295.971 192.136 293.811 192.46 291.867 192.748C289.923 193.036 288.159 193.324 286.575 193.612C285.015 193.876 283.623 194.2 282.399 194.584C281.367 194.944 280.443 195.376 279.627 195.88C278.835 196.384 278.199 196.996 277.719 197.716C277.263 198.436 277.035 199.312 277.035 200.344C277.035 201.352 277.287 202.288 277.791 203.152C278.295 203.992 279.063 204.664 280.095 205.168C281.127 205.672 282.447 205.924 284.055 205.924ZM312.699 211L312.735 159.16H320.367V190.84L335.631 172.12H345.207L329.079 191.56L346.863 211H336.639L320.367 192.28V211H312.699ZM351.213 165.748V158.44H358.737V165.748H351.213ZM351.213 211V172.12H358.737V211H351.213ZM396.836 211V191.884C396.836 190.372 396.704 188.824 396.44 187.24C396.2 185.632 395.72 184.144 395 182.776C394.304 181.408 393.308 180.304 392.012 179.464C390.74 178.624 389.072 178.204 387.008 178.204C385.664 178.204 384.392 178.432 383.192 178.888C381.992 179.32 380.936 180.028 380.024 181.012C379.136 181.996 378.428 183.292 377.9 184.9C377.396 186.508 377.144 188.464 377.144 190.768L372.464 189.004C372.464 185.476 373.124 182.368 374.444 179.68C375.764 176.968 377.66 174.856 380.132 173.344C382.604 171.832 385.592 171.076 389.096 171.076C391.784 171.076 394.04 171.508 395.864 172.372C397.688 173.236 399.164 174.376 400.292 175.792C401.444 177.184 402.32 178.708 402.92 180.364C403.52 182.02 403.928 183.64 404.144 185.224C404.36 186.808 404.468 188.2 404.468 189.4V211H396.836ZM369.512 211V172.12H376.244V183.352H377.144V211H369.512ZM429.865 229.36C427.777 229.36 425.749 229.036 423.781 228.388C421.837 227.74 420.061 226.78 418.453 225.508C416.845 224.26 415.513 222.712 414.457 220.864L421.405 217.336C422.245 218.992 423.445 220.204 425.005 220.972C426.565 221.74 428.209 222.124 429.937 222.124C432.073 222.124 433.897 221.74 435.409 220.972C436.921 220.228 438.061 219.1 438.829 217.588C439.621 216.076 440.005 214.204 439.981 211.972V201.1H440.881V172.12H447.541V212.044C447.541 213.076 447.505 214.06 447.433 214.996C447.361 215.932 447.229 216.868 447.037 217.804C446.485 220.42 445.429 222.58 443.869 224.284C442.333 225.988 440.365 227.26 437.965 228.1C435.589 228.94 432.889 229.36 429.865 229.36ZM429.289 212.08C425.665 212.08 422.533 211.18 419.893 209.38C417.277 207.58 415.249 205.132 413.809 202.036C412.393 198.916 411.685 195.412 411.685 191.524C411.685 187.612 412.405 184.12 413.845 181.048C415.285 177.952 417.325 175.516 419.965 173.74C422.629 171.94 425.785 171.04 429.433 171.04C433.105 171.04 436.189 171.94 438.685 173.74C441.205 175.516 443.101 177.952 444.373 181.048C445.669 184.144 446.317 187.636 446.317 191.524C446.317 195.412 445.669 198.904 444.373 202C443.077 205.096 441.169 207.556 438.649 209.38C436.129 211.18 433.009 212.08 429.289 212.08ZM430.333 205.276C432.805 205.276 434.821 204.688 436.381 203.512C437.941 202.336 439.081 200.716 439.801 198.652C440.521 196.588 440.881 194.212 440.881 191.524C440.881 188.836 440.509 186.46 439.765 184.396C439.045 182.332 437.917 180.724 436.381 179.572C434.869 178.42 432.937 177.844 430.585 177.844C428.089 177.844 426.037 178.456 424.429 179.68C422.821 180.904 421.621 182.548 420.829 184.612C420.061 186.676 419.677 188.98 419.677 191.524C419.677 194.092 420.061 196.42 420.829 198.508C421.621 200.572 422.797 202.216 424.357 203.44C425.941 204.664 427.933 205.276 430.333 205.276ZM483.043 212.08C480.163 212.08 477.751 211.552 475.807 210.496C473.863 209.416 472.387 208 471.379 206.248C470.395 204.472 469.903 202.528 469.903 200.416C469.903 198.448 470.251 196.72 470.947 195.232C471.643 193.744 472.675 192.484 474.043 191.452C475.411 190.396 477.091 189.544 479.083 188.896C480.811 188.392 482.767 187.948 484.951 187.564C487.135 187.18 489.427 186.82 491.827 186.484C494.251 186.148 496.651 185.812 499.027 185.476L496.291 186.988C496.339 183.94 495.691 181.684 494.347 180.22C493.027 178.732 490.747 177.988 487.507 177.988C485.467 177.988 483.595 178.468 481.891 179.428C480.187 180.364 478.999 181.924 478.327 184.108L471.307 181.948C472.267 178.612 474.091 175.96 476.779 173.992C479.491 172.024 483.091 171.04 487.579 171.04C491.059 171.04 494.083 171.64 496.651 172.84C499.243 174.016 501.139 175.888 502.339 178.456C502.963 179.728 503.347 181.072 503.491 182.488C503.635 183.904 503.707 185.428 503.707 187.06V211H497.047V202.108L498.343 203.26C496.735 206.236 494.683 208.456 492.187 209.92C489.715 211.36 486.667 212.08 483.043 212.08ZM484.375 205.924C486.511 205.924 488.347 205.552 489.883 204.808C491.419 204.04 492.655 203.068 493.591 201.892C494.527 200.716 495.139 199.492 495.427 198.22C495.835 197.068 496.063 195.772 496.111 194.332C496.183 192.892 496.219 191.74 496.219 190.876L498.667 191.776C496.291 192.136 494.131 192.46 492.187 192.748C490.243 193.036 488.479 193.324 486.895 193.612C485.335 193.876 483.943 194.2 482.719 194.584C481.687 194.944 480.763 195.376 479.947 195.88C479.155 196.384 478.519 196.996 478.039 197.716C477.583 198.436 477.355 199.312 477.355 200.344C477.355 201.352 477.607 202.288 478.111 203.152C478.615 203.992 479.383 204.664 480.415 205.168C481.447 205.672 482.767 205.924 484.375 205.924ZM529.076 229.36C526.988 229.36 524.96 229.036 522.992 228.388C521.048 227.74 519.272 226.78 517.664 225.508C516.056 224.26 514.724 222.712 513.668 220.864L520.616 217.336C521.456 218.992 522.656 220.204 524.216 220.972C525.776 221.74 527.42 222.124 529.148 222.124C531.284 222.124 533.108 221.74 534.62 220.972C536.132 220.228 537.272 219.1 538.04 217.588C538.832 216.076 539.216 214.204 539.192 211.972V201.1H540.092V172.12H546.752V212.044C546.752 213.076 546.716 214.06 546.644 214.996C546.572 215.932 546.44 216.868 546.248 217.804C545.696 220.42 544.64 222.58 543.08 224.284C541.544 225.988 539.576 227.26 537.176 228.1C534.8 228.94 532.1 229.36 529.076 229.36ZM528.5 212.08C524.876 212.08 521.744 211.18 519.104 209.38C516.488 207.58 514.46 205.132 513.02 202.036C511.604 198.916 510.896 195.412 510.896 191.524C510.896 187.612 511.616 184.12 513.056 181.048C514.496 177.952 516.536 175.516 519.176 173.74C521.84 171.94 524.996 171.04 528.644 171.04C532.316 171.04 535.4 171.94 537.896 173.74C540.416 175.516 542.312 177.952 543.584 181.048C544.88 184.144 545.528 187.636 545.528 191.524C545.528 195.412 544.88 198.904 543.584 202C542.288 205.096 540.38 207.556 537.86 209.38C535.34 211.18 532.22 212.08 528.5 212.08ZM529.544 205.276C532.016 205.276 534.032 204.688 535.592 203.512C537.152 202.336 538.292 200.716 539.012 198.652C539.732 196.588 540.092 194.212 540.092 191.524C540.092 188.836 539.72 186.46 538.976 184.396C538.256 182.332 537.128 180.724 535.592 179.572C534.08 178.42 532.148 177.844 529.796 177.844C527.3 177.844 525.248 178.456 523.64 179.68C522.032 180.904 520.832 182.548 520.04 184.612C519.272 186.676 518.888 188.98 518.888 191.524C518.888 194.092 519.272 196.42 520.04 198.508C520.832 200.572 522.008 202.216 523.568 203.44C525.152 204.664 527.144 205.276 529.544 205.276ZM557.58 165.748V158.44H565.104V165.748H557.58ZM557.58 211V172.12H565.104V211H557.58ZM603.203 211V191.884C603.203 190.372 603.071 188.824 602.807 187.24C602.567 185.632 602.087 184.144 601.367 182.776C600.671 181.408 599.675 180.304 598.379 179.464C597.107 178.624 595.439 178.204 593.375 178.204C592.031 178.204 590.759 178.432 589.559 178.888C588.359 179.32 587.303 180.028 586.391 181.012C585.503 181.996 584.795 183.292 584.267 184.9C583.763 186.508 583.511 188.464 583.511 190.768L578.831 189.004C578.831 185.476 579.491 182.368 580.811 179.68C582.131 176.968 584.027 174.856 586.499 173.344C588.971 171.832 591.959 171.076 595.463 171.076C598.151 171.076 600.407 171.508 602.231 172.372C604.055 173.236 605.531 174.376 606.659 175.792C607.811 177.184 608.687 178.708 609.287 180.364C609.887 182.02 610.295 183.64 610.511 185.224C610.727 186.808 610.835 188.2 610.835 189.4V211H603.203ZM575.879 211V172.12H582.611V183.352H583.511V211H575.879ZM636.232 229.36C634.144 229.36 632.116 229.036 630.148 228.388C628.204 227.74 626.428 226.78 624.82 225.508C623.212 224.26 621.88 222.712 620.824 220.864L627.772 217.336C628.612 218.992 629.812 220.204 631.372 220.972C632.932 221.74 634.576 222.124 636.304 222.124C638.44 222.124 640.264 221.74 641.776 220.972C643.288 220.228 644.428 219.1 645.196 217.588C645.988 216.076 646.372 214.204 646.348 211.972V201.1H647.248V172.12H653.908V212.044C653.908 213.076 653.872 214.06 653.8 214.996C653.728 215.932 653.596 216.868 653.404 217.804C652.852 220.42 651.796 222.58 650.236 224.284C648.7 225.988 646.732 227.26 644.332 228.1C641.956 228.94 639.256 229.36 636.232 229.36ZM635.656 212.08C632.032 212.08 628.9 211.18 626.26 209.38C623.644 207.58 621.616 205.132 620.176 202.036C618.76 198.916 618.052 195.412 618.052 191.524C618.052 187.612 618.772 184.12 620.212 181.048C621.652 177.952 623.692 175.516 626.332 173.74C628.996 171.94 632.152 171.04 635.8 171.04C639.472 171.04 642.556 171.94 645.052 173.74C647.572 175.516 649.468 177.952 650.74 181.048C652.036 184.144 652.684 187.636 652.684 191.524C652.684 195.412 652.036 198.904 650.74 202C649.444 205.096 647.536 207.556 645.016 209.38C642.496 211.18 639.376 212.08 635.656 212.08ZM636.7 205.276C639.172 205.276 641.188 204.688 642.748 203.512C644.308 202.336 645.448 200.716 646.168 198.652C646.888 196.588 647.248 194.212 647.248 191.524C647.248 188.836 646.876 186.46 646.132 184.396C645.412 182.332 644.284 180.724 642.748 179.572C641.236 178.42 639.304 177.844 636.952 177.844C634.456 177.844 632.404 178.456 630.796 179.68C629.188 180.904 627.988 182.548 627.196 184.612C626.428 186.676 626.044 188.98 626.044 191.524C626.044 194.092 626.428 196.42 627.196 198.508C627.988 200.572 629.164 202.216 630.724 203.44C632.308 204.664 634.3 205.276 636.7 205.276ZM695.315 212.08C691.427 212.08 688.055 211.204 685.199 209.452C682.343 207.7 680.135 205.288 678.575 202.216C677.039 199.12 676.271 195.556 676.271 191.524C676.271 187.468 677.063 183.904 678.647 180.832C680.231 177.736 682.451 175.336 685.307 173.632C688.163 171.904 691.499 171.04 695.315 171.04C699.203 171.04 702.575 171.916 705.431 173.668C708.287 175.42 710.495 177.832 712.055 180.904C713.615 183.976 714.395 187.516 714.395 191.524C714.395 195.58 713.603 199.156 712.019 202.252C710.459 205.324 708.251 207.736 705.395 209.488C702.539 211.216 699.179 212.08 695.315 212.08ZM695.315 204.988C699.035 204.988 701.807 203.74 703.631 201.244C705.479 198.724 706.403 195.484 706.403 191.524C706.403 187.468 705.467 184.228 703.595 181.804C701.747 179.356 698.987 178.132 695.315 178.132C692.795 178.132 690.719 178.708 689.087 179.86C687.455 180.988 686.243 182.56 685.451 184.576C684.659 186.568 684.263 188.884 684.263 191.524C684.263 195.604 685.199 198.868 687.071 201.316C688.943 203.764 691.691 204.988 695.315 204.988ZM740.558 212.08C736.838 212.08 733.718 211.18 731.198 209.38C728.678 207.556 726.77 205.096 725.474 202C724.178 198.904 723.53 195.412 723.53 191.524C723.53 187.636 724.166 184.144 725.438 181.048C726.734 177.952 728.63 175.516 731.126 173.74C733.646 171.94 736.742 171.04 740.414 171.04C744.062 171.04 747.206 171.94 749.846 173.74C752.51 175.516 754.562 177.952 756.002 181.048C757.442 184.12 758.162 187.612 758.162 191.524C758.162 195.412 757.442 198.916 756.002 202.036C754.586 205.132 752.558 207.58 749.918 209.38C747.302 211.18 744.182 212.08 740.558 212.08ZM722.27 228.28V172.12H728.966V200.092H729.83V228.28H722.27ZM739.514 205.276C741.914 205.276 743.894 204.664 745.454 203.44C747.038 202.216 748.214 200.572 748.982 198.508C749.774 196.42 750.17 194.092 750.17 191.524C750.17 188.98 749.774 186.676 748.982 184.612C748.214 182.548 747.026 180.904 745.418 179.68C743.81 178.456 741.758 177.844 739.262 177.844C736.91 177.844 734.966 178.42 733.43 179.572C731.918 180.724 730.79 182.332 730.046 184.396C729.326 186.46 728.966 188.836 728.966 191.524C728.966 194.212 729.326 196.588 730.046 198.652C730.766 200.716 731.906 202.336 733.466 203.512C735.026 204.688 737.042 205.276 739.514 205.276ZM788.358 211C785.91 211.48 783.51 211.684 781.158 211.612C778.806 211.54 776.706 211.084 774.858 210.244C773.01 209.404 771.618 208.084 770.682 206.284C769.842 204.676 769.386 203.044 769.314 201.388C769.266 199.708 769.242 197.812 769.242 195.7V161.32H776.802V195.34C776.802 196.9 776.814 198.256 776.838 199.408C776.886 200.56 777.138 201.532 777.594 202.324C778.458 203.812 779.826 204.664 781.698 204.88C783.594 205.072 785.814 204.988 788.358 204.628V211ZM761.79 178.168V172.12H788.358V178.168H761.79ZM797.276 165.748V158.44H804.8V165.748H797.276ZM797.276 211V172.12H804.8V211H797.276ZM832.494 212.08C828.606 212.08 825.234 211.204 822.378 209.452C819.522 207.7 817.314 205.288 815.754 202.216C814.218 199.12 813.45 195.556 813.45 191.524C813.45 187.468 814.242 183.904 815.826 180.832C817.41 177.736 819.63 175.336 822.486 173.632C825.342 171.904 828.678 171.04 832.494 171.04C836.382 171.04 839.754 171.916 842.61 173.668C845.466 175.42 847.674 177.832 849.234 180.904C850.794 183.976 851.574 187.516 851.574 191.524C851.574 195.58 850.782 199.156 849.198 202.252C847.638 205.324 845.43 207.736 842.574 209.488C839.718 211.216 836.358 212.08 832.494 212.08ZM832.494 204.988C836.214 204.988 838.986 203.74 840.81 201.244C842.658 198.724 843.582 195.484 843.582 191.524C843.582 187.468 842.646 184.228 840.774 181.804C838.926 179.356 836.166 178.132 832.494 178.132C829.974 178.132 827.898 178.708 826.266 179.86C824.634 180.988 823.422 182.56 822.63 184.576C821.838 186.568 821.442 188.884 821.442 191.524C821.442 195.604 822.378 198.868 824.25 201.316C826.122 203.764 828.87 204.988 832.494 204.988ZM886.773 211V191.884C886.773 190.372 886.641 188.824 886.377 187.24C886.137 185.632 885.657 184.144 884.937 182.776C884.241 181.408 883.245 180.304 881.949 179.464C880.677 178.624 879.009 178.204 876.945 178.204C875.601 178.204 874.329 178.432 873.129 178.888C871.929 179.32 870.873 180.028 869.961 181.012C869.073 181.996 868.365 183.292 867.837 184.9C867.333 186.508 867.081 188.464 867.081 190.768L862.401 189.004C862.401 185.476 863.061 182.368 864.381 179.68C865.701 176.968 867.597 174.856 870.069 173.344C872.541 171.832 875.529 171.076 879.033 171.076C881.721 171.076 883.977 171.508 885.801 172.372C887.625 173.236 889.101 174.376 890.229 175.792C891.381 177.184 892.257 178.708 892.857 180.364C893.457 182.02 893.865 183.64 894.081 185.224C894.297 186.808 894.405 188.2 894.405 189.4V211H886.773ZM859.449 211V172.12H866.181V183.352H867.081V211H859.449ZM914.762 212.08C911.882 212.08 909.47 211.552 907.526 210.496C905.582 209.416 904.106 208 903.098 206.248C902.114 204.472 901.622 202.528 901.622 200.416C901.622 198.448 901.97 196.72 902.666 195.232C903.362 193.744 904.394 192.484 905.762 191.452C907.13 190.396 908.81 189.544 910.802 188.896C912.53 188.392 914.486 187.948 916.67 187.564C918.854 187.18 921.146 186.82 923.546 186.484C925.97 186.148 928.37 185.812 930.746 185.476L928.01 186.988C928.058 183.94 927.41 181.684 926.066 180.22C924.746 178.732 922.466 177.988 919.226 177.988C917.186 177.988 915.314 178.468 913.61 179.428C911.906 180.364 910.718 181.924 910.046 184.108L903.026 181.948C903.986 178.612 905.81 175.96 908.498 173.992C911.21 172.024 914.81 171.04 919.298 171.04C922.778 171.04 925.802 171.64 928.37 172.84C930.962 174.016 932.858 175.888 934.058 178.456C934.682 179.728 935.066 181.072 935.21 182.488C935.354 183.904 935.426 185.428 935.426 187.06V211H928.766V202.108L930.062 203.26C928.454 206.236 926.402 208.456 923.906 209.92C921.434 211.36 918.386 212.08 914.762 212.08ZM916.094 205.924C918.23 205.924 920.066 205.552 921.602 204.808C923.138 204.04 924.374 203.068 925.31 201.892C926.246 200.716 926.858 199.492 927.146 198.22C927.554 197.068 927.782 195.772 927.83 194.332C927.902 192.892 927.938 191.74 927.938 190.876L930.386 191.776C928.01 192.136 925.85 192.46 923.906 192.748C921.962 193.036 920.198 193.324 918.614 193.612C917.054 193.876 915.662 194.2 914.438 194.584C913.406 194.944 912.482 195.376 911.666 195.88C910.874 196.384 910.238 196.996 909.758 197.716C909.302 198.436 909.074 199.312 909.074 200.344C909.074 201.352 909.326 202.288 909.83 203.152C910.334 203.992 911.102 204.664 912.134 205.168C913.166 205.672 914.486 205.924 916.094 205.924ZM945.494 211V158.08H953.018V211H945.494Z"
                                    fill="black"
                                />
                                <path
                                    d="M641.156 102.959C639.68 102.959 638.543 102.76 637.746 102.361C636.926 101.986 636.363 101.471 636.059 100.814C635.73 100.158 635.566 99.4434 635.566 98.6699C635.566 97.2637 636.012 96.2441 636.902 95.6113C637.77 94.9785 638.508 94.6621 639.117 94.6621C639.211 94.6621 639.328 94.6621 639.469 94.6621C639.586 94.6621 639.668 94.6855 639.715 94.7324L642.527 99.5137C643.395 99.4668 644.238 99.0918 645.059 98.3887C645.879 97.6855 646.629 96.4199 647.309 94.5918C648.012 92.7637 648.586 90.1387 649.031 86.7168L652.969 56.0605H647.801C647.52 56.0371 647.344 55.8145 647.273 55.3926C647.203 54.9707 647.168 54.6191 647.168 54.3379C647.168 53.8926 647.285 53.5527 647.52 53.3184C647.754 53.084 647.988 52.9199 648.223 52.8262L653.426 52.5449L653.848 49.627C654.176 47.4238 654.668 45.2793 655.324 43.1934C656.004 41.1074 656.906 39.2324 658.031 37.5684C659.156 35.9043 660.539 34.5801 662.18 33.5957C663.844 32.6113 665.812 32.1191 668.086 32.1191C669.164 32.1191 670.078 32.3184 670.828 32.7168C671.602 33.1152 672.188 33.666 672.586 34.3691C673.008 35.0723 673.219 35.8809 673.219 36.7949C673.219 37.709 672.973 38.4238 672.48 38.9395C671.988 39.4551 671.426 39.8184 670.793 40.0293C670.184 40.2168 669.668 40.3105 669.246 40.3105C668.988 40.3105 668.859 40.2754 668.859 40.2051L666.012 35.5645C665.309 35.5645 664.641 35.8926 664.008 36.5488C663.375 37.1816 662.766 38.4238 662.18 40.2754C661.617 42.127 661.078 44.8691 660.562 48.502L660 52.4746H668.156C668.625 52.5215 668.859 52.8145 668.859 53.3535C668.859 53.7754 668.777 54.3027 668.613 54.9355C668.473 55.5684 668.273 55.9434 668.016 56.0605H659.508L655.781 85.4512C655.406 88.4277 654.598 91.252 653.355 93.9238C652.137 96.5957 650.496 98.7637 648.434 100.428C646.395 102.115 643.969 102.959 641.156 102.959ZM682.184 88.4043C680.684 88.4043 679.254 88.2168 677.895 87.8418C676.535 87.4668 675.434 86.7402 674.59 85.6621C673.746 84.5605 673.324 82.9316 673.324 80.7754C673.324 80.002 673.395 79.1465 673.535 78.209L676.453 58.5215C676.477 58.3574 676.488 58.1465 676.488 57.8887C676.488 57.1152 676.277 56.6113 675.855 56.377C675.457 56.1191 674.977 55.9902 674.414 55.9902C673.922 55.9902 673.406 56.0605 672.867 56.2012C672.328 56.3184 671.895 56.377 671.566 56.377C671.004 56.377 670.664 56.0371 670.547 55.3574C670.5 55.0996 670.559 54.8066 670.723 54.4785C670.91 54.127 671.191 53.8926 671.566 53.7754C674.754 52.6035 677.168 52.0176 678.809 52.0176C680.168 52.0176 681.176 52.252 681.832 52.7207C682.512 53.1895 682.957 53.752 683.168 54.4082C683.402 55.041 683.52 55.627 683.52 56.166C683.52 56.541 683.496 56.8574 683.449 57.1152C683.402 57.3496 683.379 57.4668 683.379 57.4668L680.285 78.877C680.262 79.1348 680.227 79.4043 680.18 79.6855C680.156 79.9434 680.145 80.2012 680.145 80.459C680.145 81.4668 680.426 82.334 680.988 83.0605C681.551 83.7871 682.652 84.1504 684.293 84.1504C686.332 84.1504 688.102 83.7402 689.602 82.9199C691.102 82.0762 692.367 81.2207 693.398 80.3535L697.16 52.5098L702.961 52.4746C703.734 52.4746 704.121 52.8027 704.121 53.459L700.043 82.1113C699.949 82.6738 700.066 83.1426 700.395 83.5176C700.746 83.8691 701.32 84.0449 702.117 84.0449C702.609 84.0449 703.23 83.9512 703.98 83.7637C704.73 83.5527 705.281 83.4473 705.633 83.4473C705.844 83.4473 706.043 83.4941 706.23 83.5879C706.418 83.6816 706.512 83.9863 706.512 84.502C706.512 84.7832 706.441 85.0762 706.301 85.3809C706.184 85.6621 705.961 85.8613 705.633 85.9785C704.016 86.5176 702.445 86.9746 700.922 87.3496C699.422 87.7012 698.238 87.877 697.371 87.877C696.012 87.877 695.027 87.6543 694.418 87.209C693.832 86.7402 693.457 86.1895 693.293 85.5566C693.152 84.9238 693.082 84.3496 693.082 83.834C693.082 83.7637 693.082 83.6934 693.082 83.623C693.082 83.5293 693.082 83.4473 693.082 83.377C692.402 84.1035 691.465 84.8652 690.27 85.6621C689.098 86.4355 687.797 87.0801 686.367 87.5957C684.961 88.1348 683.566 88.4043 682.184 88.4043ZM719.73 88.1582C718.723 88.1582 717.727 87.9941 716.742 87.666C715.781 87.3613 714.984 86.7637 714.352 85.873C713.719 84.959 713.402 83.6465 713.402 81.9355C713.402 81.584 713.414 81.209 713.438 80.8105C713.461 80.4121 713.508 80.002 713.578 79.5801L717.691 56.0605H713.789C713.555 56.0371 713.391 55.873 713.297 55.5684C713.203 55.2637 713.156 54.9707 713.156 54.6895C713.156 54.127 713.262 53.7051 713.473 53.4238C713.684 53.1426 713.941 52.9434 714.246 52.8262C715.582 52.709 716.766 52.3457 717.797 51.7363C718.852 51.1035 719.836 50.084 720.75 48.6777C721.688 47.2715 722.637 45.3262 723.598 42.8418C723.715 42.5137 723.891 42.3027 724.125 42.209C724.383 42.0918 724.664 42.0332 724.969 42.0332H726.199C726.41 42.0332 726.574 42.0918 726.691 42.209C726.832 42.3027 726.902 42.4199 726.902 42.5605L725.109 52.4746H733.582C733.816 52.498 733.992 52.6035 734.109 52.791C734.227 52.9551 734.285 53.1543 734.285 53.3887C734.285 53.8105 734.156 54.3379 733.898 54.9707C733.664 55.5801 733.395 55.9434 733.09 56.0605H724.617L720.855 77.1543C720.762 77.6699 720.703 78.1504 720.68 78.5957C720.656 79.041 720.645 79.4512 720.645 79.8262C720.645 81.584 720.949 82.6855 721.559 83.1309C722.168 83.5762 722.836 83.7988 723.562 83.7988C724.523 83.7988 725.414 83.6465 726.234 83.3418C727.055 83.0137 727.746 82.6973 728.309 82.3926C728.895 82.0645 729.258 81.9004 729.398 81.9004C729.609 81.9004 729.832 82.0762 730.066 82.4277C730.301 82.7559 730.418 83.084 730.418 83.4121C730.418 83.7168 730.324 83.9629 730.137 84.1504C729.34 84.9473 728.344 85.6504 727.148 86.2598C725.953 86.8457 724.699 87.3027 723.387 87.6309C722.074 87.9824 720.855 88.1582 719.73 88.1582ZM748.629 88.4043C747.129 88.4043 745.699 88.2168 744.34 87.8418C742.98 87.4668 741.879 86.7402 741.035 85.6621C740.191 84.5605 739.77 82.9316 739.77 80.7754C739.77 80.002 739.84 79.1465 739.98 78.209L742.898 58.5215C742.922 58.3574 742.934 58.1465 742.934 57.8887C742.934 57.1152 742.723 56.6113 742.301 56.377C741.902 56.1191 741.422 55.9902 740.859 55.9902C740.367 55.9902 739.852 56.0605 739.312 56.2012C738.773 56.3184 738.34 56.377 738.012 56.377C737.449 56.377 737.109 56.0371 736.992 55.3574C736.945 55.0996 737.004 54.8066 737.168 54.4785C737.355 54.127 737.637 53.8926 738.012 53.7754C741.199 52.6035 743.613 52.0176 745.254 52.0176C746.613 52.0176 747.621 52.252 748.277 52.7207C748.957 53.1895 749.402 53.752 749.613 54.4082C749.848 55.041 749.965 55.627 749.965 56.166C749.965 56.541 749.941 56.8574 749.895 57.1152C749.848 57.3496 749.824 57.4668 749.824 57.4668L746.73 78.877C746.707 79.1348 746.672 79.4043 746.625 79.6855C746.602 79.9434 746.59 80.2012 746.59 80.459C746.59 81.4668 746.871 82.334 747.434 83.0605C747.996 83.7871 749.098 84.1504 750.738 84.1504C752.777 84.1504 754.547 83.7402 756.047 82.9199C757.547 82.0762 758.812 81.2207 759.844 80.3535L763.605 52.5098L769.406 52.4746C770.18 52.4746 770.566 52.8027 770.566 53.459L766.488 82.1113C766.395 82.6738 766.512 83.1426 766.84 83.5176C767.191 83.8691 767.766 84.0449 768.562 84.0449C769.055 84.0449 769.676 83.9512 770.426 83.7637C771.176 83.5527 771.727 83.4473 772.078 83.4473C772.289 83.4473 772.488 83.4941 772.676 83.5879C772.863 83.6816 772.957 83.9863 772.957 84.502C772.957 84.7832 772.887 85.0762 772.746 85.3809C772.629 85.6621 772.406 85.8613 772.078 85.9785C770.461 86.5176 768.891 86.9746 767.367 87.3496C765.867 87.7012 764.684 87.877 763.816 87.877C762.457 87.877 761.473 87.6543 760.863 87.209C760.277 86.7402 759.902 86.1895 759.738 85.5566C759.598 84.9238 759.527 84.3496 759.527 83.834C759.527 83.7637 759.527 83.6934 759.527 83.623C759.527 83.5293 759.527 83.4473 759.527 83.377C758.848 84.1035 757.91 84.8652 756.715 85.6621C755.543 86.4355 754.242 87.0801 752.812 87.5957C751.406 88.1348 750.012 88.4043 748.629 88.4043ZM791.555 60.4551C791.953 59.9629 792.48 59.248 793.137 58.3105C793.816 57.373 794.637 56.4004 795.598 55.3926C796.559 54.3848 797.648 53.5293 798.867 52.8262C800.109 52.123 801.492 51.7715 803.016 51.7715C804.961 51.7715 806.414 52.334 807.375 53.459C808.336 54.584 808.816 55.8848 808.816 57.3613C808.816 58.252 808.641 59.2012 808.289 60.209C807.938 61.2168 807.352 62.0723 806.531 62.7754C805.711 63.4785 804.586 63.8301 803.156 63.8301L800.484 56.9395C799.547 56.9395 798.492 57.3496 797.32 58.1699C796.172 58.9668 795.047 59.9277 793.945 61.0527C792.844 62.1777 791.93 63.2207 791.203 64.1816L787.441 87.4199H780.691L785.016 60.0684C785.086 59.6699 785.121 59.3301 785.121 59.0488C785.121 57.9707 784.734 57.2324 783.961 56.834C783.211 56.4121 782.367 56.1543 781.43 56.0605C780.492 55.9434 779.766 55.8145 779.25 55.6738C778.805 55.4629 778.582 55.1113 778.582 54.6191C778.582 54.1504 778.688 53.7285 778.898 53.3535C779.133 52.9551 779.391 52.7441 779.672 52.7207C782.273 52.5801 784.688 52.4863 786.914 52.4395C789.141 52.3926 790.746 52.3691 791.73 52.3691C791.918 52.3691 792.105 52.4395 792.293 52.5801C792.504 52.7207 792.609 53.002 792.609 53.4238C792.609 53.4238 792.492 53.9746 792.258 55.0762C792.047 56.1777 791.812 57.9707 791.555 60.4551ZM840.527 59.2949C840.527 61.1465 839.941 62.8223 838.77 64.3223C837.621 65.7988 836.051 67.0996 834.059 68.2246C832.066 69.3496 829.805 70.3223 827.273 71.1426C824.766 71.9395 822.141 72.5957 819.398 73.1113C819.398 73.3691 819.398 73.6387 819.398 73.9199C819.398 74.2012 819.398 74.4824 819.398 74.7637C819.398 77.2012 819.703 79.1582 820.312 80.6348C820.922 82.0879 821.73 83.1426 822.738 83.7988C823.746 84.4551 824.824 84.7832 825.973 84.7832C828.059 84.7832 829.898 84.3613 831.492 83.5176C833.086 82.6738 834.703 81.4551 836.344 79.8613C836.461 79.7207 836.578 79.6035 836.695 79.5098C836.812 79.3926 836.953 79.3926 837.117 79.5098C837.375 79.6504 837.609 79.8262 837.82 80.0371C838.055 80.2246 838.254 80.4355 838.418 80.6699C838.465 80.7402 838.5 80.7988 838.523 80.8457C838.57 80.8926 838.594 80.9395 838.594 80.9863C838.594 81.1035 838.547 81.2207 838.453 81.3379C838.359 81.4316 838.289 81.5371 838.242 81.6543C836.672 83.6465 834.809 85.2754 832.652 86.541C830.52 87.8066 827.953 88.4395 824.953 88.4395C820.711 88.4395 817.453 87.0801 815.18 84.3613C812.906 81.6426 811.77 78.0566 811.77 73.6035C811.77 70.5098 812.297 67.6387 813.352 64.9902C814.406 62.3184 815.824 59.998 817.605 58.0293C819.41 56.0605 821.426 54.5254 823.652 53.4238C825.902 52.3223 828.211 51.7715 830.578 51.7715C833.156 51.7715 835.16 52.1699 836.59 52.9668C838.043 53.7637 839.062 54.748 839.648 55.9199C840.234 57.0684 840.527 58.1934 840.527 59.2949ZM830.402 54.6191C827.824 54.6191 825.48 56.002 823.371 58.7676C821.285 61.5332 820.008 65.4121 819.539 70.4043C824.203 69.4199 827.777 67.9668 830.262 66.0449C832.77 64.123 834 61.4277 833.953 57.959C833.93 56.8574 833.555 56.0254 832.828 55.4629C832.102 54.9004 831.293 54.6191 830.402 54.6191Z"
                                    fill="#5F4AFB"
                                />
                                <path
                                    d="M625.721 122.975C661.77 113.848 754.484 97.4747 836.958 104.996"
                                    stroke="#5F4AFB"
                                    stroke-width="6"
                                    stroke-linecap="round"
                                />
                            </svg>