<svg width="18" height="18" viewBox="0 0 18 18" fill="none" xmlns="http://www.w3.org/2000/svg">
<path d="M16.9162 10.2463L15.4912 5.11927C15.0736 3.61727 14.1658 2.29798 12.9122 1.37112C11.6587 0.444257 10.1313 -0.0369924 8.57284 0.00386772C7.01438 0.0447278 5.5143 0.605353 4.31104 1.59663C3.10777 2.58791 2.27039 3.95294 1.93199 5.47477L0.828736 10.436C0.706873 10.9842 0.70969 11.5528 0.836981 12.0998C0.964272 12.6467 1.21278 13.1581 1.56417 13.5962C1.91556 14.0342 2.36085 14.3878 2.86717 14.6307C3.37349 14.8737 3.9279 14.9998 4.48949 14.9998H5.32499C5.49712 15.8475 5.95703 16.6096 6.62679 17.157C7.29655 17.7045 8.13497 18.0035 8.99999 18.0035C9.865 18.0035 10.7034 17.7045 11.3732 17.157C12.0429 16.6096 12.5029 15.8475 12.675 14.9998H13.3035C13.8816 14.9998 14.4519 14.8662 14.9698 14.6093C15.4877 14.3525 15.9392 13.9794 16.2891 13.5192C16.639 13.0589 16.8777 12.5241 16.9866 11.9563C17.0955 11.3885 17.0709 10.8033 16.9162 10.2463ZM8.99999 16.4998C8.53629 16.4978 8.08452 16.3527 7.70646 16.0842C7.32841 15.8157 7.04255 15.4369 6.88799 14.9998H11.112C10.9574 15.4369 10.6716 15.8157 10.2935 16.0842C9.91546 16.3527 9.46368 16.4978 8.99999 16.4998ZM15.0945 12.611C14.8855 12.8883 14.6147 13.113 14.3037 13.2672C13.9927 13.4215 13.6499 13.5011 13.3027 13.4998H4.48949C4.15258 13.4997 3.81998 13.424 3.51624 13.2782C3.21251 13.1324 2.94539 12.9203 2.73461 12.6574C2.52382 12.3946 2.37476 12.0878 2.29841 11.7597C2.22206 11.4315 2.22038 11.0904 2.29349 10.7615L3.39599 5.79952C3.66175 4.60417 4.31947 3.53197 5.26458 2.75335C6.20969 1.97474 7.38796 1.5344 8.61207 1.50233C9.83618 1.47026 11.0359 1.84831 12.0205 2.57637C13.005 3.30443 13.718 4.34073 14.046 5.52052L15.471 10.6475C15.5651 10.9815 15.5801 11.3329 15.5148 11.6738C15.4494 12.0146 15.3055 12.3355 15.0945 12.611Z" fill="#4B4B4B"/>
</svg>
