<svg width="23" height="19" viewBox="0 0 23 19" fill="none" xmlns="http://www.w3.org/2000/svg">
<path d="M16.9162 11.2463L15.4912 6.11927C15.0736 4.61727 14.1658 3.29798 12.9122 2.37112C11.6587 1.44426 10.1313 0.963008 8.57284 1.00387C7.01438 1.04473 5.5143 1.60535 4.31103 2.59663C3.10777 3.5879 2.27039 4.95294 1.93199 6.47477L0.828736 11.436C0.706873 11.9842 0.70969 12.5528 0.836981 13.0998C0.964272 13.6467 1.21278 14.1581 1.56417 14.5962C1.91556 15.0342 2.36085 15.3878 2.86717 15.6307C3.37349 15.8737 3.9279 15.9998 4.48949 15.9998H5.32499C5.49712 16.8475 5.95703 17.6096 6.62679 18.157C7.29655 18.7045 8.13497 19.0035 8.99999 19.0035C9.865 19.0035 10.7034 18.7045 11.3732 18.157C12.0429 17.6096 12.5029 16.8475 12.675 15.9998H13.3035C13.8816 15.9998 14.4519 15.8662 14.9698 15.6093C15.4877 15.3525 15.9392 14.9794 16.2891 14.5192C16.639 14.0589 16.8777 13.5241 16.9866 12.9563C17.0955 12.3885 17.0709 11.8033 16.9162 11.2463ZM8.99999 17.4998C8.53629 17.4978 8.08452 17.3527 7.70646 17.0842C7.32841 16.8157 7.04255 16.4369 6.88799 15.9998H11.112C10.9574 16.4369 10.6716 16.8157 10.2935 17.0842C9.91546 17.3527 9.46368 17.4978 8.99999 17.4998ZM15.0945 13.611C14.8855 13.8883 14.6147 14.113 14.3037 14.2672C13.9927 14.4215 13.6499 14.5011 13.3027 14.4998H4.48949C4.15258 14.4997 3.81998 14.424 3.51624 14.2782C3.21251 14.1324 2.94539 13.9203 2.73461 13.6574C2.52382 13.3946 2.37476 13.0878 2.29841 12.7597C2.22206 12.4315 2.22038 12.0904 2.29349 11.7615L3.39599 6.79952C3.66175 5.60417 4.31947 4.53197 5.26458 3.75335C6.20969 2.97474 7.38796 2.5344 8.61207 2.50233C9.83618 2.47026 11.0359 2.84831 12.0205 3.57637C13.005 4.30443 13.718 5.34073 14.046 6.52052L15.471 11.6475C15.5651 11.9815 15.5801 12.3329 15.5148 12.6738C15.4494 13.0146 15.3055 13.3355 15.0945 13.611Z" fill="#4B4B4B"/>
<circle cx="17" cy="6" r="5" fill="#FF4F45" stroke="#EFF2F8" stroke-width="2"/>
</svg>
