<svg width="17" height="18" viewBox="0 0 17 18" fill="none" xmlns="http://www.w3.org/2000/svg">
<path d="M16.1769 10.2448L14.7519 5.1178C14.3342 3.6158 13.4264 2.29652 12.1729 1.36966C10.9193 0.442793 9.39191 -0.0384572 7.83346 0.00240287C6.275 0.043263 4.77492 0.603888 3.57166 1.59516C2.3684 2.58644 1.53101 3.95148 1.19261 5.4733L0.0893565 10.4346C-0.032507 10.9828 -0.0296895 11.5513 0.0976011 12.0983C0.224892 12.6453 0.473405 13.1567 0.824793 13.5947C1.17618 14.0328 1.62147 14.3863 2.12779 14.6293C2.63411 14.8722 3.18852 14.9983 3.75011 14.9983H4.58561C4.75774 15.846 5.21765 16.6082 5.88741 17.1556C6.55717 17.703 7.39559 18.0021 8.26061 18.0021C9.12562 18.0021 9.96404 17.703 10.6338 17.1556C11.3036 16.6082 11.7635 15.846 11.9356 14.9983H12.5641C13.1422 14.9983 13.7125 14.8647 14.2304 14.6079C14.7483 14.351 15.1999 13.9779 15.5497 13.5177C15.8996 13.0575 16.1383 12.5226 16.2472 11.9548C16.3561 11.3871 16.3316 10.8018 16.1769 10.2448ZM8.26061 16.4983C7.79691 16.4964 7.34514 16.3512 6.96708 16.0827C6.58903 15.8142 6.30317 15.4355 6.14861 14.9983H10.3726C10.218 15.4355 9.93218 15.8142 9.55413 16.0827C9.17608 16.3512 8.7243 16.4964 8.26061 16.4983ZM14.3551 12.6096C14.1461 12.8868 13.8753 13.1115 13.5643 13.2658C13.2533 13.4201 12.9106 13.4997 12.5634 13.4983H3.75011C3.4132 13.4982 3.0806 13.4225 2.77686 13.2767C2.47313 13.1309 2.20601 12.9188 1.99523 12.656C1.78445 12.3931 1.63538 12.0863 1.55903 11.7582C1.48268 11.43 1.481 11.0889 1.55411 10.7601L2.65661 5.79805C2.92237 4.60271 3.58009 3.53051 4.5252 2.75189C5.47031 1.97327 6.64858 1.53293 7.87269 1.50086C9.0968 1.4688 10.2965 1.84684 11.2811 2.5749C12.2657 3.30297 12.9786 4.33926 13.3066 5.51905L14.7316 10.6461C14.8258 10.9801 14.8408 11.3315 14.7754 11.6723C14.7101 12.0131 14.5661 12.334 14.3551 12.6096Z" fill="#4B4B4B"/>
</svg>
